<?xml version="1.0" standalone="no"?>
<!DOCTYPE svg PUBLIC "-//W3C//DTD SVG 20010904//EN"
 "http://www.w3.org/TR/2001/REC-SVG-20010904/DTD/svg10.dtd">
<svg version="1.0" xmlns="http://www.w3.org/2000/svg"
 width="4339.000000pt" height="1447.000000pt" viewBox="0 0 4339.000000 1447.000000"
 preserveAspectRatio="xMidYMid meet">

<g transform="translate(0.000000,1447.000000) scale(0.100000,-0.100000)"
fill="#586273" stroke="none">
<path d="M37331 14460 c-81 -17 -145 -42 -251 -97 -222 -114 -473 -336 -730
-643 -89 -108 -458 -653 -709 -1049 -189 -298 -194 -306 -227 -420 -18 -64
-64 -192 -102 -286 -83 -204 -96 -241 -88 -261 6 -15 9 -14 34 1 15 9 39 31
54 48 15 17 30 29 32 26 3 -3 11 -46 17 -97 7 -51 15 -92 18 -92 4 0 36 60 73
134 l67 135 69 40 c37 23 72 41 77 41 6 0 33 -16 62 -36 70 -48 95 -100 82
-169 -5 -27 -12 -80 -15 -116 -5 -60 -8 -67 -37 -84 -122 -72 -177 -187 -123
-260 13 -18 15 -16 34 21 22 44 93 114 138 137 16 8 56 23 89 32 92 27 145 91
169 205 5 22 14 27 62 38 32 6 59 11 60 9 1 -1 -2 -49 -7 -107 -17 -191 16
-371 77 -419 l22 -18 -159 -574 c-88 -316 -167 -604 -175 -642 -19 -80 -13
-129 22 -164 21 -21 33 -24 74 -21 l50 3 21 -72 21 -71 317 -191 c557 -335
563 -339 557 -369 -3 -15 -13 -106 -22 -202 -15 -158 -22 -192 -71 -350 -124
-400 -213 -816 -213 -995 0 -29 -11 -67 -35 -116 -36 -75 -44 -128 -25 -171 8
-17 4 -49 -15 -128 -14 -58 -41 -190 -60 -295 -50 -273 -146 -675 -161 -675
-26 0 -76 -55 -109 -119 -38 -77 -85 -223 -115 -361 -13 -60 -41 -138 -75
-211 -59 -128 -176 -447 -253 -694 -110 -353 -167 -594 -178 -755 -7 -94 -7
-96 -66 -190 -215 -345 -359 -743 -374 -1035 l-6 -110 32 -18 33 -18 -137
-137 c-165 -167 -235 -252 -286 -356 -33 -65 -40 -88 -40 -139 0 -153 131
-227 349 -197 215 29 407 125 481 238 17 27 53 65 79 85 72 55 226 218 269
286 22 32 45 81 52 108 18 65 51 129 116 226 65 96 83 147 65 180 -10 20 5 64
134 381 374 921 611 1458 696 1583 16 23 132 289 258 590 233 558 379 872 689
1478 156 305 263 493 312 549 25 28 45 37 116 55 48 12 88 21 89 19 1 -2 66
-91 145 -198 305 -416 588 -768 660 -818 30 -22 44 -43 69 -107 45 -115 146
-300 221 -407 77 -110 200 -237 289 -299 l63 -44 97 -215 c204 -451 324 -693
437 -885 32 -54 143 -306 279 -630 237 -568 265 -621 417 -821 64 -84 121
-230 107 -276 -24 -87 1 -158 72 -198 35 -19 62 -25 134 -28 50 -2 113 0 142
6 l52 9 135 -97 135 -97 103 -21 c173 -36 298 -53 395 -54 82 0 99 3 156 30
109 51 136 123 78 213 -40 64 -95 107 -403 319 l-273 187 -5 124 -5 124 -132
260 c-139 272 -169 344 -670 1605 -218 546 -225 568 -227 640 -3 116 -55 195
-171 258 l-47 27 -455 1090 -454 1090 -20 145 c-21 153 -41 240 -65 277 -14
22 -12 24 58 59 156 78 247 162 274 251 15 49 10 111 -10 119 -6 2 -76 -9
-156 -26 -79 -17 -180 -34 -223 -37 -89 -7 -77 -15 -156 104 -64 95 -89 183
-70 244 14 42 43 65 927 716 l913 674 60 -11 c32 -6 105 -11 161 -11 163 0
261 40 308 124 13 23 51 68 86 99 47 44 72 79 105 145 40 78 44 93 44 157 0
39 -3 78 -8 86 -5 11 4 21 36 38 197 109 297 144 512 179 91 15 164 18 423 17
312 -1 312 -1 312 20 0 29 -41 114 -74 153 -38 45 -125 100 -206 130 l-69 26
2 51 c2 45 0 51 -19 54 -19 3 -36 -12 -95 -85 -5 -7 -19 -13 -29 -13 -15 0
-20 7 -20 28 0 16 -6 37 -14 48 -19 24 -41 13 -75 -39 -23 -34 -25 -35 -50
-22 -14 7 -37 25 -50 39 -14 14 -28 26 -33 26 -4 0 -17 -18 -28 -40 -11 -22
-27 -40 -35 -40 -8 0 -31 23 -51 51 l-37 50 -30 -37 -31 -37 -177 6 -178 7 -6
-58 c-17 -165 -45 -248 -96 -285 -23 -16 -32 -17 -85 -8 -88 16 -186 -4 -295
-59 -87 -45 -166 -106 -289 -225 -102 -99 -150 -136 -260 -203 -329 -202 -682
-332 -867 -320 l-47 3 -83 125 c-278 415 -494 865 -563 1175 -14 62 -40 223
-40 251 0 17 8 23 38 29 59 10 82 30 82 70 0 71 -137 175 -475 360 l-30 17 30
21 c69 50 81 65 69 84 -39 63 -340 168 -628 218 -35 6 -38 8 -33 34 4 21 -5
47 -40 107 -25 43 -65 122 -90 174 -47 101 -76 140 -103 140 -24 0 -40 42 -40
105 0 75 -28 107 -100 115 l-53 5 -21 63 c-21 61 -24 64 -211 227 -220 191
-246 205 -390 211 -49 2 -110 -1 -134 -6z m2313 -4155 l119 -77 -44 -28 c-258
-160 -258 -160 -268 -142 -16 30 -23 161 -16 279 l7 114 42 -35 c23 -19 95
-69 160 -111z m-2541 -182 l23 -17 -21 -142 c-11 -78 -23 -145 -26 -149 -12
-11 -117 95 -139 141 -17 34 -21 57 -18 92 6 57 87 234 126 275 l27 28 3 -105
c2 -96 5 -107 25 -123z"/>
<path d="M28185 14263 c-58 -8 -188 -44 -225 -63 -45 -23 -736 -465 -764 -489
-10 -9 -32 -36 -48 -60 -22 -36 -28 -56 -28 -100 0 -63 -3 -56 144 -283 l99
-153 22 -151 c12 -91 18 -163 13 -180 -18 -68 35 -153 109 -178 l48 -16 0 -67
c1 -74 21 -124 97 -235 39 -58 385 -450 422 -479 56 -43 167 -51 256 -18 30
11 62 22 71 25 49 16 73 -329 36 -518 -29 -148 -101 -338 -129 -338 -6 0 -56
14 -112 31 -122 38 -165 35 -276 -17 -72 -33 -85 -45 -201 -177 -68 -77 -162
-179 -208 -226 -109 -113 -160 -215 -205 -411 -20 -83 -324 -767 -365 -818
-30 -39 -31 -39 -71 -28 -37 9 -46 8 -96 -18 -30 -16 -71 -48 -89 -71 -29 -35
-39 -41 -64 -37 -16 2 -54 -3 -85 -12 -69 -20 -85 -47 -93 -152 -5 -64 -8 -74
-25 -74 -10 0 -30 -12 -45 -26 -22 -22 -24 -31 -19 -67 4 -23 32 -93 64 -155
48 -94 55 -114 42 -122 -90 -52 -126 -101 -109 -150 18 -50 49 -67 188 -104
73 -19 135 -36 136 -38 2 -2 -38 -146 -88 -321 l-92 -318 -56 -23 c-77 -31
-188 -93 -355 -198 -78 -48 -149 -88 -157 -88 -31 0 -122 -40 -179 -78 -32
-21 -132 -105 -224 -186 -189 -169 -210 -199 -202 -293 4 -41 0 -65 -14 -91
-21 -43 -23 -102 -3 -156 8 -22 10 -47 6 -59 -10 -27 3 -86 33 -145 13 -26 26
-59 30 -74 8 -33 78 -77 176 -109 36 -12 79 -32 95 -44 37 -28 100 -49 126
-42 15 4 18 1 14 -16 -3 -12 -48 -265 -101 -562 l-96 -540 -20 -602 -19 -602
20 -45 c30 -68 69 -89 156 -82 77 6 483 -28 495 -41 4 -4 80 -169 169 -365
l161 -358 -15 -92 c-20 -122 -20 -299 0 -366 15 -50 57 -112 77 -112 19 0 218
-125 223 -140 2 -8 20 -96 39 -195 l36 -180 -20 -40 c-52 -101 -7 -341 122
-658 l40 -97 -165 -178 c-91 -97 -216 -227 -278 -288 l-114 -112 -160 -6
c-268 -11 -335 -28 -335 -82 0 -38 48 -75 137 -106 77 -27 83 -28 723 -58 355
-16 683 -35 729 -42 129 -18 447 16 727 78 71 15 72 16 78 52 14 85 2 228 -48
592 -59 425 -59 428 4 395 86 -44 245 -254 444 -584 47 -79 86 -146 86 -150 0
-4 -34 -47 -75 -96 -62 -74 -85 -94 -128 -111 -73 -29 -156 -73 -193 -101 -59
-45 -69 -116 -20 -148 21 -14 36 -13 158 5 86 12 292 27 564 40 236 11 467 24
514 29 113 12 210 45 260 88 68 58 71 72 64 242 l-7 148 48 7 c69 11 99 44 92
102 -2 24 -16 67 -30 96 -14 29 -28 67 -32 83 -26 118 -379 553 -934 1150 -97
105 -189 212 -205 238 -68 118 -322 394 -843 915 l-382 383 14 37 c8 20 42
230 75 465 33 236 62 433 65 437 16 26 52 481 85 1083 l22 379 54 92 53 92 65
2 c71 3 160 23 209 49 18 9 57 37 87 64 30 26 78 56 106 67 112 42 230 145
292 255 41 71 69 162 83 264 11 83 14 89 99 222 l88 136 41 310 c23 171 44
320 46 331 3 12 18 27 35 34 46 19 115 91 145 150 50 98 67 190 70 360 l2 155
89 47 c49 26 130 61 179 78 188 66 352 187 482 357 18 23 47 112 99 305 41
150 77 274 79 277 3 2 28 16 57 30 87 43 91 57 112 392 10 156 24 327 32 379
22 142 28 377 15 515 -26 263 -107 554 -219 787 -53 110 -68 132 -127 186 -83
76 -247 160 -385 197 -112 31 -132 40 -338 165 l-157 95 -133 215 c-73 118
-140 229 -147 246 -11 23 -19 137 -30 415 -18 422 -18 425 -93 574 -101 202
-252 356 -415 422 -108 44 -259 62 -382 46z m-456 -4335 c-25 -93 -62 -183
-86 -210 -23 -26 -43 -22 -79 13 l-32 31 84 104 c46 57 94 119 106 139 32 48
34 23 7 -77z"/>
<path d="M2244 12372 c-89 -31 -166 -84 -268 -185 -95 -95 -100 -98 -167 -113
-166 -38 -254 -169 -234 -346 6 -53 5 -62 -23 -106 -41 -65 -55 -115 -50 -181
5 -75 40 -143 108 -213 42 -43 54 -63 52 -82 -2 -13 11 -66 28 -117 l31 -93
-16 -79 c-36 -175 -103 -292 -183 -317 -20 -7 -74 -34 -119 -62 -58 -35 -107
-55 -165 -69 -230 -55 -410 -202 -510 -419 -22 -47 -46 -96 -53 -110 -55 -108
-81 -594 -65 -1215 11 -451 34 -604 109 -753 28 -55 170 -203 504 -522 l87
-84 0 -81 0 -81 -391 -27 -390 -26 -58 -31 c-190 -102 -322 -317 -377 -615
-17 -92 -23 -256 -18 -490 1 -33 1 -90 1 -126 -1 -59 3 -76 41 -150 57 -114
88 -148 142 -157 40 -7 44 -10 55 -49 42 -143 208 -290 481 -426 l111 -55 -70
-357 -69 -357 -58 -58 c-123 -123 -248 -457 -339 -906 -14 -68 -36 -133 -70
-205 -158 -335 -252 -782 -291 -1384 -5 -82 -10 -188 -10 -235 l0 -86 30 -11
c37 -14 39 -42 9 -163 -48 -193 -24 -297 81 -353 55 -29 55 -29 191 -23 167 7
222 18 290 59 86 51 136 141 140 249 2 37 6 48 25 57 66 30 301 414 324 531 6
30 22 82 36 115 32 81 75 239 129 479 34 154 62 329 120 775 103 786 107 802
417 1761 167 520 247 753 263 770 25 28 74 111 160 275 31 61 59 111 60 113 4
4 175 42 190 42 24 0 146 -284 401 -935 147 -374 274 -705 282 -735 10 -39 14
-104 13 -225 -3 -303 62 -753 235 -1630 l75 -380 134 -336 c74 -185 144 -370
156 -412 l23 -76 105 -46 c58 -26 138 -69 178 -96 90 -62 238 -134 323 -156
104 -27 228 -24 331 10 112 36 134 58 134 136 0 71 -40 155 -127 265 -43 54
-62 86 -64 111 -3 40 -48 134 -106 223 -40 61 -41 64 -32 120 26 174 0 289
-118 522 -59 114 -78 168 -129 348 -55 193 -61 224 -64 325 -4 129 -29 269
-81 447 -28 94 -39 154 -45 240 -13 191 -70 358 -174 506 -39 57 -45 72 -45
117 0 73 -26 175 -54 212 -21 27 -23 43 -29 190 -8 230 -44 410 -104 529 -24
48 -25 52 -13 123 38 217 -62 816 -244 1467 -25 89 -25 90 -6 121 23 37 57
164 100 375 36 176 146 494 183 528 12 10 212 157 445 326 l423 307 250 92
251 92 228 185 229 185 65 -3 c75 -4 144 21 171 62 20 30 34 125 24 154 -11
29 -46 50 -107 64 -46 11 -51 15 -57 46 -4 22 -14 37 -31 44 -31 15 -44 0 -44
-52 0 -31 -4 -37 -31 -47 -29 -11 -35 -10 -61 12 -50 42 -85 31 -120 -38 l-15
-29 -16 26 c-35 53 -93 21 -119 -65 l-11 -38 -34 29 c-59 53 -113 38 -145 -38
l-13 -32 -37 26 c-48 34 -72 26 -94 -32 l-17 -45 -31 29 c-47 45 -69 48 -106
15 -23 -21 -40 -54 -64 -123 l-32 -95 -478 -318 c-263 -175 -481 -315 -484
-313 -12 13 -254 1075 -272 1197 -26 179 -52 275 -104 384 -76 161 -200 268
-329 282 -29 3 -61 14 -72 24 -52 46 -242 109 -332 109 -20 0 -46 16 -88 53
l-59 54 87 111 c48 61 94 118 102 125 8 8 40 18 72 21 210 25 349 217 392 543
6 43 12 168 13 278 l3 200 -37 78 c-61 127 -178 260 -323 368 -33 24 -83 63
-112 85 -99 80 -226 105 -339 66z m771 -3394 c56 -118 111 -351 159 -675 33
-217 33 -221 -8 -255 l-32 -27 -96 113 -97 113 -11 180 c-14 213 -9 543 9 591
7 17 19 32 27 32 9 0 30 -32 49 -72z m-1788 -227 c55 -156 117 -396 133 -518
15 -109 9 -294 -11 -342 l-15 -34 -124 169 c-68 93 -127 174 -131 179 -13 18
47 572 72 670 14 49 16 45 76 -124z"/>
<path d="M24378 11996 c-26 -7 -64 -24 -85 -38 -21 -14 -56 -29 -78 -33 -68
-12 -113 -43 -140 -100 -31 -62 -209 -219 -385 -339 -440 -301 -723 -565 -781
-731 -8 -22 -28 -61 -46 -87 -31 -48 -53 -121 -53 -182 0 -57 38 -185 80 -268
47 -94 107 -181 201 -293 114 -136 107 -132 234 -140 200 -12 319 -41 364 -89
l23 -25 -51 -3668 c-28 -2017 -54 -3829 -57 -4026 l-7 -357 -41 -11 c-82 -22
-174 -79 -243 -153 -108 -113 -132 -171 -188 -446 -36 -179 -48 -300 -42 -423
10 -200 35 -235 207 -297 403 -146 799 -180 1075 -93 101 32 192 78 272 137
99 72 96 64 96 314 0 231 -10 310 -54 427 -29 78 -93 145 -138 145 -25 0 -100
46 -342 207 l-309 208 1 1550 c1 852 4 2198 8 2990 5 1152 4 1454 -7 1510 -16
90 -19 2419 -3 2678 10 161 11 169 35 188 39 30 49 76 40 189 -5 83 -4 104 8
118 68 77 63 177 -14 258 l-29 31 38 28 c21 16 70 59 108 96 61 59 82 72 165
103 52 20 103 36 113 36 37 0 95 41 174 123 118 123 158 215 133 306 -20 77
-111 153 -195 165 -22 3 -61 -1 -87 -8z m-698 -1032 c24 -24 24 -31 25 -177 0
-139 2 -157 24 -205 l24 -54 -20 -369 c-11 -203 -22 -371 -25 -374 -3 -3 -21
1 -40 9 -50 21 -216 53 -333 64 l-100 10 -83 87 c-90 95 -168 200 -212 286
-66 130 -80 268 -37 363 l25 53 59 5 c92 9 165 45 338 169 88 62 180 124 204
136 61 32 120 31 151 -3z"/>
<path d="M13608 11865 c-131 -36 -266 -132 -324 -230 -95 -162 -90 -356 18
-685 38 -119 70 -182 103 -208 14 -11 25 -29 25 -39 0 -16 -96 -112 -137 -136
-7 -4 -76 -19 -155 -32 -200 -35 -514 -113 -541 -135 -20 -16 -25 -43 -54
-260 -27 -206 -34 -245 -52 -261 -33 -31 -42 -88 -42 -268 1 -93 1 -173 2
-178 4 -23 -5 -34 -44 -57 -42 -25 -46 -25 -149 -16 -206 18 -675 32 -844 26
-176 -7 -332 -26 -419 -51 -88 -25 -158 -122 -172 -235 -3 -28 -9 -50 -12 -50
-3 0 -117 39 -253 87 -199 71 -248 92 -248 106 0 11 11 22 29 28 37 13 48 39
24 57 -17 12 -11 38 91 450 60 240 111 440 115 444 3 3 125 -20 271 -52 363
-81 564 -110 762 -110 135 0 228 45 228 110 0 91 -261 241 -783 451 -120 48
-225 96 -233 106 -7 10 -14 32 -14 50 0 17 -4 35 -10 38 -5 3 -10 22 -10 41 0
24 -5 37 -17 41 -10 4 -23 13 -29 21 -16 22 -48 6 -70 -33 -10 -19 -34 -46
-52 -59 -28 -20 -39 -22 -70 -15 -65 15 -362 68 -537 95 -218 35 -509 41 -562
11 -39 -21 -50 -55 -30 -93 19 -36 97 -111 157 -151 115 -77 478 -243 765
-349 72 -26 132 -49 134 -51 7 -5 -241 -908 -260 -945 -31 -62 -41 -62 -186
-13 -71 24 -188 57 -259 72 -116 24 -150 27 -329 27 -158 0 -215 -3 -270 -17
-181 -46 -235 -143 -130 -235 134 -118 406 -211 893 -305 35 -7 64 -16 64 -22
1 -5 -14 -20 -33 -33 -19 -13 -38 -33 -44 -45 -6 -13 -10 -167 -11 -387 l-1
-365 -117 -415 c-139 -495 -140 -500 -272 -852 -57 -152 -104 -281 -104 -286
0 -16 36 -42 60 -42 13 0 31 7 40 15 15 14 23 14 59 3 22 -7 41 -18 41 -24 0
-6 9 -19 20 -29 25 -23 46 -8 60 44 9 36 37 258 65 531 11 107 32 211 79 400
l64 255 6 -75 c4 -41 6 -113 5 -160 -1 -47 -4 -305 -7 -574 l-5 -489 -311
-326 c-531 -557 -642 -670 -843 -868 -183 -180 -194 -193 -191 -225 2 -27 10
-36 41 -52 44 -21 106 -31 141 -22 33 8 56 53 56 110 0 45 0 45 123 152 67 59
130 115 140 123 10 8 -47 -113 -126 -269 -138 -274 -147 -288 -224 -370 -127
-134 -150 -190 -88 -218 37 -17 151 -15 190 3 43 21 56 52 54 133 -1 67 -1 68
139 347 124 249 151 295 242 415 164 216 188 242 211 230 10 -6 89 -95 175
-198 155 -186 156 -187 150 -228 -3 -28 -1 -47 9 -60 11 -14 14 -54 15 -166 0
-138 -2 -151 -29 -226 -43 -116 -56 -191 -41 -236 14 -44 48 -69 87 -64 59 7
79 112 48 256 -11 55 -12 98 -5 212 5 78 11 144 13 147 3 2 26 -14 51 -36 61
-53 62 -54 189 -85 70 -18 118 -25 138 -21 33 7 33 8 156 198 42 65 77 116 79
115 6 -6 114 -817 114 -855 0 -21 -7 -70 -15 -108 -20 -96 -19 -131 5 -155 25
-25 101 -28 124 -4 30 29 9 199 -31 261 -23 35 -134 953 -121 994 5 14 27 43
50 65 l41 39 -6 -153 c-5 -112 -11 -162 -23 -188 -11 -24 -14 -38 -7 -45 11
-11 85 -31 91 -24 2 2 15 81 29 177 14 95 29 176 33 181 6 7 261 -508 260
-529 0 -10 -29 -91 -106 -297 -25 -65 -27 -67 -61 -67 -32 0 -35 2 -29 25 3
14 9 36 12 50 9 35 -20 44 -51 15 -33 -31 -84 -213 -65 -235 18 -21 33 -19 58
10 26 30 52 33 52 6 0 -11 7 -26 15 -35 8 -8 15 -31 15 -51 0 -30 -8 -44 -45
-81 -25 -24 -45 -48 -45 -53 0 -23 46 -41 102 -41 55 0 59 2 69 28 6 15 8 45
4 66 -5 33 7 74 72 252 l78 213 53 7 c89 11 102 44 53 136 l-28 55 37 179 c21
98 43 205 50 237 11 56 12 57 45 57 l34 0 51 -162 c28 -90 79 -250 113 -356
40 -127 58 -196 51 -200 -49 -31 -28 -94 66 -194 43 -48 69 -68 86 -68 15 0
24 6 24 16 0 10 21 -3 59 -36 240 -212 590 -385 911 -450 204 -42 487 -42 687
0 318 66 640 233 920 477 68 59 77 64 99 54 13 -6 24 -17 24 -26 0 -10 9 -15
26 -15 54 0 222 213 199 250 -4 7 -19 10 -35 6 l-28 -5 42 92 c82 176 196 397
205 397 11 0 3 22 177 -495 l144 -430 -15 -38 c-28 -71 0 -98 74 -72 58 20
101 53 101 76 0 12 -14 28 -35 40 -37 22 -37 21 -60 123 -19 83 -14 91 61 110
44 11 49 15 52 42 5 49 -16 59 -101 47 -40 -5 -75 -6 -78 -1 -3 4 -61 179
-129 389 l-124 381 12 136 c16 184 -1 271 -68 347 -11 12 -23 51 -30 100 -33
227 -94 449 -150 548 -28 51 -30 58 -20 98 6 24 14 54 17 67 4 18 -6 34 -51
78 -91 90 -71 141 76 190 44 14 89 35 99 45 28 28 24 65 -10 89 l-28 22 17 61
c21 79 29 93 83 145 l44 43 6 -137 c4 -75 7 -318 7 -539 0 -444 -4 -420 65
-435 32 -7 35 -6 35 14 -1 52 41 1007 46 1055 l6 53 46 -5 c38 -4 53 -12 79
-42 17 -20 39 -58 48 -83 16 -48 66 -423 131 -982 35 -303 37 -332 41 -738 l5
-422 -41 -109 c-22 -59 -43 -126 -47 -149 -8 -51 9 -62 95 -62 73 0 76 4 84
116 3 52 12 95 25 120 l20 39 155 -10 c86 -5 158 -13 161 -16 6 -6 -86 -663
-103 -740 -11 -47 -2 -69 28 -69 14 0 28 56 84 328 38 180 70 333 73 341 3 9
14 0 33 -26 33 -46 60 -58 158 -72 131 -20 131 -20 212 64 52 53 82 76 104 80
266 42 346 58 376 72 l36 18 5 259 5 259 78 -94 c151 -182 287 -400 424 -679
83 -169 87 -178 90 -255 5 -109 9 -120 38 -133 35 -16 197 -16 213 0 20 20 14
63 -14 89 -14 13 -39 43 -56 67 l-29 42 63 0 c84 0 92 6 89 72 -2 68 -16 119
-41 151 -14 17 -20 41 -20 74 0 47 -27 122 -55 153 -8 9 -154 368 -325 799
-170 432 -316 792 -323 800 -91 110 -165 183 -189 188 -33 7 -31 -48 -18 538
9 417 14 454 66 557 29 58 30 85 4 93 -12 4 -24 21 -30 45 -6 22 -16 42 -22
46 -7 5 -9 111 -3 377 l7 371 31 60 c17 34 47 88 66 121 20 33 43 74 52 90 14
29 17 30 114 38 223 17 643 57 659 63 27 10 18 23 -21 30 -93 16 -171 34 -213
49 -48 17 -309 45 -423 45 -51 0 -76 5 -95 19 -15 10 -55 32 -89 50 -58 29
-62 33 -65 68 -2 23 5 55 16 81 17 35 25 42 50 43 17 1 42 4 55 8 24 6 24 6
-12 38 -19 17 -52 36 -72 43 -25 8 -35 16 -31 27 3 8 6 173 6 367 l0 353 77
34 c97 42 210 115 267 173 91 91 129 196 89 244 -83 98 -419 142 -853 112 -80
-6 -176 -15 -214 -21 -59 -10 -77 -9 -128 7 -49 15 -65 16 -91 6 -26 -10 -33
-9 -40 3 -5 9 -22 15 -42 15 -34 0 -35 -1 -35 -39 0 -21 -6 -43 -12 -48 -7 -6
-92 -36 -188 -68 -336 -111 -682 -243 -696 -267 -4 -5 -17 7 -29 28 -49 82
-243 162 -505 209 -80 15 -170 38 -200 51 -81 37 -181 104 -190 130 -17 43 7
154 46 214 60 95 104 193 104 235 1 83 -19 268 -35 322 -50 170 -165 288 -316
322 -60 14 -204 12 -261 -4z m3165 -1702 c9 -15 -22 -683 -34 -743 -6 -34 -9
-83 -6 -111 9 -74 -2 -94 -65 -114 -29 -10 -70 -26 -92 -37 -33 -17 -55 -19
-157 -16 -65 2 -123 8 -128 13 -6 6 -22 82 -36 170 -34 208 -95 616 -95 631 0
7 28 21 63 32 254 82 476 157 497 168 28 15 47 17 53 7z m-655 -614 c29 -215
51 -394 48 -396 -3 -3 -78 -21 -167 -39 -89 -19 -166 -37 -171 -40 -17 -11 15
-34 71 -51 31 -9 112 -28 181 -43 l125 -26 3 -82 c2 -66 -1 -91 -19 -131 -20
-47 -24 -51 -65 -57 -24 -3 -50 -12 -60 -18 -14 -11 -13 -15 11 -44 19 -22 39
-34 66 -38 37 -6 39 -8 39 -45 0 -105 -41 -834 -48 -840 -4 -3 -36 -16 -72
-28 -48 -16 -66 -18 -69 -9 -11 32 -105 115 -202 180 -126 82 -111 44 -133
340 -22 279 -23 280 -286 288 l-175 5 -3 86 -3 86 40 7 c84 13 150 106 172
242 l11 72 45 -20 c60 -26 97 -21 101 14 3 22 -4 32 -35 52 -21 13 -62 34 -91
46 -38 17 -51 27 -48 39 15 50 16 72 6 110 -17 64 -71 116 -167 162 l-83 40 0
57 c0 62 -25 313 -36 359 -3 15 -13 38 -20 51 l-14 22 72 0 c40 0 204 5 363
11 243 9 360 15 540 28 20 1 23 -18 73 -390z m456 -646 c37 -28 57 -56 88
-119 l39 -82 -10 -351 c-6 -194 -11 -376 -11 -404 l0 -52 -57 -20 c-72 -25
-83 -53 -32 -84 26 -16 32 -27 34 -58 1 -21 5 -85 9 -143 4 -58 4 -154 -1
-215 l-8 -110 -108 615 c-60 338 -112 630 -117 649 -8 28 -5 39 14 65 46 61
40 91 -27 131 -11 7 -24 43 -37 109 -11 54 -20 100 -20 102 0 2 44 4 98 4 99
0 99 0 146 -37z m-6048 -259 c166 -54 244 -74 303 -74 l44 0 -6 -71 c-4 -51
-12 -78 -25 -93 -26 -28 -42 -60 -42 -84 0 -20 -18 -32 -47 -32 -12 0 -14 8
-11 33 8 47 1 57 -38 57 -65 0 -74 -11 -74 -96 0 -72 -1 -76 -39 -117 -83 -91
-83 -139 2 -175 25 -11 27 -16 27 -71 0 -128 32 -199 85 -189 14 3 25 3 25 1
0 -20 -43 -585 -55 -718 -14 -159 -17 -174 -50 -240 -55 -111 -63 -187 -25
-267 11 -22 9 -40 -9 -115 -12 -48 -32 -144 -45 -213 l-23 -125 -67 102 c-50
74 -66 107 -61 122 12 38 -6 93 -42 126 l-34 31 -6 630 -5 629 36 23 c20 12
36 26 36 31 0 18 -42 61 -60 61 -16 0 -18 14 -24 138 -3 75 -9 176 -12 224
l-6 87 33 3 c29 3 34 7 37 31 3 23 -2 30 -26 39 -28 11 -30 14 -36 92 -3 45
-6 111 -6 148 0 66 0 68 37 93 21 14 45 25 55 25 9 0 78 -21 154 -46z m5939
-1004 c125 -668 135 -731 135 -840 l0 -119 -82 -83 c-46 -46 -119 -132 -163
-190 -99 -132 -115 -137 -115 -35 1 149 30 943 36 972 3 17 15 48 25 71 10 22
19 57 19 77 0 33 4 39 38 54 57 28 56 59 -8 120 l-50 48 12 327 c6 180 13 326
15 324 2 -2 64 -329 138 -726z m-6346 393 c1 -193 -1 -213 -16 -221 -19 -10
-83 -4 -83 7 0 3 19 111 42 240 28 155 45 226 49 210 4 -13 7 -119 8 -236z
m-30 -390 c-5 -32 4 -84 16 -97 13 -13 15 -85 15 -529 l0 -515 -36 -21 c-20
-12 -38 -21 -39 -19 -1 2 2 180 8 397 9 386 10 394 32 427 26 39 23 66 -10 84
-16 9 -24 24 -28 54 -5 42 0 191 8 214 5 13 36 17 34 5z m5993 -140 c13 -15
17 -104 25 -603 6 -322 9 -587 7 -589 -2 -2 -28 -6 -58 -9 l-53 -4 -7 73 c-21
247 -38 600 -40 831 l-1 266 24 26 c29 31 80 35 103 9z m-1518 -498 c27 -12
36 -21 36 -39 0 -31 -37 -40 -114 -31 -65 8 -116 37 -116 65 0 18 6 20 79 20
47 0 93 -6 115 -15z m-243 -61 c53 -38 87 -88 68 -99 -5 -4 -16 -5 -23 -2 -19
7 -118 137 -105 137 6 0 33 -16 60 -36z m2274 -798 c13 -49 13 -73 4 -143
l-12 -83 -63 94 c-92 137 -144 224 -144 240 0 8 42 59 93 114 l92 101 7 -132
c5 -72 15 -158 23 -191z m333 176 c62 -97 292 -662 272 -670 -9 -4 -367 55
-412 68 l-38 11 0 143 0 144 56 7 c51 6 57 10 69 38 10 26 10 49 -1 122 -7 50
-13 114 -13 143 -1 71 19 69 67 -6z m-6608 -210 c0 -33 -12 -62 -26 -62 -10 0
-14 14 -14 50 0 48 1 50 20 40 11 -6 20 -18 20 -28z m6051 -99 c105 -126 145
-176 163 -205 l18 -27 -51 -25 c-44 -23 -63 -26 -146 -26 l-95 0 0 162 c0 136
3 164 17 180 9 10 19 18 23 18 4 0 36 -35 71 -77z m-6261 -382 c0 -280 -4
-460 -10 -476 -13 -35 -50 -65 -75 -62 -20 2 -20 8 -17 458 l3 457 32 35 c18
20 40 36 50 36 16 1 17 -27 17 -448z m5970 378 c0 -31 -4 -48 -10 -44 -5 3
-10 26 -10 51 0 24 5 44 10 44 6 0 10 -23 10 -51z m-6190 -11 c0 -51 -66 -697
-71 -703 -5 -4 -270 290 -271 301 -1 10 325 444 334 444 5 0 8 -19 8 -42z
m569 -63 c23 -38 41 -73 41 -77 0 -17 -22 -6 -60 28 -40 36 -50 67 -34 109 8
20 4 24 53 -60z m-64 -270 c14 -71 25 -143 25 -158 0 -39 -21 -75 -72 -123
-86 -80 -78 -103 -78 222 l0 289 50 -50 49 -50 26 -130z m6065 -55 c0 -25 -19
-216 -26 -259 l-5 -34 -96 6 c-52 3 -97 7 -99 10 -3 2 1 68 8 145 9 113 15
142 27 145 9 3 55 5 104 6 80 1 87 -1 87 -19z m-415 -38 c-3 -8 -13 -44 -21
-79 -9 -34 -22 -63 -28 -63 -6 0 -21 8 -34 18 l-23 18 26 65 c25 63 27 65 56
61 22 -3 29 -9 24 -20z m975 -17 c176 -20 204 -28 233 -68 13 -18 93 -203 178
-412 153 -377 154 -381 158 -468 1 -49 0 -109 -4 -133 l-6 -45 -96 168 c-267
469 -465 786 -569 908 -56 67 -62 77 -41 70 6 -2 73 -11 147 -20z m-282 -17
c8 -8 12 -49 12 -119 0 -92 -3 -110 -20 -130 l-19 -24 -1 143 c0 78 4 142 8
142 4 0 13 -5 20 -12z m-118 -15 c0 -10 -7 -65 -15 -123 -8 -58 -15 -108 -15
-112 -1 -20 -30 -6 -30 15 1 46 20 219 25 228 10 16 35 10 35 -8z m-5611 -24
c64 -6 117 -13 119 -14 2 -2 -1 -13 -8 -24 -8 -17 -7 -27 5 -49 15 -26 15 -30
-9 -84 -14 -32 -27 -58 -29 -58 -1 0 -56 54 -122 120 -136 136 -140 127 44
109z m57 -415 l47 -55 -18 -57 -18 -57 -28 88 c-33 106 -41 137 -35 137 2 0
26 -25 52 -56z m5714 -70 c0 -52 -30 -94 -68 -94 -30 0 -72 35 -72 61 0 10 26
40 57 68 57 49 58 50 70 28 7 -12 12 -41 13 -63z"/>
</g>
</svg>
