<?xml version="1.0" standalone="no"?>
<!DOCTYPE svg PUBLIC "-//W3C//DTD SVG 20010904//EN"
 "http://www.w3.org/TR/2001/REC-SVG-20010904/DTD/svg10.dtd">
<svg version="1.0" xmlns="http://www.w3.org/2000/svg"
 width="1273.000000pt" height="478.000000pt" viewBox="0 0 1273.000000 478.000000"
 preserveAspectRatio="xMidYMid meet">

<g transform="translate(0.000000,478.000000) scale(0.100000,-0.100000)"
fill="#d8d8f6" stroke="none">
<path d="M11614 4456 c-8 -33 11 -127 46 -224 28 -79 30 -117 6 -109 -11 3
-56 87 -77 144 -23 65 -67 123 -93 123 -29 0 -40 -25 -30 -67 3 -15 33 -82 66
-148 46 -93 60 -134 65 -180 9 -108 -23 -141 -90 -92 -45 31 -77 47 -97 47
-16 0 -50 -29 -50 -42 0 -4 28 -25 63 -49 34 -23 80 -57 101 -76 22 -18 53
-37 70 -42 63 -19 152 -53 172 -66 21 -13 46 -75 64 -158 5 -23 16 -73 25
-112 9 -38 22 -101 30 -140 30 -148 35 -172 50 -231 9 -34 31 -111 50 -170 69
-212 82 -305 94 -639 6 -184 9 -214 26 -239 17 -25 19 -46 18 -142 -1 -129 -5
-138 -86 -192 -47 -31 -51 -32 -68 -16 -21 19 -25 55 -9 84 6 11 13 46 17 80
6 57 4 63 -22 90 -24 25 -30 43 -36 102 -5 42 -18 92 -34 123 -28 58 -114 145
-143 145 -10 0 -23 5 -29 11 -8 8 -56 12 -136 11 -104 0 -130 -3 -163 -20 -70
-37 -108 -72 -157 -145 l-48 -72 6 -100 c8 -124 8 -160 0 -207 -6 -28 -1 -50
19 -94 14 -31 26 -67 26 -79 0 -13 10 -29 23 -38 12 -8 36 -40 52 -72 28 -56
28 -58 9 -72 -10 -8 -30 -16 -44 -20 -63 -14 -167 -62 -266 -121 -83 -49 -97
-63 -99 -100 -1 -15 -5 -45 -9 -68 -6 -36 -5 -42 15 -51 22 -9 20 -12 -37 -56
-32 -26 -66 -47 -75 -47 -9 0 -23 16 -31 38 -9 20 -24 57 -34 82 -10 25 -37
77 -61 117 -24 39 -43 78 -43 86 0 25 -43 54 -79 53 -49 -1 -76 -39 -60 -84 8
-23 17 -32 33 -32 12 0 30 -6 39 -13 17 -12 67 -129 67 -156 0 -16 25 -90 42
-128 18 -36 4 -53 -44 -53 -55 0 -84 20 -91 62 -7 51 -30 100 -58 129 -15 14
-34 38 -44 52 -20 31 -39 26 -31 -8 5 -18 -2 -28 -35 -49 -39 -26 -59 -59 -59
-97 0 -24 -61 -119 -77 -119 -6 0 -14 17 -18 38 -3 21 -20 65 -37 98 -27 52
-31 72 -35 169 -4 78 0 134 11 194 23 119 22 124 -31 184 -61 67 -82 109 -124
251 -35 115 -79 135 -119 55 -24 -46 -25 -86 -5 -125 8 -16 15 -43 15 -60 0
-30 -2 -32 -47 -39 -27 -3 -58 -13 -70 -21 -12 -8 -30 -14 -39 -14 -25 0 -103
53 -154 104 -24 26 -51 46 -60 46 -8 0 -24 7 -34 15 -10 8 -22 12 -26 10 -4
-3 -35 25 -68 60 -62 67 -80 73 -109 36 -17 -22 -15 -40 7 -81 10 -19 24 -45
29 -57 6 -13 16 -23 22 -23 13 0 66 -40 113 -86 18 -17 51 -43 74 -58 46 -29
50 -44 26 -81 -20 -30 -12 -81 22 -145 60 -114 67 -133 55 -149 -6 -9 -14 -24
-17 -33 -4 -10 -13 -18 -20 -18 -8 0 -17 -1 -21 -2 -3 -2 -11 15 -17 37 -13
45 -26 51 -41 17 -5 -12 -13 -22 -17 -22 -5 0 -8 -11 -8 -25 0 -53 -73 -59
-105 -8 -36 58 -63 28 -31 -35 7 -15 17 -49 20 -75 4 -26 14 -63 21 -81 12
-28 12 -42 -4 -104 -10 -40 -21 -75 -25 -79 -8 -8 -52 42 -66 75 -6 13 -10 41
-10 62 0 50 -17 61 -42 27 -25 -34 -45 -34 -80 0 -22 21 -36 26 -68 25 -55 -4
-60 16 -21 79 31 51 39 83 21 94 -5 3 -15 -3 -22 -15 -17 -27 -29 -25 -62 9
-29 31 -30 24 1 199 3 20 24 54 54 86 27 30 49 58 49 64 0 21 -26 18 -53 -5
-26 -21 -37 -23 -105 -20 l-76 4 -12 45 c-14 56 -21 68 -40 68 -17 0 -18 -29
-3 -173 8 -78 7 -111 -1 -127 -6 -12 -11 -66 -11 -120 0 -55 -4 -102 -8 -105
-9 -5 -38 26 -64 67 -10 16 -22 28 -28 28 -21 0 -21 -33 0 -68 35 -59 62 -123
55 -134 -4 -5 -21 -7 -39 -4 -19 4 -36 3 -39 -2 -12 -21 14 -124 39 -154 l26
-31 -20 -21 c-18 -17 -24 -19 -41 -8 -10 6 -25 9 -33 6 -36 -13 -67 86 -67
212 0 54 -5 82 -17 101 -10 15 -18 39 -18 52 0 16 -6 27 -17 29 -10 2 -18 -2
-18 -9 0 -7 -18 -27 -40 -46 -47 -40 -50 -63 -15 -113 23 -34 24 -40 14 -86
-6 -27 -14 -92 -17 -144 -6 -79 -10 -95 -24 -98 -24 -5 -36 30 -44 128 -7 85
-20 100 -44 55 -16 -30 -24 -31 -42 -7 -32 43 -102 64 -135 40 -6 -5 -9 -23
-7 -41 2 -18 7 -58 10 -89 l6 -58 -39 0 c-21 0 -44 5 -51 12 -29 29 -8 232 30
303 16 29 22 281 7 291 -15 9 -39 -22 -39 -51 0 -35 -24 -56 -71 -65 -40 -8
-47 -6 -72 18 -19 18 -30 23 -38 15 -7 -7 -1 -23 21 -55 30 -42 31 -49 32
-144 0 -75 -4 -112 -19 -154 -11 -30 -24 -54 -29 -52 -15 4 -7 215 9 250 9 20
8 26 -6 33 -9 6 -17 16 -17 24 0 23 -20 28 -41 9 -10 -9 -19 -27 -19 -40 0
-13 -4 -26 -10 -29 -6 -4 -10 6 -10 23 0 29 -21 58 -33 45 -4 -3 -7 -38 -7
-76 l0 -70 -49 5 c-28 3 -54 2 -59 -1 -20 -13 -21 -79 -1 -115 26 -48 24 -60
-6 -52 -34 9 -57 -28 -53 -86 3 -43 3 -43 46 -49 56 -7 91 -47 92 -104 0 -22
4 -56 10 -75 14 -50 -1 -58 -51 -26 -47 32 -88 30 -132 -4 -38 -30 -55 -25
-63 16 -5 28 -2 42 15 64 18 25 20 38 16 100 -6 77 -17 102 -52 121 -12 7 -25
21 -29 31 -6 20 32 154 47 163 12 8 12 45 0 45 -6 0 -22 -16 -36 -35 -23 -30
-31 -33 -58 -28 -18 4 -37 13 -44 22 -20 28 -26 4 -14 -55 17 -85 14 -100 -23
-136 -18 -18 -38 -43 -45 -55 -6 -13 -16 -23 -20 -23 -10 0 -20 53 -24 117 -1
27 -10 50 -25 66 -23 24 -23 27 -13 123 6 55 13 141 17 192 6 79 12 102 41
157 19 35 38 67 44 70 5 4 9 14 9 24 0 11 18 50 40 87 28 48 40 80 40 107 0
76 -70 56 -101 -28 -21 -57 -105 -169 -119 -160 -6 4 -10 16 -10 29 0 12 -5
27 -12 34 -15 15 -74 16 -83 2 -3 -5 -26 -10 -50 -10 -34 0 -53 -7 -90 -36
-30 -22 -51 -32 -57 -26 -18 18 -77 207 -84 267 -8 73 -26 105 -59 105 -37 0
-47 -53 -36 -189 6 -61 15 -129 21 -151 13 -48 5 -247 -12 -300 -6 -19 -13
-41 -15 -49 -6 -24 -82 -4 -145 39 -52 34 -66 39 -126 41 -85 3 -112 -5 -112
-35 0 -29 20 -46 61 -55 37 -7 38 -23 2 -35 -38 -12 -53 -25 -53 -45 0 -10
-11 -28 -24 -40 l-24 -23 -12 54 c-7 29 -13 79 -14 111 -2 38 -9 67 -22 85
-36 51 -44 77 -46 157 -2 63 -6 80 -18 80 -10 0 -16 -12 -18 -32 -4 -43 -22
-42 -22 1 l0 33 -56 0 c-42 0 -57 -4 -61 -16 -2 -9 -9 -24 -14 -34 -27 -51 10
-187 77 -283 41 -58 44 -68 49 -144 6 -96 0 -130 -25 -130 -15 0 -20 -11 -25
-57 -8 -63 -27 -93 -58 -93 -15 0 -18 4 -12 22 17 55 16 74 -5 101 -14 17 -31
27 -48 27 -47 0 -72 11 -72 32 0 29 -28 76 -49 83 -14 4 -21 17 -23 43 -2 25
-8 37 -18 37 -17 0 -29 -97 -34 -277 -3 -86 -6 -102 -30 -138 -21 -31 -30 -39
-40 -31 -20 16 -37 85 -30 119 6 28 -15 175 -36 262 -20 78 -19 118 2 137 28
25 98 120 98 133 0 13 -27 13 -35 0 -3 -5 -15 -10 -27 -10 -15 0 -18 4 -13 17
14 32 18 130 6 137 -19 12 -51 -13 -51 -39 0 -27 -9 -32 -27 -14 -20 20 -35
-1 -28 -37 4 -23 1 -41 -11 -59 -9 -14 -13 -32 -10 -41 3 -9 0 -35 -8 -59 -13
-36 -14 -82 -7 -276 5 -129 12 -242 16 -252 9 -21 -10 -47 -34 -47 -15 0 -17
15 -19 117 -2 103 -5 118 -22 130 -23 16 -25 48 -5 83 27 48 11 143 -26 155
-23 8 -25 39 -5 87 8 19 15 61 17 94 1 57 14 104 46 170 17 37 14 68 -7 72
-11 2 -23 -14 -37 -48 -24 -57 -47 -67 -39 -18 3 18 8 56 11 84 5 51 5 52 -30
73 -20 12 -42 21 -49 21 -13 0 -46 -116 -46 -157 0 -8 -6 -13 -12 -11 -8 3
-15 29 -18 62 -5 54 -21 80 -45 73 -15 -5 -15 -107 0 -143 11 -27 11 -36 -1
-60 -13 -24 -12 -29 1 -44 8 -9 15 -31 15 -49 0 -17 7 -46 16 -62 21 -41 15
-91 -13 -104 -24 -10 -34 -65 -38 -215 -3 -105 -24 -165 -63 -175 -15 -4 -33
-11 -39 -17 -18 -14 -16 -53 2 -68 22 -19 18 -35 -15 -64 -24 -20 -37 -24 -63
-19 -18 3 -34 8 -36 10 -3 2 1 38 8 81 8 42 15 136 17 207 4 133 8 156 48 283
22 69 22 72 4 72 -10 0 -24 -12 -30 -26 -10 -22 -17 -25 -42 -20 -37 8 -46 21
-46 68 0 20 -4 39 -9 42 -17 11 -33 -24 -41 -89 -10 -78 -17 -88 -37 -57 -18
25 -53 30 -53 6 0 -20 50 -92 84 -121 14 -13 26 -26 26 -31 0 -4 -13 -61 -30
-127 -16 -66 -30 -141 -30 -167 0 -56 -9 -64 -49 -43 -17 8 -46 15 -66 15 -57
0 -63 29 -31 132 14 46 26 87 26 90 0 12 -101 122 -127 139 -26 17 -27 17 -64
-14 -43 -36 -45 -44 -23 -107 18 -51 30 -169 17 -171 -4 -1 -25 -2 -45 -3 -51
-4 -122 -59 -142 -111 -21 -53 -20 -126 1 -163 9 -16 14 -36 10 -45 -12 -31
-41 -19 -66 27 -13 25 -41 61 -63 81 -28 26 -37 42 -32 54 17 41 15 57 -15 85
-34 33 -41 75 -16 96 8 7 31 38 50 69 19 31 53 71 75 89 37 31 54 72 29 72 -6
0 -29 -14 -51 -31 -21 -17 -42 -29 -45 -25 -4 4 3 27 15 51 28 58 29 89 3 80
-11 -3 -22 -1 -26 5 -14 23 -46 10 -61 -25 -8 -19 -18 -35 -23 -35 -16 0 -23
58 -10 81 19 36 5 126 -31 197 -17 35 -38 66 -46 69 -24 9 -68 -30 -85 -78
-16 -42 -53 -79 -66 -65 -4 3 1 22 10 41 9 20 17 54 17 75 0 35 -5 43 -33 60
-17 11 -41 20 -53 20 -11 0 -56 10 -100 21 -43 12 -110 25 -149 29 -38 3 -80
12 -92 18 -12 7 -30 12 -41 12 -22 0 -79 -27 -87 -41 -4 -5 -14 -9 -24 -9 -10
0 -30 -9 -44 -20 -34 -27 -51 -26 -42 2 18 60 38 137 44 178 4 25 20 72 35
105 33 71 52 133 61 195 4 24 17 63 31 85 13 23 28 72 34 110 15 102 24 134
53 192 15 29 27 59 27 66 0 25 76 250 109 322 18 39 36 86 41 105 5 19 14 53
19 75 36 140 -36 187 -94 61 -14 -30 -25 -58 -25 -61 0 -3 -11 -30 -23 -58
-13 -29 -39 -86 -57 -127 -34 -78 -60 -110 -90 -110 -25 0 -30 19 -30 126 0
79 -8 143 -35 280 -7 35 -45 74 -71 74 -42 0 -49 -35 -35 -163 7 -62 16 -159
18 -216 6 -121 -2 -135 -66 -125 -28 4 -43 1 -61 -14 -18 -14 -34 -18 -60 -15
-33 5 -40 1 -68 -33 -22 -26 -32 -49 -32 -72 0 -18 -7 -47 -16 -65 -14 -26
-16 -50 -10 -142 8 -150 12 -186 24 -216 8 -19 6 -38 -9 -80 -10 -30 -18 -66
-19 -81 0 -15 -5 -30 -10 -33 -17 -11 -50 -87 -50 -117 0 -16 -11 -46 -25 -68
-14 -22 -25 -43 -25 -48 0 -4 -13 -26 -28 -48 -16 -21 -46 -79 -67 -129 -21
-49 -42 -96 -48 -102 -14 -19 -37 -16 -37 5 0 29 -10 33 -41 17 -43 -23 -58
-19 -104 32 l-43 47 -44 -14 c-23 -7 -58 -22 -76 -33 -51 -30 -58 -20 -65 85
-7 101 -3 93 -93 166 -46 36 -144 92 -162 92 -27 0 -117 35 -116 45 1 34 44
231 64 300 30 103 69 158 218 309 78 80 142 149 142 155 0 9 35 57 138 191 23
30 53 68 65 85 46 62 86 102 237 240 158 144 251 246 354 390 45 63 73 90 129
126 40 25 78 53 86 62 7 10 26 17 42 17 19 0 30 6 34 20 3 11 26 37 51 58 47
40 52 72 12 72 -11 0 -26 13 -36 30 -11 19 -25 30 -39 30 -14 0 -23 6 -23 15
0 8 5 15 11 15 19 0 170 162 167 179 -6 30 -34 22 -92 -29 -90 -79 -120 -89
-97 -31 7 16 13 51 14 77 3 90 -45 55 -67 -48 -3 -15 -26 -55 -51 -90 -24 -35
-63 -99 -86 -143 -23 -44 -55 -99 -71 -122 -28 -41 -116 -124 -156 -147 -11
-6 -100 -65 -198 -131 -98 -66 -183 -122 -189 -124 -31 -12 -95 -75 -157 -155
-39 -50 -120 -148 -182 -218 -121 -139 -93 -120 -345 -241 -36 -17 -94 -57
-130 -89 -36 -32 -69 -58 -73 -58 -13 0 -9 17 7 30 25 21 62 94 73 145 25 115
32 159 32 198 0 24 11 66 25 95 49 107 20 228 -71 295 -24 18 -48 44 -53 60
-10 28 -45 47 -87 47 -13 0 -52 10 -85 21 -108 38 -231 14 -289 -55 -10 -13
-22 -16 -45 -12 -32 6 -147 -25 -174 -47 -8 -7 -20 -25 -28 -42 -15 -34 -30
-58 -56 -94 -20 -28 -24 -62 -5 -43 15 15 55 16 63 1 4 -5 -5 -28 -20 -49 -21
-31 -26 -46 -20 -67 4 -16 7 -43 6 -60 -1 -62 -8 -128 -14 -143 -3 -8 -5 -28
-4 -45 2 -23 7 -31 24 -33 14 -2 29 -16 39 -37 9 -19 22 -39 30 -46 19 -15 18
-55 -1 -63 -18 -7 -20 -26 -2 -26 27 0 49 41 45 84 -3 40 -2 42 17 32 29 -16
58 -39 73 -57 16 -21 2 -56 -46 -116 -64 -80 -106 -75 -226 30 -41 36 -95 79
-120 96 -30 21 -46 39 -46 53 0 28 -81 197 -128 267 -51 75 -120 210 -137 269
-9 29 -28 61 -50 82 -19 19 -35 42 -35 51 0 10 -4 21 -10 24 -21 13 -58 112
-64 170 -4 33 -13 82 -21 109 -10 34 -15 96 -15 202 0 167 -7 187 -47 140 -20
-24 -23 -37 -23 -117 0 -68 -3 -90 -12 -87 -17 6 -55 73 -68 119 -13 48 -74
118 -90 103 -15 -15 0 -89 35 -172 29 -70 27 -98 -6 -89 -30 8 -48 -1 -65 -35
-18 -35 -17 -39 52 -185 40 -86 55 -129 68 -194 3 -14 17 -42 31 -63 28 -41
31 -63 14 -100 -17 -36 3 -78 60 -125 26 -22 52 -50 58 -63 22 -43 107 -282
124 -348 15 -54 70 -233 79 -255 5 -11 22 -49 38 -85 49 -107 59 -131 92 -229
31 -91 31 -97 27 -235 -5 -144 -24 -257 -45 -264 -16 -5 -16 88 -1 159 11 50
10 54 -11 71 -28 23 -35 23 -59 -3 -25 -27 -48 -128 -56 -244 -12 -179 -13
-194 -20 -204 -22 -36 -59 34 -78 149 -9 51 -21 98 -26 103 -17 17 -58 -1 -69
-32 -13 -38 15 -186 51 -261 41 -88 55 -140 66 -245 7 -54 18 -130 26 -169 20
-96 18 -167 -6 -251 -11 -38 -24 -86 -28 -105 -5 -19 -13 -55 -19 -80 -20 -82
-42 -200 -42 -225 l0 -25 1710 0 c941 0 1710 3 1710 6 0 3 -10 19 -21 36 -12
17 -23 40 -24 52 -1 11 -3 27 -4 33 0 7 -18 31 -38 54 -51 56 -52 84 -12 217
7 20 31 62 55 93 26 32 44 66 44 81 0 51 13 90 40 116 30 31 180 135 185 130
8 -7 8 -95 1 -138 -5 -25 -16 -60 -27 -78 -13 -23 -19 -52 -19 -96 l0 -64 -50
-38 c-79 -60 -93 -100 -96 -266 l-3 -138 4469 0 4470 0 0 653 c0 621 -1 658
-20 748 -12 52 -25 114 -30 139 -5 25 -13 57 -18 71 -6 14 -10 57 -10 95 -1
127 -49 285 -123 399 -35 54 -40 68 -54 155 -19 110 -36 192 -46 215 -13 29
-28 108 -39 198 -5 43 -13 92 -18 110 -6 18 -18 68 -27 112 -31 142 -86 350
-96 360 -5 5 -9 15 -9 22 0 8 -27 70 -61 139 -45 92 -67 128 -85 134 -14 6
-26 21 -30 37 -8 36 -33 121 -45 153 -9 25 -27 191 -36 326 -2 39 0 102 5 140
11 77 0 173 -20 186 -21 13 -48 -29 -48 -76 -1 -109 -28 -203 -52 -178 -3 4
-11 61 -17 127 -5 66 -16 138 -23 159 -36 106 -101 41 -69 -70 5 -17 12 -63
16 -102 6 -62 5 -72 -9 -72 -17 0 -17 -1 -45 141 -23 119 -43 159 -76 159 -18
0 -26 -7 -31 -24z m-10044 -2156 c0 -5 -7 -10 -15 -10 -8 0 -15 5 -15 10 0 6
7 10 15 10 8 0 15 -4 15 -10z m8142 -1305 c20 -41 22 -86 2 -92 -14 -5 -41 59
-49 114 -8 51 4 79 18 42 5 -13 18 -42 29 -64z m-5929 -41 c11 -11 -5 -34 -24
-34 -22 0 -24 11 -7 28 13 13 22 15 31 6z m5834 -71 c25 -37 47 -108 40 -127
-4 -9 -18 -16 -33 -16 -15 0 -36 -7 -46 -17 -10 -9 -20 -14 -23 -12 -6 6 12
176 20 189 10 17 23 11 42 -17z m-2965 -55 c39 -35 93 -85 121 -113 l49 -50
-7 -85 c-5 -64 -11 -90 -26 -106 -10 -11 -19 -28 -19 -38 0 -10 -6 -16 -12
-14 -8 3 -16 32 -20 69 -9 90 -23 123 -49 116 -12 -3 -29 -2 -38 3 -9 5 -24
11 -33 14 -11 3 -18 15 -18 29 0 14 -7 44 -15 67 -14 40 -21 170 -9 170 3 0
37 -28 76 -62z m-257 -52 l40 -34 -1 -118 c-1 -133 -12 -244 -25 -259 -6 -6
-15 -6 -26 1 -13 8 -17 30 -18 115 -2 105 -8 161 -26 256 -10 50 -7 73 9 73 4
0 25 -16 47 -34z m2729 -122 c9 -3 16 -15 16 -26 0 -28 -34 -19 -38 10 -4 24
-2 25 22 16z m-3174 -102 c0 -5 -11 -14 -25 -20 -26 -12 -33 -4 -13 16 14 14
38 16 38 4z m-2503 -41 c13 -40 2 -111 -18 -111 -14 0 -30 50 -23 72 3 10 0
25 -6 33 -16 19 -6 45 17 45 12 0 22 -13 30 -39z m4934 -24 c7 -28 3 -37 -18
-37 -8 0 -13 13 -13 36 0 41 20 43 31 1z"/>
</g>
</svg>
