<?xml version="1.0" standalone="no"?>
<!DOCTYPE svg PUBLIC "-//W3C//DTD SVG 20010904//EN"
 "http://www.w3.org/TR/2001/REC-SVG-20010904/DTD/svg10.dtd">
<svg version="1.0" xmlns="http://www.w3.org/2000/svg"
 width="161.000000pt" height="531.000000pt" viewBox="0 0 161.000000 531.000000"
 preserveAspectRatio="xMidYMid meet">

<g transform="translate(0.000000,531.000000) scale(0.100000,-0.100000)"
fill="#5427b8" stroke="none">
<path d="M905 5247 c-74 -29 -191 -109 -219 -149 -10 -15 -16 -44 -16 -85 0
-71 -13 -113 -35 -113 -8 0 -33 16 -55 36 -54 49 -73 43 -81 -26 -4 -30 -10
-63 -14 -72 -10 -25 10 -23 48 6 18 13 51 27 75 31 40 6 42 5 42 -17 0 -27
-23 -111 -47 -170 -20 -50 -50 -50 -97 -3 -52 52 -72 47 -79 -17 -3 -29 -8
-63 -12 -75 -10 -30 5 -29 51 2 34 23 94 34 94 18 0 -5 -11 -26 -25 -48 -32
-53 -32 -75 0 -75 39 0 102 -29 119 -55 21 -32 20 -48 -4 -70 -26 -24 -25 -49
3 -62 23 -11 60 -2 72 16 4 7 52 11 126 11 99 0 119 3 119 15 0 12 -20 15
-116 15 -88 0 -115 3 -112 13 3 8 40 13 126 15 99 2 122 5 122 17 0 12 -22 15
-124 15 l-125 0 -20 29 c-12 16 -37 39 -55 50 -19 12 -37 28 -40 37 -3 8 6 45
20 82 37 94 51 150 74 285 11 65 29 142 40 170 31 83 98 137 170 137 66 0 80
-29 28 -56 -44 -22 -44 -21 -23 -44 21 -24 52 -26 82 -5 63 44 15 158 -65 154
-9 0 -30 -6 -47 -12z"/>
<path d="M877 5115 c-26 -54 -21 -146 12 -278 40 -151 94 -285 137 -336 38
-44 54 -50 74 -25 21 25 1 68 -35 74 -23 4 -36 16 -57 55 -15 28 -28 53 -28
58 0 17 70 5 104 -18 48 -33 60 -32 50 3 -4 15 -9 45 -10 67 -2 22 -3 43 -3
48 -2 19 -40 4 -71 -28 -22 -23 -43 -35 -61 -35 -24 0 -28 6 -47 73 -12 39
-25 87 -28 106 l-7 34 42 -6 c23 -3 60 -18 82 -33 44 -30 58 -27 41 11 -7 14
-12 45 -12 69 0 61 -19 64 -75 16 -50 -43 -53 -44 -75 -30 -12 7 -15 30 -14
110 1 55 1 100 0 100 -1 0 -10 -16 -19 -35z"/>
<path d="M772 4938 c-28 -28 -1 -75 36 -63 26 8 34 41 15 60 -18 18 -35 19
-51 3z"/>
<path d="M791 4802 c-16 -30 15 -64 47 -51 35 13 27 63 -10 67 -18 2 -30 -3
-37 -16z"/>
<path d="M832 4688 c-32 -32 2 -79 43 -60 39 18 27 72 -15 72 -9 0 -21 -5 -28
-12z"/>
<path d="M870 4566 c-6 -8 -10 -25 -8 -38 2 -18 9 -23 33 -23 24 0 31 5 33 24
3 15 -3 30 -14 38 -23 17 -29 16 -44 -1z"/>
<path d="M728 4288 c-2 -7 -1 -38 3 -68 l6 -55 1 68 c2 64 -1 82 -10 55z"/>
<path d="M810 4180 c0 -67 4 -110 10 -110 6 0 10 43 10 110 0 67 -4 110 -10
110 -6 0 -10 -43 -10 -110z"/>
<path d="M904 4180 c0 -63 1 -89 3 -57 2 31 2 83 0 115 -2 31 -3 5 -3 -58z"/>
<path d="M980 4186 c0 -59 4 -108 10 -111 6 -4 10 33 10 104 0 67 -4 111 -10
111 -6 0 -10 -41 -10 -104z"/>
<path d="M697 4143 c-13 -12 -7 -72 9 -87 12 -12 37 -16 112 -15 53 0 115 4
137 9 28 6 4 8 -77 4 l-118 -5 0 38 c0 22 -5 44 -12 51 -13 13 -41 16 -51 5z"/>
<path d="M904 3925 c0 -60 1 -84 3 -52 2 32 2 81 0 110 -2 29 -3 3 -3 -58z"/>
<path d="M980 3980 c0 -27 5 -50 10 -50 6 0 10 23 10 50 0 28 -4 50 -10 50 -5
0 -10 -22 -10 -50z"/>
<path d="M728 3718 c1 -167 4 -328 5 -358 2 -30 4 106 5 303 1 196 -1 357 -5
357 -5 0 -7 -136 -5 -302z"/>
<path d="M810 3809 c0 -137 3 -208 10 -204 6 4 10 85 10 211 0 129 -4 204 -10
204 -6 0 -10 -77 -10 -211z"/>
<path d="M960 3891 c-5 -11 -10 -27 -10 -35 0 -9 -9 -25 -21 -37 l-21 -21 111
4 111 3 0 -36 c0 -43 23 -68 48 -52 26 16 27 58 1 84 -20 20 -28 21 -121 15
l-100 -6 7 33 c4 17 16 40 27 50 l20 17 -21 0 c-11 0 -25 -9 -31 -19z"/>
<path d="M992 3850 c0 -14 2 -19 5 -12 2 6 2 18 0 25 -3 6 -5 1 -5 -13z"/>
<path d="M904 3700 c0 -52 1 -74 3 -47 2 26 2 68 0 95 -2 26 -3 4 -3 -48z"/>
<path d="M980 3695 c0 -50 4 -85 10 -85 6 0 10 35 10 85 0 50 -4 85 -10 85 -6
0 -10 -35 -10 -85z"/>
<path d="M834 3514 c11 -133 1 -124 127 -124 l109 0 -6 -25 c-7 -28 18 -75 41
-75 25 0 47 31 40 59 -10 44 -30 51 -146 51 -122 0 -113 -9 -125 113 l-7 67
87 0 86 0 0 -28 c0 -43 22 -66 53 -58 21 5 27 12 27 35 0 48 -20 55 -163 59
l-130 4 7 -78z"/>
<path d="M903 3490 c0 -41 2 -58 4 -37 2 20 2 54 0 75 -2 20 -4 3 -4 -38z"/>
<path d="M980 3490 c0 -40 4 -70 10 -70 6 0 10 30 10 70 0 40 -4 70 -10 70 -6
0 -10 -30 -10 -70z"/>
<path d="M811 3357 c-1 -90 2 -136 9 -132 12 7 12 173 1 230 -6 29 -9 3 -10
-98z"/>
<path d="M903 3300 c0 -41 2 -58 4 -37 2 20 2 54 0 75 -2 20 -4 3 -4 -38z"/>
<path d="M981 3085 c1 -165 5 -285 10 -285 5 0 9 120 9 285 0 174 -4 285 -10
285 -5 0 -9 -111 -9 -285z"/>
<path d="M687 3283 c-13 -13 -7 -61 10 -74 11 -10 45 -14 110 -14 110 0 108 2
118 -97 l7 -67 -73 -4 c-72 -3 -71 -3 20 -5 l93 -2 -7 65 c-13 126 -7 120
-119 123 -85 2 -97 5 -95 20 5 33 -12 62 -35 62 -12 0 -26 -3 -29 -7z"/>
<path d="M727 3160 c-3 -11 -1 -23 4 -26 5 -3 9 6 9 20 0 31 -6 34 -13 6z"/>
<path d="M810 3116 c0 -37 4 -66 10 -66 6 0 10 26 10 59 0 33 -4 63 -10 66 -6
4 -10 -18 -10 -59z"/>
<path d="M714 3106 c-28 -21 -9 -70 29 -74 25 -3 27 -1 27 32 0 43 -27 63 -56
42z"/>
<path d="M902 3080 c0 -19 2 -27 5 -17 2 9 2 25 0 35 -3 9 -5 1 -5 -18z"/>
<path d="M726 2830 c1 -100 4 -184 8 -187 3 -4 6 78 6 180 0 103 -3 187 -7
187 -5 0 -7 -81 -7 -180z"/>
<path d="M811 2793 c1 -115 5 -221 9 -238 4 -16 8 77 9 208 1 156 -2 237 -9
237 -6 0 -10 -72 -9 -207z"/>
<path d="M903 2950 c0 -30 2 -43 4 -27 2 15 2 39 0 55 -2 15 -4 2 -4 -28z"/>
<path d="M1036 2882 c-3 -5 3 -12 14 -15 15 -4 50 -62 50 -83 0 -2 -38 -4 -84
-4 l-85 0 -3 41 c-3 49 -27 71 -55 53 -24 -15 -28 -50 -9 -80 16 -24 19 -24
156 -24 76 0 141 4 145 9 3 5 -5 11 -17 13 -14 2 -32 20 -48 48 -26 44 -52 61
-64 42z"/>
<path d="M903 2695 c0 -33 2 -45 4 -27 2 18 2 45 0 60 -2 15 -4 0 -4 -33z"/>
<path d="M980 2676 c0 -41 5 -78 10 -81 6 -4 10 23 10 74 0 47 -4 81 -10 81
-6 0 -10 -31 -10 -74z"/>
<path d="M855 2620 c-3 -4 4 -10 14 -13 16 -4 61 -72 61 -92 0 -3 -31 -5 -70
-5 l-69 0 5 30 c8 39 -18 80 -50 80 -38 0 -49 -57 -20 -98 14 -21 22 -22 164
-22 88 0 151 4 155 10 3 6 -3 10 -15 10 -13 0 -27 12 -38 31 -36 65 -49 76
-92 76 -22 0 -43 -3 -45 -7z m103 -58 c30 -53 11 -55 -23 -2 -28 45 -31 53
-12 48 6 -3 22 -23 35 -46z"/>
<path d="M730 2475 c-2 -271 1 -799 5 -803 3 -3 5 180 5 406 0 227 -2 412 -5
412 -3 0 -5 -7 -5 -15z"/>
<path d="M810 2379 c0 -64 4 -98 10 -94 6 3 10 48 10 101 0 56 -4 94 -10 94
-6 0 -10 -40 -10 -101z"/>
<path d="M904 2385 c0 -55 1 -76 3 -47 2 29 2 74 0 100 -2 26 -3 2 -3 -53z"/>
<path d="M980 2385 c0 -57 4 -95 10 -95 6 0 10 38 10 95 0 57 -4 95 -10 95 -6
0 -10 -38 -10 -95z"/>
<path d="M320 2281 c-70 -74 -99 -164 -100 -308 0 -113 9 -156 70 -353 62
-197 70 -230 70 -315 0 -107 -13 -144 -120 -360 -116 -234 -134 -289 -134
-405 -1 -75 3 -93 31 -152 58 -123 161 -199 359 -263 190 -63 380 -80 425 -39
23 21 24 46 3 90 -11 23 -23 34 -38 34 -27 0 -46 -18 -46 -42 0 -29 -37 -41
-114 -35 -87 6 -166 35 -247 89 -162 109 -218 282 -153 476 14 42 61 142 104
222 117 214 133 310 79 456 -31 87 -44 133 -37 139 3 4 32 10 63 14 31 4 68
17 83 28 33 24 72 90 72 122 0 21 -3 22 -27 15 -57 -17 -118 -10 -155 18 -45
34 -101 140 -127 242 -25 96 -28 231 -6 302 19 62 19 64 -2 64 -9 0 -33 -17
-53 -39z"/>
<path d="M834 2198 c3 -39 11 -77 17 -85 7 -7 28 -12 48 -12 23 1 28 3 13 6
-29 6 -38 25 -46 96 l-6 57 74 0 75 0 3 -32 c2 -28 7 -33 28 -33 19 0 26 6 28
24 6 41 -20 51 -136 51 l-105 0 7 -72z"/>
<path d="M903 2185 c0 -33 2 -45 4 -27 2 18 2 45 0 60 -2 15 -4 0 -4 -33z"/>
<path d="M981 2188 c-1 -26 4 -50 9 -53 12 -8 12 52 0 80 -6 15 -9 8 -9 -27z"/>
<path d="M811 1883 c-1 -196 3 -303 9 -303 12 0 13 506 1 565 -6 25 -9 -74
-10 -262z"/>
<path d="M946 2112 c-3 -4 14 -8 36 -8 38 1 41 -1 42 -26 1 -16 9 -35 18 -45
14 -14 20 -14 33 -3 23 19 15 62 -15 77 -28 14 -106 17 -114 5z"/>
<path d="M903 2030 c0 -36 2 -50 4 -32 2 17 2 47 0 65 -2 17 -4 3 -4 -33z"/>
<path d="M980 2030 c0 -33 4 -60 10 -60 6 0 10 27 10 60 0 33 -4 60 -10 60 -6
0 -10 -27 -10 -60z"/>
<path d="M884 1889 c4 -35 10 -76 13 -91 l6 -28 93 0 94 0 0 -29 c0 -27 21
-61 39 -61 16 0 31 25 31 52 0 37 -24 48 -108 48 -79 0 -74 -5 -87 103 l-7 57
56 0 c55 0 56 0 56 -29 0 -53 62 -72 68 -20 5 44 -19 54 -146 58 l-115 3 7
-63z m64 -26 c6 -43 9 -80 6 -82 -12 -12 -23 21 -29 87 -10 98 9 94 23 -5z"/>
<path d="M981 1903 c0 -10 4 -36 8 -58 9 -40 9 -39 10 18 0 32 -3 57 -9 57 -5
0 -10 -8 -9 -17z"/>
<path d="M903 1670 c0 -47 2 -66 4 -42 2 23 2 61 0 85 -2 23 -4 4 -4 -43z"/>
<path d="M980 1671 c0 -44 5 -83 10 -86 6 -4 10 25 10 79 0 51 -4 86 -10 86
-6 0 -10 -33 -10 -79z"/>
<path d="M737 1653 c-3 -5 -8 -24 -12 -43 -4 -19 -13 -45 -21 -57 -8 -13 -11
-23 -7 -23 5 0 51 7 103 15 122 19 120 19 120 -8 0 -33 28 -67 55 -67 29 0 40
27 26 63 -17 43 -37 47 -157 32 -60 -8 -110 -15 -110 -15 -7 0 19 86 27 88 5
2 9 8 9 13 0 11 -27 12 -33 2z"/>
<path d="M1277 1653 c-4 -3 -7 -29 -7 -57 0 -147 -81 -246 -189 -232 l-46 7
28 -25 c44 -40 97 -52 162 -36 30 7 58 10 62 7 3 -4 -5 -37 -19 -74 -42 -111
-48 -133 -48 -187 1 -71 28 -124 107 -209 139 -147 192 -240 201 -354 7 -92
26 -55 27 52 0 99 -23 155 -120 281 -88 115 -107 155 -113 235 -4 57 1 84 39
205 48 155 56 247 26 316 -20 49 -89 93 -110 71z"/>
<path d="M811 1353 c1 -105 4 -168 9 -153 12 37 12 330 0 330 -6 0 -10 -65 -9
-177z"/>
<path d="M729 1515 c-3 -30 0 -127 5 -132 3 -4 6 26 6 65 0 40 -2 72 -5 72 -3
0 -5 -2 -6 -5z"/>
<path d="M904 1400 c0 -69 1 -97 3 -62 2 34 2 90 0 125 -2 34 -3 6 -3 -63z"/>
<path d="M980 1356 c0 -53 4 -98 10 -101 6 -4 10 30 10 94 0 61 -4 101 -10
101 -6 0 -10 -38 -10 -94z"/>
<path d="M721 1351 c-1 -9 -10 -12 -28 -8 -30 6 -53 -1 -53 -14 0 -5 8 -9 17
-9 15 0 14 -2 -3 -15 -19 -14 -18 -14 4 -15 12 0 22 -4 22 -10 0 -5 5 -10 11
-10 5 0 7 5 3 12 -5 8 2 9 24 5 34 -7 54 9 31 24 -10 6 -11 9 -1 9 6 0 12 5
12 10 0 6 -6 10 -14 10 -8 0 -17 6 -19 13 -4 9 -6 8 -6 -2z m-4 -37 c-3 -3
-12 -4 -19 -1 -8 3 -5 6 6 6 11 1 17 -2 13 -5z"/>
<path d="M725 1250 c-3 -5 -1 -18 4 -27 9 -16 10 -14 11 10 0 28 -5 34 -15 17z"/>
<path d="M862 1237 c-12 -13 -22 -33 -22 -45 0 -15 -9 -26 -25 -32 -20 -8 -32
-5 -61 15 -42 28 -79 31 -129 10 -98 -40 -12 -103 107 -78 41 9 47 8 72 -18
84 -84 193 -52 204 60 4 45 7 49 33 53 33 5 59 -7 59 -28 0 -11 -4 -12 -19 -2
-26 16 -53 -6 -49 -41 2 -21 9 -27 34 -29 38 -4 58 18 58 63 0 53 -20 68 -79
62 -40 -4 -55 -1 -74 14 -32 26 -82 25 -109 -4z m93 -17 c6 -9 -9 -18 -62 -34
-26 -8 -32 11 -11 32 15 15 64 16 73 2z m25 -69 c0 -42 -35 -81 -72 -81 -30 0
-98 34 -98 50 0 19 34 19 55 0 28 -26 81 -27 94 -1 8 14 7 22 -4 31 -16 14
-35 5 -35 -16 0 -12 -4 -13 -21 -4 -24 13 -19 21 24 37 49 18 57 16 57 -16z
m-248 8 c17 -9 18 -13 7 -20 -18 -11 -100 -11 -118 0 -36 23 70 42 111 20z"/>
<path d="M732 1063 c-2 -18 -3 -94 -3 -169 0 -150 -3 -164 -29 -164 -28 0 -21
-40 8 -51 30 -12 28 -60 -3 -69 -27 -7 -27 -43 0 -50 15 -5 20 -15 22 -49 2
-62 13 -64 13 -3 l0 52 35 0 35 0 0 -65 c0 -37 4 -65 10 -65 6 0 10 28 10 65
l0 65 35 0 34 0 4 -77 3 -78 2 78 2 77 35 0 35 0 0 -85 c0 -50 4 -85 10 -85 6
0 10 35 10 85 0 84 0 85 25 85 20 0 25 5 25 25 0 20 -5 25 -25 25 -22 0 -25 4
-25 35 0 31 3 35 25 35 20 0 25 5 25 25 0 20 -5 25 -25 25 l-25 0 0 166 c0
107 -3 163 -10 159 -6 -4 -10 -70 -10 -166 l0 -160 -32 3 -33 3 -5 145 -6 145
-4 -145 -5 -145 -32 -3 -33 -3 0 160 c0 101 -4 161 -10 161 -6 0 -10 -60 -10
-161 l0 -160 -32 3 -33 3 -5 180 c-3 99 -7 165 -8 148z m78 -418 c0 -33 -2
-35 -35 -35 -33 0 -35 2 -35 35 0 33 2 35 35 35 33 0 35 -2 35 -35z m90 0 c0
-33 -2 -35 -35 -35 -33 0 -35 2 -35 35 0 33 2 35 35 35 33 0 35 -2 35 -35z
m80 0 c0 -33 -2 -35 -35 -35 -33 0 -35 2 -35 35 0 33 2 35 35 35 33 0 35 -2
35 -35z"/>
<path d="M1291 706 c-21 -25 -4 -58 27 -54 23 2 27 8 27 33 0 23 -5 31 -21 33
-11 2 -26 -4 -33 -12z"/>
<path d="M1156 614 c-19 -18 -21 -65 -4 -82 18 -18 63 -14 81 6 23 26 21 58
-5 76 -29 20 -52 20 -72 0z"/>
<path d="M1337 594 c-25 -25 8 -70 43 -59 32 10 24 59 -10 63 -14 2 -29 0 -33
-4z"/>
<path d="M1392 478 c-30 -30 3 -77 40 -57 30 16 16 69 -17 69 -6 0 -16 -5 -23
-12z"/>
<path d="M623 386 c-55 -25 -72 -92 -31 -120 32 -23 43 -20 87 19 48 44 87 45
254 10 64 -14 133 -25 152 -25 44 0 94 20 118 48 28 30 14 42 -30 26 -54 -19
-74 -17 -208 17 -145 36 -294 47 -342 25z"/>
</g>
</svg>
