<?xml version="1.0" standalone="no"?>
<!DOCTYPE svg PUBLIC "-//W3C//DTD SVG 20010904//EN"
 "http://www.w3.org/TR/2001/REC-SVG-20010904/DTD/svg10.dtd">
<svg version="1.0" xmlns="http://www.w3.org/2000/svg"
 width="1748.000000pt" height="1762.000000pt" viewBox="0 0 1748.000000 1762.000000"
 preserveAspectRatio="xMidYMid meet">

<g transform="translate(0.000000,1762.000000) scale(0.100000,-0.100000)"
fill="#3f0377" stroke="none">
<path d="M7194 17520 c-142 -30 -247 -133 -308 -302 -26 -71 -60 -65 -86 15
-16 49 -63 75 -112 61 -85 -25 -106 -202 -29 -244 34 -18 80 -12 106 15 14 13
25 29 25 34 0 16 38 33 59 26 12 -4 17 -13 15 -33 -9 -85 -27 -203 -36 -240
-9 -38 -13 -43 -37 -40 -21 2 -29 11 -39 43 -33 103 -133 100 -187 -5 -21 -40
-16 -107 10 -141 l17 -24 -7 25 c-13 42 -18 131 -8 141 6 6 38 -3 82 -23 71
-31 73 -32 67 -62 -3 -17 -18 -41 -32 -54 -26 -23 -33 -23 -79 -7 -17 6 -17 4
4 -14 13 -12 34 -21 47 -21 24 0 33 8 77 63 15 20 27 26 40 22 14 -6 17 -20
17 -76 0 -69 -26 -227 -40 -242 -14 -16 -47 12 -69 58 -27 57 -56 73 -110 56
-55 -16 -81 -61 -80 -132 l2 -54 6 55 c8 63 25 100 47 100 8 0 36 -16 61 -35
25 -19 52 -35 60 -35 19 0 9 -52 -19 -97 -17 -28 -25 -33 -58 -33 -21 0 -41 4
-44 9 -3 5 -15 11 -26 14 -17 4 -18 2 -10 -14 32 -59 114 -50 158 17 18 28 28
35 50 32 26 -3 27 -5 25 -63 -2 -69 -33 -246 -44 -259 -15 -17 -59 13 -76 51
-36 79 -71 92 -134 50 -93 -62 -62 -247 41 -247 30 0 80 37 80 59 0 16 39 33
60 26 16 -5 20 -15 20 -55 0 -27 -4 -71 -9 -97 -6 -26 -13 -69 -16 -96 -6 -45
-7 -47 -33 -41 -27 7 -27 7 -8 -15 16 -18 17 -21 3 -21 -9 0 -24 12 -34 26
-49 71 -75 94 -105 94 -115 0 -163 -176 -66 -244 39 -28 77 -20 119 24 25 26
47 40 64 40 24 0 25 -2 25 -62 0 -35 -7 -106 -16 -159 l-17 -95 -28 4 c-19 3
-31 12 -37 31 -5 14 -22 41 -37 59 -20 24 -35 32 -61 32 -27 0 -34 -4 -34 -19
0 -18 23 -41 84 -84 14 -10 26 -27 26 -38 0 -57 -65 -116 -115 -103 -53 13
-71 107 -35 179 l20 40 -25 -28 c-20 -23 -25 -39 -25 -83 0 -59 19 -108 45
-118 25 -9 74 -7 96 4 10 6 26 24 34 40 18 34 31 37 62 12 21 -17 21 -18 7
-112 -8 -52 -14 -123 -12 -158 l3 -62 -41 0 c-79 0 -209 51 -308 120 -42 29
-116 103 -154 154 -27 35 -28 26 -3 -39 102 -267 363 -456 651 -472 127 -6
122 -3 103 -58 -26 -77 -209 -252 -283 -270 -14 -4 -61 -23 -105 -43 l-80 -37
-140 0 c-156 0 -232 17 -350 78 -85 45 -85 45 -35 -8 105 -109 239 -188 384
-225 44 -11 81 -21 82 -23 7 -6 9 -436 2 -442 -3 -3 -35 17 -70 45 -34 28 -96
67 -137 87 -41 20 -99 53 -130 75 -69 49 -118 62 -170 48 -56 -15 -91 -60 -91
-115 0 -37 6 -49 39 -83 58 -59 80 -60 184 -6 75 38 93 44 125 38 53 -10 155
-57 200 -94 l39 -31 6 -162 c4 -131 10 -181 31 -261 14 -55 25 -101 23 -102
-1 -1 -64 28 -140 66 -420 208 -811 237 -1134 85 -208 -98 -359 -235 -447
-405 -179 -347 -99 -709 189 -851 207 -102 401 -65 480 91 49 98 44 155 -34
333 -62 145 -64 154 -47 236 29 140 122 228 296 283 67 20 94 23 250 23 205
-1 269 -14 437 -95 221 -105 424 -240 613 -405 199 -175 294 -292 384 -471 67
-133 70 -166 8 -74 -115 170 -279 309 -463 394 -332 154 -710 110 -1010 -117
-122 -92 -210 -200 -286 -350 -45 -91 -93 -251 -93 -313 0 -32 -2 -34 -66 -54
-99 -30 -138 -26 -271 26 -97 38 -120 44 -140 35 -65 -30 -52 -158 24 -239 83
-89 250 -103 398 -33 l63 29 13 -51 c55 -235 213 -445 431 -570 107 -61 130
-68 265 -74 133 -6 229 11 341 63 153 70 287 248 299 397 6 72 -12 121 -48
132 -20 7 -37 -1 -201 -87 -88 -46 -216 -60 -313 -34 -27 7 -82 29 -121 49
-300 151 -348 500 -108 793 71 86 234 190 329 209 l30 6 -30 -22 c-16 -12 -58
-51 -92 -86 -187 -191 -205 -471 -36 -570 87 -51 203 -32 203 33 0 12 -22 69
-50 126 -55 113 -59 143 -34 229 36 122 113 223 217 283 47 28 50 28 119 17
260 -43 526 -245 672 -511 42 -77 57 -140 87 -362 18 -136 20 -178 12 -230
-11 -65 -8 -96 3 -40 4 18 10 32 13 32 4 0 17 -64 29 -142 38 -251 112 -722
118 -750 3 -18 10 -25 20 -21 8 3 12 14 9 27 -3 11 -14 104 -26 206 -11 102
-27 235 -35 295 -8 61 -16 137 -19 170 l-4 60 8 -50 c5 -27 23 -156 40 -285
17 -129 40 -296 51 -370 10 -74 29 -207 40 -295 50 -383 74 -550 120 -830 53
-323 87 -566 100 -704 5 -62 14 -119 18 -125 11 -14 36 -265 28 -273 -3 -4 -6
0 -6 8 0 8 -11 88 -25 179 -13 91 -29 208 -34 260 -11 104 -53 389 -131 890
-43 280 -97 641 -116 789 -5 37 -8 41 -19 30 -11 -12 -6 -62 32 -304 25 -159
50 -293 55 -296 5 -3 6 -13 2 -22 -3 -9 1 -62 10 -119 18 -110 34 -233 66
-503 12 -93 25 -189 31 -213 5 -25 8 -46 7 -48 -6 -5 -108 64 -179 122 -130
107 -248 261 -334 439 -86 176 -125 337 -134 550 l-6 140 -22 -70 c-57 -177
-68 -248 -67 -455 0 -162 4 -212 22 -296 67 -313 209 -572 438 -801 67 -68
119 -125 115 -128 -28 -17 -139 -35 -216 -35 -212 1 -371 72 -525 237 -104
111 -139 192 -190 429 -48 230 -69 292 -119 364 -53 75 -54 89 -8 119 20 13
37 30 37 37 0 16 -113 54 -162 54 -42 0 -46 -10 -23 -50 20 -36 19 -60 -4 -60
-11 0 -30 -13 -43 -29 -13 -15 -47 -41 -75 -56 -118 -63 -212 -202 -260 -384
-23 -85 -26 -117 -27 -278 l-1 -182 -23 22 c-44 42 -145 200 -203 320 -32 67
-59 117 -59 110 -1 -43 34 -254 55 -332 52 -192 160 -406 292 -579 37 -48 70
-108 95 -170 52 -128 161 -359 316 -670 l127 -254 -30 -24 c-40 -32 -204 -116
-284 -145 -78 -28 -90 -23 209 -95 124 -30 229 -59 233 -63 24 -24 39 -123 38
-253 -1 -153 -14 -204 -93 -363 -136 -273 -398 -543 -652 -672 -238 -121 -534
-175 -831 -154 -207 16 -264 33 -412 128 -135 86 -224 72 -283 -44 -33 -65
-40 -198 -15 -290 38 -140 179 -300 329 -373 129 -63 185 -74 366 -67 249 10
457 65 692 183 215 108 460 316 606 513 34 46 62 81 62 77 0 -19 -139 -294
-201 -398 -322 -539 -860 -996 -1444 -1228 -115 -46 -374 -127 -470 -149 -312
-69 -669 -77 -960 -23 l-90 17 -3 78 c-2 55 3 96 18 146 11 37 20 80 20 94 0
28 -41 67 -70 67 -29 0 -67 -37 -85 -82 -19 -49 -23 -167 -6 -211 6 -16 11
-37 11 -48 0 -36 -40 -2 -65 54 -58 134 -74 359 -34 492 52 170 49 217 -13
255 -52 32 -94 26 -138 -18 -44 -43 -67 -111 -77 -217 -11 -140 54 -348 153
-487 19 -27 31 -48 28 -48 -4 0 -29 8 -56 17 -42 15 -54 26 -84 74 -81 134
-118 293 -117 504 1 135 2 145 42 275 22 74 41 152 41 173 0 77 -43 131 -119
148 -108 25 -188 -63 -226 -245 -21 -106 -19 -204 9 -327 23 -98 84 -267 108
-297 6 -7 8 -15 5 -18 -19 -19 -162 252 -211 400 -58 176 -71 266 -67 456 9
408 10 401 -24 455 -41 66 -89 90 -182 90 -63 0 -76 -3 -115 -30 -59 -41 -104
-132 -118 -241 -15 -116 1 -306 35 -409 58 -178 199 -430 309 -552 25 -28 46
-54 46 -57 0 -26 -169 132 -278 259 -80 93 -105 131 -163 250 -106 216 -163
413 -189 650 -21 182 13 327 110 471 92 138 227 233 386 274 141 36 219 19
284 -61 61 -76 160 -101 205 -53 56 60 36 145 -58 238 -60 61 -110 89 -194
111 -229 60 -571 -85 -749 -317 -51 -65 -114 -181 -139 -253 -9 -27 -20 -57
-23 -65 -20 -54 -28 220 -11 381 78 768 648 1404 1407 1570 72 16 145 23 282
26 l185 5 86 -44 c251 -129 423 -347 496 -627 21 -80 25 -120 26 -241 1 -235
-21 -326 -119 -480 -19 -30 -34 -65 -34 -78 0 -103 163 -152 294 -88 103 50
190 155 226 275 35 112 27 301 -21 485 -46 175 -150 360 -285 506 -75 81 -53
72 61 -24 157 -133 285 -299 376 -493 115 -241 194 -333 289 -333 81 0 126 88
123 240 -2 107 -51 262 -121 379 -26 44 -63 108 -82 143 -31 55 -166 204 -250
275 -14 12 -40 38 -59 58 -66 73 -339 226 -516 290 -424 154 -819 152 -1278
-4 -76 -26 -88 -28 -82 -13 70 167 62 327 -40 781 -54 238 -46 223 -74 154
-34 -82 -106 -218 -148 -278 -19 -27 -85 -90 -145 -140 -178 -146 -280 -259
-337 -374 -27 -54 -57 -122 -67 -152 -9 -30 -19 -56 -21 -58 -2 -3 -49 40
-106 95 -136 132 -249 235 -255 230 -2 -2 4 -41 13 -86 21 -104 22 -260 2
-320 -41 -121 -77 -292 -77 -361 0 -21 -3 -39 -6 -39 -4 0 -45 22 -93 49 -149
84 -261 142 -261 136 0 -3 15 -36 34 -73 53 -106 66 -161 66 -292 0 -210 26
-331 97 -443 38 -61 136 -137 176 -137 22 0 22 -14 -7 -112 -29 -100 -52 -236
-66 -382 -5 -60 -12 -111 -14 -113 -2 -3 -26 11 -53 30 -77 56 -182 105 -273
128 -123 31 -275 24 -382 -18 -152 -60 -268 -166 -341 -312 -39 -79 -41 -88
-44 -185 -1 -68 0 -91 6 -69 29 111 136 242 242 295 159 79 304 72 499 -27
119 -60 225 -158 312 -287 70 -104 90 -145 148 -314 29 -82 67 -186 86 -232
234 -566 698 -1056 1258 -1328 174 -84 306 -132 496 -179 223 -54 362 -70 632
-70 131 0 237 -3 235 -7 -1 -4 -27 -33 -58 -65 -75 -78 -147 -172 -207 -268
-74 -120 -90 -159 -123 -290 -77 -314 -4 -496 201 -498 102 -1 171 58 204 174
8 30 20 113 26 184 19 224 50 336 144 526 44 87 133 229 178 281 20 23 78 55
78 43 0 -2 -20 -36 -45 -74 -65 -100 -119 -213 -150 -313 -25 -79 -27 -98 -24
-215 4 -114 7 -134 30 -178 34 -66 77 -95 143 -95 87 0 135 44 150 135 4 22 0
99 -9 170 -20 174 -4 302 62 480 45 122 70 161 116 179 22 9 42 14 44 12 3 -2
-7 -27 -21 -55 -62 -121 -71 -158 -71 -286 0 -139 14 -177 78 -208 33 -17 42
-17 79 -5 23 7 49 24 59 38 22 30 23 55 14 216 -7 98 -5 135 10 200 34 154 59
198 122 218 21 7 21 5 12 -26 -14 -51 -11 -136 8 -175 27 -58 97 -67 130 -17
12 19 14 41 8 116 -7 106 5 188 31 203 101 59 276 178 376 255 154 119 416
380 528 525 47 61 105 130 130 154 49 47 154 131 165 131 4 0 5 -10 2 -22 -10
-39 -45 -299 -52 -383 -9 -103 -9 -456 0 -532 24 -209 48 -309 106 -450 32
-76 106 -210 137 -246 21 -24 12 -29 -93 -62 -316 -96 -621 -326 -808 -608
-69 -105 -152 -271 -186 -373 -73 -221 -67 -535 16 -797 27 -86 101 -249 131
-288 10 -13 21 -32 25 -42 3 -9 12 -17 18 -17 8 0 7 5 -2 18 -10 13 -8 12 10
-3 l24 -20 -7 25 c-5 19 -2 16 13 -10 24 -42 26 -51 7 -44 -8 3 -13 11 -10 18
3 7 -2 13 -11 13 -8 0 -15 -3 -15 -6 1 -14 26 -36 40 -36 24 2 51 -15 44 -27
-5 -7 -2 -8 6 -3 10 6 8 12 -9 27 -13 10 -20 18 -17 18 4 0 -11 26 -32 58
-101 148 -180 355 -208 544 -33 222 -1 475 82 650 13 29 22 45 19 35 -55 -188
-67 -487 -27 -674 31 -145 67 -240 147 -393 21 -39 85 -127 85 -116 0 4 -13
26 -29 49 -16 23 -29 45 -30 50 0 4 -14 33 -31 64 -78 146 -121 337 -122 536
0 270 69 504 215 724 173 263 423 440 757 534 l105 30 40 -43 c53 -57 125
-114 210 -168 39 -24 89 -56 113 -71 56 -36 266 -121 372 -152 117 -34 264
-63 395 -79 120 -14 707 -17 741 -4 14 6 -14 17 -101 41 -231 64 -453 159
-663 283 -163 97 -202 127 -321 244 -507 501 -772 1195 -730 1912 15 249 56
459 130 655 140 374 397 721 715 967 l75 59 -4 175 c-5 177 -22 295 -67 475
-27 103 -110 351 -155 459 -66 160 -65 224 7 262 46 25 153 23 253 -5 106 -29
125 -42 125 -86 0 -49 20 -180 31 -196 6 -11 13 -11 26 -3 17 10 19 3 33 -95
l15 -106 90 -1 c50 0 121 1 158 4 l69 4 -6 62 -5 61 11 -59 11 -58 71 7 c80 8
86 10 86 33 0 14 2 14 9 3 8 -12 18 -13 65 -2 31 7 62 18 69 25 7 7 18 11 25
8 19 -6 113 29 119 44 3 8 -5 78 -17 155 -12 77 -20 142 -17 145 2 2 14 -55
27 -128 25 -145 39 -190 40 -121 0 23 4 45 10 48 5 3 40 -3 77 -14 243 -72
348 -84 483 -57 147 30 271 93 384 197 60 54 140 162 129 173 -4 3 -2 6 4 6 5
0 10 6 10 13 0 6 13 37 27 67 15 30 25 44 22 31 -6 -28 5 -17 22 22 6 15 7 27
2 27 -5 0 -2 16 6 35 8 20 18 86 22 148 6 95 8 104 13 62 6 -50 6 -50 8 -10 4
47 3 66 -5 201 -7 113 2 134 56 134 48 0 128 -84 134 -143 4 -31 77 -188 86
-182 9 5 37 -143 51 -266 18 -156 -6 -339 -82 -639 -77 -301 -115 -551 -105
-700 10 -165 9 -163 92 -226 40 -31 75 -61 77 -67 2 -7 2 -1 0 12 -16 93 -16
88 1 67 9 -11 16 -34 16 -52 0 -25 12 -44 58 -90 32 -33 73 -86 91 -119 18
-33 66 -107 106 -165 87 -128 134 -212 169 -307 17 -44 70 -136 139 -240 62
-92 142 -229 179 -303 37 -74 77 -151 90 -170 12 -19 16 -30 8 -23 -8 7 -37
48 -65 93 -112 181 -306 470 -364 542 -35 43 -60 81 -58 85 3 5 -33 60 -80
123 -121 163 -186 264 -233 360 -22 46 -40 80 -40 75 0 -4 -29 20 -64 53 -35
34 -67 62 -70 62 -3 0 1 -17 8 -37 74 -205 201 -425 443 -767 47 -65 87 -125
91 -135 3 -9 18 -34 34 -55 l28 -39 -6 34 c-4 19 -19 76 -34 127 -15 52 -25
90 -21 85 44 -50 82 -104 90 -126 6 -15 18 -73 27 -129 15 -95 20 -109 86
-222 127 -218 162 -295 235 -516 44 -133 49 -247 15 -323 -18 -40 -29 -51 -74
-72 -108 -51 -205 -30 -373 80 -290 189 -484 287 -667 337 -74 21 -105 23
-295 23 -207 0 -212 0 -208 20 9 40 45 244 75 425 17 102 37 223 46 268 8 46
13 86 11 88 -5 5 -16 -48 -101 -514 l-64 -353 18 -42 c25 -56 53 -279 37 -289
-19 -12 -80 -28 -109 -28 -15 0 -42 -9 -61 -20 -21 -12 -66 -23 -118 -29 -115
-13 -351 -49 -424 -66 -33 -7 -85 -14 -115 -14 -30 0 -68 -5 -84 -11 -16 -6
-59 -12 -96 -14 -37 -2 -77 -9 -90 -16 -27 -15 -168 -16 -182 -2 -15 15 -26
74 -48 252 -11 91 -25 181 -30 200 -14 49 -12 116 3 128 6 6 26 13 42 17 55
12 65 16 65 25 0 9 -57 -2 -100 -20 -35 -15 -43 -43 -30 -110 6 -29 10 -70 10
-90 0 -35 -2 -38 -37 -44 -274 -45 -506 126 -617 456 -37 112 -56 249 -56 410
0 163 14 271 65 494 20 86 34 158 32 160 -6 6 -102 -118 -163 -208 -145 -219
-282 -593 -325 -893 -17 -116 -17 -415 -1 -530 90 -622 459 -1177 1008 -1517
364 -225 749 -330 1154 -315 549 20 1043 207 1490 564 249 198 519 526 658
800 26 51 49 93 52 93 16 0 -15 -231 -45 -335 l-15 -50 39 41 39 41 7 -34 c3
-19 5 -36 3 -38 -2 -2 -21 -6 -43 -9 -47 -8 -47 -7 -70 -71 -93 -260 -270
-477 -537 -658 l-67 -45 37 -15 c69 -28 123 -38 271 -52 165 -16 213 -30 334
-99 42 -24 77 -41 77 -36 0 10 -112 276 -138 327 -12 23 -22 44 -22 46 0 2 55
7 123 10 67 3 167 15 222 27 155 34 266 29 438 -21 38 -11 71 -19 73 -16 5 5
-145 201 -248 324 -37 45 -68 84 -68 87 0 3 12 6 26 6 41 0 232 67 303 107 81
45 162 113 326 273 113 110 142 133 220 171 50 25 138 61 197 80 59 19 108 37
108 40 0 11 -496 164 -630 194 -101 23 -266 31 -324 16 -55 -13 -137 -50 -186
-83 l-35 -23 31 55 c208 370 334 699 404 1063 14 70 33 84 157 123 101 31 126
50 126 94 0 24 -8 40 -28 58 -25 21 -36 24 -76 19 -26 -3 -66 -15 -89 -27 -23
-12 -44 -19 -46 -17 -3 3 -2 28 2 56 6 49 10 54 73 101 87 67 166 104 279 134
116 31 152 51 175 99 17 33 17 42 5 79 -17 54 -64 88 -123 88 -99 0 -234 -62
-330 -151 l-65 -61 0 53 c0 53 1 55 63 114 124 120 280 209 447 255 157 43
190 56 227 93 48 45 58 85 39 151 -18 63 -58 102 -112 112 -99 18 -264 -28
-386 -109 -35 -23 -102 -81 -150 -129 l-88 -88 0 41 c0 34 8 52 49 103 62 77
200 211 280 269 33 25 137 84 230 132 227 115 284 172 284 281 0 65 -31 131
-83 178 -103 93 -251 70 -465 -71 -122 -80 -186 -142 -275 -262 -41 -56 -76
-98 -77 -94 -2 5 -11 49 -21 100 l-19 92 43 58 c47 63 61 113 50 187 -9 56
-52 122 -93 141 -35 17 -44 15 -80 -18 -22 -19 -23 -20 -29 -1 -22 63 -62 161
-100 244 -50 111 -74 211 -74 315 0 45 -9 109 -25 169 -14 53 -24 118 -24 144
l2 47 15 -67 c18 -76 32 -88 32 -29 0 61 28 194 61 289 90 257 281 477 514
591 100 49 182 76 309 102 141 29 234 27 327 -5 104 -36 157 -35 194 4 23 25
30 41 33 90 9 118 -57 234 -177 314 -138 92 -279 105 -465 42 -137 -46 -238
-98 -347 -180 -144 -109 -271 -256 -358 -416 -48 -87 -51 -82 -15 26 58 176
212 454 338 609 249 308 536 524 759 572 88 18 224 12 312 -15 177 -55 374
-200 439 -322 34 -65 51 -79 91 -79 84 0 119 113 74 235 -53 141 -279 283
-518 326 -61 10 -64 12 -36 20 179 50 506 59 705 19 150 -29 267 -70 415 -141
136 -66 253 -142 333 -214 137 -126 279 -365 333 -563 62 -225 -55 -472 -266
-563 -74 -32 -126 -30 -178 7 -39 28 -82 39 -139 34 -26 -2 -40 -36 -32 -77
15 -78 137 -154 248 -154 72 0 169 31 236 76 80 54 180 160 217 229 36 70 73
184 73 229 1 74 18 53 43 -51 29 -118 31 -147 21 -270 -4 -51 -2 -99 5 -127
31 -126 -81 -452 -228 -660 -104 -147 -322 -344 -403 -362 -74 -18 -117 -16
-151 5 -41 25 -47 37 -56 111 -5 46 -9 55 -28 58 -49 7 -72 -95 -33 -152 26
-40 87 -76 130 -76 l35 -1 -25 -13 c-84 -46 -279 -89 -340 -75 -165 37 -325
148 -426 295 -68 99 -124 293 -124 430 0 32 11 85 26 130 31 89 25 116 -31
139 -82 35 -184 -22 -246 -137 -31 -58 -34 -70 -33 -148 2 -200 124 -426 314
-583 74 -61 17 -46 -86 23 -113 75 -171 130 -271 255 -134 167 -230 210 -278
122 -26 -50 -16 -132 29 -222 39 -77 157 -224 237 -296 l51 -46 -49 -36 c-140
-102 -256 -270 -303 -439 -19 -65 -40 -276 -24 -238 4 8 18 44 32 80 39 100
95 182 181 263 132 123 279 184 459 189 104 3 244 -27 314 -66 49 -28 86 -28
109 0 8 10 34 14 82 14 l70 0 -20 -22 c-60 -66 -76 -167 -62 -382 6 -83 12
-152 14 -154 2 -2 15 18 28 45 36 70 85 134 137 178 25 21 66 58 91 82 l46 44
22 -83 c12 -46 36 -128 53 -183 l30 -100 23 65 c45 134 81 188 215 325 70 72
141 154 157 183 l30 52 38 -55 c45 -65 365 -371 365 -349 0 5 -4 24 -9 42 -5
18 -15 75 -21 127 -11 94 -11 97 26 243 28 109 37 169 38 233 l1 87 55 -48
c121 -103 258 -182 411 -234 275 -93 612 -70 867 59 42 21 41 26 -5 20 -84
-12 -290 -6 -368 10 -301 62 -544 243 -693 515 -74 137 -105 226 -106 312 0
42 2 80 6 84 4 4 34 -5 65 -19 151 -66 298 -92 477 -84 147 7 258 34 383 92
150 71 278 168 365 278 l32 39 -55 -32 c-92 -54 -171 -88 -259 -112 -74 -20
-108 -23 -255 -23 -160 1 -175 3 -250 29 -150 53 -235 103 -363 214 -84 74
-119 124 -157 223 -15 37 -39 81 -54 96 -18 19 -34 51 -46 98 -10 39 -34 111
-53 160 -238 613 -797 1056 -1452 1151 -145 21 -451 15 -579 -10 -46 -10 -85
-15 -88 -13 -9 9 228 47 357 57 629 47 1252 -226 1614 -707 34 -45 131 -193
215 -330 218 -350 293 -419 513 -475 71 -18 100 -20 208 -15 149 8 227 23 208
42 -3 3 -58 10 -123 15 -138 12 -217 30 -305 73 -89 44 -201 156 -265 267 -27
47 -87 150 -133 230 -106 184 -196 303 -320 421 -319 306 -711 490 -1152 540
-142 16 -413 7 -560 -20 -143 -25 -332 -79 -463 -132 -106 -42 -169 -74 -132
-66 11 3 29 8 40 12 11 4 -41 -24 -115 -62 -74 -37 -147 -76 -163 -87 -15 -10
-27 -16 -27 -14 0 12 121 87 182 113 37 16 64 33 62 37 -8 13 226 121 361 167
628 213 1272 113 1779 -277 69 -53 194 -176 408 -403 87 -92 182 -183 213
-203 119 -79 277 -116 419 -97 103 14 266 64 297 92 l24 20 -55 -6 c-30 -3
-95 -10 -145 -16 -197 -21 -361 30 -494 155 -29 28 -127 135 -217 237 -258
295 -459 441 -779 564 -394 151 -823 172 -1230 59 -287 -80 -582 -235 -834
-438 -52 -42 -95 -76 -96 -76 -1 0 0 40 3 88 5 103 -15 190 -53 228 -50 50
-135 17 -135 -52 0 -17 11 -63 25 -102 20 -57 25 -91 25 -165 0 -85 -2 -96
-23 -115 -31 -29 -47 -28 -47 4 0 37 -28 92 -51 99 -56 18 -80 -26 -56 -102
35 -110 36 -106 -40 -186 -164 -171 -292 -351 -383 -536 -25 -49 -48 -90 -51
-91 -4 0 -9 30 -11 68 -5 96 -35 150 -143 258 -73 74 -295 260 -341 287 -7 4
-5 -16 7 -53 10 -33 24 -98 31 -145 11 -78 10 -93 -13 -202 -34 -168 -34 -338
2 -441 14 -39 24 -74 22 -75 -1 -2 -31 0 -65 4 -35 4 -112 11 -171 15 l-109 7
84 -84 c76 -76 89 -94 126 -181 22 -54 59 -126 81 -160 l40 -63 -52 -8 c-29
-5 -74 -6 -101 -3 -42 5 -59 14 -135 79 -227 194 -460 341 -711 450 -257 111
-430 155 -800 202 -535 68 -540 69 -659 121 -77 34 -191 122 -251 194 -53 65
-59 76 -35 66 14 -5 14 -4 0 16 -8 13 -15 30 -15 39 0 9 -13 36 -30 60 -16 24
-44 86 -60 137 -92 285 -76 579 45 831 39 81 114 199 150 237 5 6 33 36 62 66
73 78 161 152 208 176 22 11 80 32 129 47 108 32 146 64 146 121 0 82 -73 172
-180 222 -44 21 -74 27 -153 30 -234 10 -383 -89 -548 -363 -63 -104 -111
-220 -147 -355 -23 -87 -26 -113 -26 -307 -1 -116 -2 -210 -4 -209 -5 5 -33
121 -52 211 -89 435 -16 1065 150 1293 27 37 63 103 81 147 17 44 41 89 53
101 84 80 205 149 316 179 85 22 306 31 396 16 39 -7 98 -27 136 -47 37 -18
77 -34 90 -34 71 1 101 95 55 173 -50 85 -160 144 -286 154 -131 10 -341 -31
-454 -89 -22 -11 -41 -18 -43 -15 -6 6 143 150 215 207 308 246 690 379 1086
380 136 0 213 -12 335 -53 255 -84 496 -251 568 -393 79 -157 82 -308 8 -459
-19 -38 -51 -85 -70 -104 -33 -32 -42 -35 -113 -40 -122 -10 -178 -56 -139
-116 27 -42 73 -60 152 -59 172 0 307 140 364 377 35 147 21 280 -44 423 -20
42 -36 79 -36 81 0 10 85 -63 150 -129 49 -48 79 -90 104 -142 21 -43 56 -94
84 -123 105 -105 189 -373 199 -633 13 -326 -79 -617 -273 -866 -89 -114 -138
-155 -220 -182 -251 -81 -505 -30 -707 143 -122 104 -187 196 -213 298 -9 37
-25 79 -36 92 -37 47 -111 24 -168 -52 -35 -46 -35 -48 -35 -147 0 -121 19
-170 100 -252 145 -149 343 -243 547 -260 71 -6 79 -9 63 -21 -13 -9 -53 -13
-134 -13 -144 0 -210 11 -353 56 -149 48 -262 57 -307 25 -43 -31 -47 -59 -17
-118 47 -93 134 -148 321 -203 152 -45 174 -49 224 -50 37 0 42 -3 38 -17 -46
-140 -59 -199 -64 -290 -9 -166 25 -322 102 -459 35 -62 67 -99 51 -58 -4 10
-15 55 -23 99 -28 153 1 339 78 485 72 139 220 277 339 315 30 10 72 26 92 36
21 11 55 19 76 19 63 0 99 17 114 55 8 21 35 51 68 75 l55 41 6 -73 c8 -96 35
-149 161 -315 55 -73 102 -133 103 -133 2 0 1 46 -2 103 -4 79 -2 117 12 167
10 36 25 93 35 127 9 35 18 65 21 67 3 3 23 -10 44 -30 62 -54 243 -204 248
-204 2 0 -5 33 -15 73 -35 136 -34 204 2 385 26 129 32 180 28 242 l-5 78 51
-20 c28 -11 92 -28 141 -38 82 -17 357 -60 383 -60 6 0 -18 30 -54 68 -95 98
-129 153 -177 287 -51 139 -87 214 -130 269 l-31 39 29 -6 c67 -15 273 -19
358 -8 112 15 255 52 338 88 175 74 353 208 471 353 40 50 128 189 128 203 0
5 -25 -14 -57 -43 -151 -138 -358 -237 -565 -270 -104 -17 -311 -8 -403 17
-170 47 -380 156 -473 246 -41 40 -92 115 -92 135 0 5 28 15 63 21 426 82 774
402 877 805 17 69 37 238 24 206 -56 -137 -143 -266 -241 -361 -187 -183 -400
-269 -663 -269 -153 0 -350 39 -350 69 0 6 -6 8 -12 6 -7 -2 -26 7 -43 20
l-30 25 26 0 c14 0 34 -7 45 -15 29 -22 40 -18 11 5 -14 11 -40 20 -60 20 -19
0 -48 7 -63 15 -16 8 -40 15 -53 15 -20 0 -78 41 -146 103 -42 39 -231 160
-314 201 -299 150 -586 213 -923 203 -423 -11 -772 -131 -1100 -376 l-43 -33
43 40 c111 104 388 262 589 336 268 98 552 139 811 117 289 -25 443 -74 901
-285 91 -42 194 -85 230 -97 183 -56 385 -22 559 94 81 54 211 171 201 181 -3
3 -68 -25 -145 -64 -77 -38 -174 -78 -215 -89 -89 -25 -201 -27 -284 -6 -33 9
-174 72 -315 141 -334 164 -453 206 -688 241 -144 21 -422 21 -567 -2 -275
-41 -538 -136 -780 -279 -200 -119 -430 -317 -588 -506 -95 -114 -97 -116 -97
-103 0 25 158 222 273 340 191 196 357 316 592 429 225 107 438 164 697 185
208 17 382 -5 759 -95 258 -62 300 -69 404 -63 175 9 312 72 445 207 70 70
160 190 160 212 0 5 -55 -33 -122 -85 -202 -155 -297 -197 -445 -197 -86 0
-181 20 -488 105 -195 53 -295 67 -500 68 -245 0 -435 -32 -670 -115 l-60 -21
-54 33 -55 34 29 20 c16 12 63 53 106 92 59 55 91 76 145 96 l68 25 -117 38
c-64 20 -117 39 -117 42 0 3 18 25 39 49 61 70 96 163 125 335 4 20 30 73 60
117 29 45 49 82 44 82 -24 0 -277 -82 -324 -105 -61 -30 -122 -87 -136 -126
-16 -48 -25 -33 -31 54 -8 117 -31 222 -83 374 -24 73 -44 136 -44 142 0 5 16
28 35 51 39 46 42 61 20 80 -21 17 -61 -1 -77 -35 -14 -31 -22 -31 -36 0 -16
36 10 102 74 187 30 40 54 77 54 85 0 19 -37 53 -59 53 -44 0 -113 -88 -126
-162 -9 -45 -18 -48 -34 -10 -6 15 -23 40 -36 56 -14 16 -22 33 -18 39 3 5 2
7 -4 4 -10 -7 -109 101 -100 109 2 3 26 -19 52 -48 l47 -53 -43 65 c-105 159
-269 330 -411 427 -90 63 -267 152 -358 182 -186 60 -429 85 -604 62 -102 -14
-95 -19 -127 79 -12 36 -55 137 -96 225 -95 206 -142 345 -150 446 l-6 79 49
47 c27 27 74 70 103 97 33 30 63 70 80 105 23 50 26 68 26 166 0 104 -2 114
-32 176 -46 93 -100 149 -185 194 -63 33 -83 39 -148 41 -41 2 -93 -1 -116 -6z
m-487 -340 c14 0 21 -4 18 -10 -10 -16 26 -24 46 -11 21 13 24 4 9 -33 -15
-41 -47 -66 -83 -66 -55 0 -86 53 -73 125 l7 36 26 -21 c14 -11 37 -20 50 -20z
m163 -30 c0 -5 -2 -10 -4 -10 -3 0 -8 5 -11 10 -3 6 -1 10 4 10 6 0 11 -4 11
-10z m241 -29 c34 -35 37 -66 8 -101 -11 -14 -18 -19 -14 -12 4 7 -1 12 -14
12 -20 0 -20 0 1 40 21 39 21 41 4 58 -17 16 -18 16 -11 -5 8 -30 -3 -66 -19
-60 -7 3 -19 1 -27 -3 -9 -6 -20 -3 -31 7 -23 20 -22 25 2 53 25 29 17 40 -10
15 -22 -20 -26 -59 -9 -101 10 -28 10 -28 -10 -9 -30 26 -28 79 4 110 35 36
88 34 126 -4z m-301 -341 c0 -5 -11 -10 -25 -10 -14 0 -25 5 -25 10 0 6 11 10
25 10 14 0 25 -4 25 -10z m243 -28 c25 -27 29 -72 13 -117 -13 -35 -15 -36
-16 -13 0 22 -3 25 -22 20 -20 -5 -21 -3 -10 10 11 13 9 16 -13 17 -56 4 -63
6 -60 16 14 49 15 50 31 27 18 -26 30 -28 38 -7 3 10 -5 20 -26 31 -24 12 -28
18 -17 25 23 15 65 10 82 -9z m-108 -106 c7 -16 6 -17 -13 -7 -22 12 -28 43
-15 78 6 14 9 11 14 -17 3 -19 10 -43 14 -54z m212 22 c-3 -8 -6 -5 -6 6 -1
11 2 17 5 13 3 -3 4 -12 1 -19z m-181 -25 c-7 -7 -26 7 -26 19 0 6 6 6 15 -2
9 -7 13 -15 11 -17z m191 -40 c-3 -10 -5 -2 -5 17 0 19 2 27 5 18 2 -10 2 -26
0 -35z m-110 -65 c-3 -7 -5 -2 -5 12 0 14 2 19 5 13 2 -7 2 -19 0 -25z m120
-30 c-2 -13 -4 -3 -4 22 0 25 2 35 4 23 2 -13 2 -33 0 -45z m-110 -50 c-3 -7
-5 -2 -5 12 0 14 2 19 5 13 2 -7 2 -19 0 -25z m120 -20 c-3 -7 -5 -2 -5 12 0
14 2 19 5 13 2 -7 2 -19 0 -25z m-110 -35 c-3 -10 -5 -4 -5 12 0 17 2 24 5 18
2 -7 2 -21 0 -30z m-330 11 c-3 -3 -12 -4 -19 -1 -8 3 -5 6 6 6 11 1 17 -2 13
-5z m450 -36 c-3 -7 -5 -2 -5 12 0 14 2 19 5 13 2 -7 2 -19 0 -25z m-217 7
c35 -18 51 -68 37 -111 -6 -16 -13 -20 -28 -17 -12 3 -18 11 -15 19 4 11 -1
13 -22 8 -15 -4 -30 -12 -34 -18 -8 -11 -9 -9 -12 17 -1 6 -7 11 -14 10 -20
-5 -13 35 10 57 12 11 33 20 47 19 16 0 20 -3 11 -6 -8 -3 -25 -10 -38 -14
-22 -9 -22 -10 -6 -26 16 -16 18 -15 41 12 20 23 27 25 34 14 6 -9 9 -10 9 -2
0 35 -85 44 -118 13 -12 -12 -22 -16 -22 -11 0 15 51 51 72 51 10 0 32 -7 48
-15z m124 -114 l5 -56 -14 65 c-16 73 -19 124 -5 76 5 -15 11 -53 14 -85z
m103 42 c-3 -10 -5 -4 -5 12 0 17 2 24 5 18 2 -7 2 -21 0 -30z m-319 -29 c4 2
8 -4 8 -15 0 -23 -4 -24 -28 -2 -10 9 -18 28 -18 42 l1 26 15 -28 c8 -15 18
-26 22 -23z m329 -36 c-3 -7 -5 -2 -5 12 0 14 2 19 5 13 2 -7 2 -19 0 -25z
m-260 -14 c-3 -3 -12 -4 -19 -1 -8 3 -5 6 6 6 11 1 17 -2 13 -5z m270 -46 c-3
-7 -5 -2 -5 12 0 14 2 19 5 13 2 -7 2 -19 0 -25z m10 -65 c-3 -10 -5 -4 -5 12
0 17 2 24 5 18 2 -7 2 -21 0 -30z m-670 -21 c25 -19 47 -31 54 -26 9 5 11 -5
7 -40 -8 -64 -47 -106 -99 -106 -41 0 -51 9 -68 61 -14 43 -2 110 24 139 20
22 22 21 82 -28z m680 -39 c-3 -10 -5 -4 -5 12 0 17 2 24 5 18 2 -7 2 -21 0
-30z m-120 -15 c-3 -8 -6 -5 -6 6 -1 11 2 17 5 13 3 -3 4 -12 1 -19z m-444
-15 c-7 -2 -19 -2 -25 0 -7 3 -2 5 12 5 14 0 19 -2 13 -5z m574 -35 c-3 -7 -5
-2 -5 12 0 14 2 19 5 13 2 -7 2 -19 0 -25z m-318 3 c28 -28 35 -79 17 -121 -8
-19 -15 -27 -16 -17 0 9 -5 17 -11 17 -6 0 -8 9 -4 21 6 18 4 19 -12 11 -28
-15 -72 -10 -65 7 3 9 1 12 -6 7 -20 -12 -14 22 8 44 11 11 30 20 43 21 21 0
21 1 2 8 -11 5 -27 6 -35 4 -13 -4 -13 -4 0 6 23 17 58 13 79 -8z m198 -23
c-3 -7 -5 -2 -5 12 0 14 2 19 5 13 2 -7 2 -19 0 -25z m-308 -9 c-6 -12 -9 -38
-5 -57 4 -26 2 -32 -6 -24 -15 15 -14 67 2 86 18 23 23 20 9 -5z m438 -36 c-3
-10 -5 -4 -5 12 0 17 2 24 5 18 2 -7 2 -21 0 -30z m10 -70 c-3 -10 -5 -2 -5
17 0 19 2 27 5 18 2 -10 2 -26 0 -35z m-372 -3 c-28 -12 -37 -12 -30 0 3 6 16
10 28 9 21 0 21 -1 2 -9z m405 -34 c6 -8 10 -25 7 -38 l-4 -23 -9 25 -8 25 -7
-30 c-6 -27 -7 -26 -8 13 -1 44 8 52 29 28z m-153 -28 c-3 -8 -6 -5 -6 6 -1
11 2 17 5 13 3 -3 4 -12 1 -19z m33 -2 c0 -13 3 -33 6 -43 5 -13 4 -15 -4 -8
-17 15 -27 75 -13 75 6 0 11 -11 11 -24z m68 -18 c2 -9 -2 -19 -9 -23 -8 -5
-9 -1 -4 14 5 16 3 20 -9 15 -9 -3 -16 -11 -16 -17 0 -8 -3 -8 -11 0 -6 6 -9
15 -6 20 10 15 52 8 55 -9z m867 12 c318 -28 556 -132 822 -358 51 -43 180
-183 154 -167 -11 6 -13 4 -8 -9 4 -10 3 -15 -3 -11 -6 3 -10 13 -10 21 0 9
-5 12 -12 8 -7 -4 -8 -3 -4 5 8 13 -38 59 -145 146 -181 147 -396 251 -619
300 -94 21 -369 31 -470 17 -55 -8 -76 -8 -82 1 -3 6 -5 14 -2 18 4 7 137 27
214 33 25 1 50 3 55 4 6 1 55 -3 110 -8z m-1644 -105 c18 -14 43 -25 60 -25
33 0 35 -9 15 -49 -21 -41 -43 -55 -86 -56 -31 -1 -41 4 -54 26 -24 41 -21
120 7 155 l22 29 3 -27 c2 -15 17 -39 33 -53z m1892 -34 c105 -24 193 -56 307
-109 77 -36 204 -111 189 -112 -3 0 -49 23 -102 51 -206 108 -375 150 -605
149 -130 0 -209 -8 -339 -36 -18 -3 -33 -3 -33 2 0 5 -3 19 -6 30 -5 20 0 23
68 34 40 6 80 13 88 15 8 2 89 2 180 0 120 -2 189 -9 253 -24z m-1746 3 c-3
-3 -12 -4 -19 -1 -8 3 -5 6 6 6 11 1 17 -2 13 -5z m198 -34 c-16 -4 -39 -11
-50 -15 -20 -7 -20 -6 -1 9 11 9 34 16 50 15 l31 -1 -30 -8z m43 -32 l24 -23
-6 25 c-7 24 -6 24 8 6 17 -22 22 -91 7 -101 -5 -3 -8 -22 -5 -43 5 -43 0 -34
-16 25 -9 35 -13 40 -33 36 -18 -5 -20 -3 -9 8 17 18 15 49 -5 71 -24 27 5 24
35 -4z m239 0 c-3 -8 -6 -5 -6 6 -1 11 2 17 5 13 3 -3 4 -12 1 -19z m-297 -39
c0 -18 -6 -32 -16 -36 -8 -3 -13 -12 -10 -19 10 -27 -14 -14 -29 16 -22 42
-18 59 6 30 15 -18 19 -20 15 -7 -7 22 11 60 25 52 5 -4 9 -20 9 -36z m307
-31 c-3 -7 -5 -2 -5 12 0 14 2 19 5 13 2 -7 2 -19 0 -25z m1298 -37 c117 -25
219 -62 328 -119 84 -44 176 -111 132 -97 -11 4 -56 11 -100 17 -102 13 -233
-7 -301 -47 -87 -51 -130 -149 -87 -197 25 -27 53 -22 110 21 60 45 168 78
284 87 86 6 201 -19 272 -61 126 -73 276 -306 352 -545 52 -164 66 -254 71
-440 4 -177 -3 -193 -24 -54 -28 177 -128 363 -267 492 -92 86 -158 120 -246
128 -118 11 -217 -32 -276 -120 -39 -57 -42 -95 -10 -132 20 -23 33 -27 108
-34 92 -9 132 -25 229 -90 168 -115 269 -252 322 -436 30 -106 31 -294 1 -401
-11 -40 -18 -73 -17 -73 2 0 15 17 29 37 38 57 30 26 -17 -63 -74 -142 -143
-237 -249 -344 -115 -116 -214 -235 -292 -352 -50 -75 -67 -87 -67 -48 0 11
-13 62 -30 113 -43 136 -142 276 -239 338 -76 49 -160 35 -219 -37 -59 -72
-39 -150 70 -275 104 -121 131 -158 172 -244 57 -117 91 -224 82 -258 -3 -15
-10 -27 -14 -27 -4 0 -19 30 -32 67 -67 180 -227 329 -334 309 -47 -9 -86 -56
-86 -105 0 -51 30 -89 130 -163 91 -67 158 -150 215 -262 38 -75 41 -92 23
-131 -11 -25 -12 -25 -45 37 -56 105 -151 188 -216 188 -35 0 -77 -46 -77 -83
0 -25 10 -40 52 -77 102 -90 164 -156 190 -206 26 -48 27 -54 15 -90 -9 -25
-16 -33 -21 -25 -14 22 -89 71 -109 71 -25 0 -57 -27 -57 -49 0 -9 32 -46 72
-82 l72 -66 -18 -109 c-40 -249 -43 -503 -10 -764 l6 -45 -17 25 c-10 14 -30
39 -46 55 -17 19 -29 47 -34 75 -10 67 -15 80 -32 80 -12 0 -13 5 -7 23 13 37
8 107 -15 198 -11 48 -21 101 -21 119 0 23 -5 33 -20 37 -23 6 -26 25 -7 41
11 9 10 31 -5 119 -27 166 -38 210 -59 237 -16 21 -18 28 -8 44 10 16 7 55
-17 202 -27 171 -30 183 -53 191 -22 9 -22 11 -8 27 15 16 14 33 -14 207 -27
170 -33 192 -55 210 -21 19 -22 22 -9 36 14 14 12 35 -15 205 -16 104 -30 192
-30 197 0 4 11 5 25 1 15 -4 40 2 68 15 52 25 87 81 87 137 0 41 -39 136 -61
149 -8 6 -10 4 -4 -4 13 -23 7 -92 -11 -112 -9 -10 -36 -26 -60 -35 -24 -9
-44 -20 -44 -23 0 -17 27 -31 60 -32 27 0 31 -2 15 -8 -11 -5 -40 -10 -65 -13
l-45 -5 -2 76 c-1 42 -13 135 -27 206 -14 72 -26 133 -26 138 0 15 53 6 106
-19 110 -52 199 -135 249 -234 32 -64 47 -123 55 -215 l6 -80 19 60 c15 45 20
87 20 165 -1 118 -16 175 -71 278 -30 56 -32 63 -16 68 52 17 84 32 154 70 77
42 91 52 130 89 61 59 76 132 33 161 -22 14 -29 14 -79 0 -30 -9 -85 -34 -123
-55 -37 -22 -102 -51 -144 -65 -82 -27 -189 -44 -189 -30 0 5 27 17 60 28 146
45 303 183 346 303 28 81 6 176 -51 222 -71 55 -109 34 -118 -65 -16 -172
-183 -356 -370 -406 -51 -13 -51 -13 -61 20 -5 16 -3 22 8 22 8 0 17 4 20 9 9
14 -28 91 -44 91 -12 1 -11 3 3 11 30 17 17 63 -18 64 -10 0 -47 196 -65 345
-5 47 -18 123 -29 170 -10 47 -15 86 -12 87 3 1 27 4 53 8 53 7 108 45 108 76
0 34 -42 51 -107 44 -32 -3 -64 -2 -72 4 -12 8 -34 110 -26 119 1 2 20 -8 40
-23 72 -48 205 -22 290 59 39 37 46 49 60 116 32 157 72 236 160 322 39 37
144 109 178 121 23 8 -1 17 -79 28 -189 26 -389 -39 -533 -175 l-43 -41 16 33
c29 56 142 168 199 195 45 22 137 46 227 60 14 3 88 5 165 5 103 1 164 -3 230
-17z m-1555 -7 c0 -2 -12 -4 -27 -4 -21 0 -24 3 -14 9 13 8 41 5 41 -5z m47
-86 c-3 -8 -6 -5 -6 6 -1 11 2 17 5 13 3 -3 4 -12 1 -19z m340 -50 c-3 -8 -6
-5 -6 6 -1 11 2 17 5 13 3 -3 4 -12 1 -19z m-397 -118 c13 -24 13 -62 -1 -97
l-11 -28 -9 23 c-8 21 -13 23 -49 17 -36 -6 -41 -5 -50 19 -20 54 27 88 84 61
l31 -15 -35 31 -35 30 33 -12 c18 -6 37 -19 42 -29z m197 18 c-3 -8 -6 -5 -6
6 -1 11 2 17 5 13 3 -3 4 -12 1 -19z m-312 -8 c-10 -11 -23 -20 -29 -20 -6 1
0 10 13 20 30 26 39 26 16 0z m322 -57 c-3 -10 -5 -4 -5 12 0 17 2 24 5 18 2
-7 2 -21 0 -30z m-347 -5 c0 -12 7 -30 17 -40 14 -16 14 -18 1 -18 -9 0 -21
14 -27 31 -14 39 -14 49 -1 49 6 0 10 -10 10 -22z m357 -60 c-3 -7 -5 -2 -5
12 0 14 2 19 5 13 2 -7 2 -19 0 -25z m-277 -8 c-20 -13 -33 -13 -25 0 3 6 14
10 23 10 15 0 15 -2 2 -10z m287 -52 c-3 -7 -5 -2 -5 12 0 14 2 19 5 13 2 -7
2 -19 0 -25z m-110 -30 c-3 -8 -6 -5 -6 6 -1 11 2 17 5 13 3 -3 4 -12 1 -19z
m120 -30 c-3 -7 -5 -2 -5 12 0 14 2 19 5 13 2 -7 2 -19 0 -25z m-110 -30 c-3
-7 -5 -2 -5 12 0 14 2 19 5 13 2 -7 2 -19 0 -25z m120 -40 c-3 -7 -5 -2 -5 12
0 14 2 19 5 13 2 -7 2 -19 0 -25z m-110 -30 c-3 -7 -5 -2 -5 12 0 14 2 19 5
13 2 -7 2 -19 0 -25z m120 -30 c-3 -7 -5 -2 -5 12 0 14 2 19 5 13 2 -7 2 -19
0 -25z m-110 -25 c-3 -10 -5 -4 -5 12 0 17 2 24 5 18 2 -7 2 -21 0 -30z m120
-35 c-3 -7 -5 -2 -5 12 0 14 2 19 5 13 2 -7 2 -19 0 -25z m-93 -103 c4 -26 3
-33 -3 -20 -5 11 -11 45 -14 75 -5 42 -4 46 2 20 5 -19 11 -53 15 -75z m423
53 c-3 -7 -5 -2 -5 12 0 14 2 19 5 13 2 -7 2 -19 0 -25z m-550 -10 c-3 -7 -5
-2 -5 12 0 14 2 19 5 13 2 -7 2 -19 0 -25z m230 -10 c-3 -7 -5 -2 -5 12 0 14
2 19 5 13 2 -7 2 -19 0 -25z m-220 -55 c-3 -10 -5 -4 -5 12 0 17 2 24 5 18 2
-7 2 -21 0 -30z m230 -5 c-3 -7 -5 -2 -5 12 0 14 2 19 5 13 2 -7 2 -19 0 -25z
m261 -29 c17 -26 14 -29 -33 -33 -27 -2 -43 3 -56 18 -27 28 -24 34 19 38 48
4 55 2 70 -23z m-248 -23 c0 -30 -3 -34 -32 -39 -41 -6 -47 -2 -41 24 4 12 17
22 34 26 16 3 29 9 29 14 0 5 2 9 5 9 3 0 5 -15 5 -34z m237 -73 c-3 -10 -5
-2 -5 17 0 19 2 27 5 18 2 -10 2 -26 0 -35z m-340 -25 c-3 -8 -6 -5 -6 6 -1
11 2 17 5 13 3 -3 4 -12 1 -19z m440 -20 c-3 -7 -5 -2 -5 12 0 14 2 19 5 13 2
-7 2 -19 0 -25z m-90 -15 c-3 -10 -5 -4 -5 12 0 17 2 24 5 18 2 -7 2 -21 0
-30z m-213 -48 c1 -24 38 -31 79 -16 20 8 27 18 27 38 l1 28 14 -26 c7 -14 30
-34 49 -44 20 -11 40 -31 45 -45 l9 -25 2 30 c1 17 12 -31 26 -105 23 -132 31
-205 13 -125 -5 22 -11 50 -14 62 l-5 22 -46 -22 c-41 -20 -45 -24 -40 -52 15
-85 14 -113 -2 -44 l-17 75 -60 -18 c-54 -17 -63 -17 -104 -3 l-44 15 5 -113
6 -112 -13 85 c-8 47 -14 100 -14 119 -1 25 -5 32 -15 28 -17 -7 -20 1 -36
102 -9 51 -9 80 -2 95 6 11 13 28 15 36 4 10 6 7 6 -6 1 -29 21 -35 66 -21
l37 11 -5 51 c-5 42 -4 46 6 25 6 -14 11 -34 11 -45z m-247 -2 c-3 -10 -5 -2
-5 17 0 19 2 27 5 18 2 -10 2 -26 0 -35z m120 15 c-3 -7 -5 -2 -5 12 0 14 2
19 5 13 2 -7 2 -19 0 -25z m440 10 c-3 -8 -6 -5 -6 6 -1 11 2 17 5 13 3 -3 4
-12 1 -19z m-90 -35 c-3 -10 -5 -4 -5 12 0 17 2 24 5 18 2 -7 2 -21 0 -30z
m-460 -45 c-3 -7 -5 -2 -5 12 0 14 2 19 5 13 2 -7 2 -19 0 -25z m10 -70 c-3
-7 -5 -2 -5 12 0 14 2 19 5 13 2 -7 2 -19 0 -25z m10 -50 c-3 -8 -6 -5 -6 6
-1 11 2 17 5 13 3 -3 4 -12 1 -19z m570 -20 c-3 -8 -6 -5 -6 6 -1 11 2 17 5
13 3 -3 4 -12 1 -19z m-550 -155 c-3 -10 -5 -4 -5 12 0 17 2 24 5 18 2 -7 2
-21 0 -30z m570 15 c-3 -8 -6 -5 -6 6 -1 11 2 17 5 13 3 -3 4 -12 1 -19z m-90
-35 c-3 -10 -5 -4 -5 12 0 17 2 24 5 18 2 -7 2 -21 0 -30z m-230 -15 c-3 -8
-6 -5 -6 6 -1 11 2 17 5 13 3 -3 4 -12 1 -19z m330 0 c-3 -8 -6 -5 -6 6 -1 11
2 17 5 13 3 -3 4 -12 1 -19z m-570 -45 c-3 -10 -5 -2 -5 17 0 19 2 27 5 18 2
-10 2 -26 0 -35z m480 5 c-3 -7 -5 -2 -5 12 0 14 2 19 5 13 2 -7 2 -19 0 -25z
m-110 -20 c-3 -7 -5 -2 -5 12 0 14 2 19 5 13 2 -7 2 -19 0 -25z m-307 -398
c22 -162 50 -356 61 -430 11 -74 22 -153 25 -175 3 -22 7 -51 9 -65 55 -368
105 -734 102 -743 -2 -6 -11 45 -21 114 -10 68 -29 192 -42 274 -28 183 -97
655 -125 860 -56 418 -69 522 -68 540 2 28 13 -40 59 -375z m427 358 c-3 -7
-5 -2 -5 12 0 14 2 19 5 13 2 -7 2 -19 0 -25z m-110 -20 c-3 -7 -5 -2 -5 12 0
14 2 19 5 13 2 -7 2 -19 0 -25z m-240 -25 c-3 -10 -5 -2 -5 17 0 19 2 27 5 18
2 -10 2 -26 0 -35z m120 15 c-3 -8 -6 -5 -6 6 -1 11 2 17 5 13 3 -3 4 -12 1
-19z m240 -30 c-3 -7 -5 -2 -5 12 0 14 2 19 5 13 2 -7 2 -19 0 -25z m-230 -35
c-3 -10 -5 -4 -5 12 0 17 2 24 5 18 2 -7 2 -21 0 -30z m-120 -20 c-3 -10 -5
-4 -5 12 0 17 2 24 5 18 2 -7 2 -21 0 -30z m360 -5 c-3 -7 -5 -2 -5 12 0 14 2
19 5 13 2 -7 2 -19 0 -25z m2049 17 c7 -17 -14 -48 -26 -40 -10 6 0 55 11 55
6 0 12 -7 15 -15z m-2876 -30 c0 -19 -45 -108 -73 -147 -11 -15 -19 -30 -16
-32 7 -7 259 92 316 124 l53 30 0 -27 c0 -16 7 -50 15 -78 9 -27 31 -151 50
-275 19 -124 37 -235 40 -247 5 -20 2 -21 -28 -16 -75 12 -131 -48 -142 -151
-3 -33 -13 -92 -22 -129 -11 -49 -14 -99 -11 -173 3 -58 1 -101 -3 -97 -38 41
-129 157 -129 166 0 5 -3 7 -6 4 -4 -4 -34 18 -67 49 -33 31 -101 87 -151 126
-98 76 -106 88 -126 201 -14 74 -15 300 -2 305 5 1 7 13 5 25 -6 30 41 176 69
216 20 27 195 140 221 141 4 0 7 -7 7 -15z m597 -32 c-3 -10 -5 -2 -5 17 0 19
2 27 5 18 2 -10 2 -26 0 -35z m120 25 c-3 -8 -6 -5 -6 6 -1 11 2 17 5 13 3 -3
4 -12 1 -19z m-240 -30 c-3 -7 -5 -2 -5 12 0 14 2 19 5 13 2 -7 2 -19 0 -25z
m460 -5 c-3 -10 -5 -4 -5 12 0 17 2 24 5 18 2 -7 2 -21 0 -30z m-100 -5 c-3
-7 -5 -2 -5 12 0 14 2 19 5 13 2 -7 2 -19 0 -25z m-230 -55 c-3 -10 -5 -4 -5
12 0 17 2 24 5 18 2 -7 2 -21 0 -30z m240 -5 c-3 -7 -5 -2 -5 12 0 14 2 19 5
13 2 -7 2 -19 0 -25z m100 -5 c-3 -10 -5 -4 -5 12 0 17 2 24 5 18 2 -7 2 -21
0 -30z m-210 -25 c-3 -8 -6 -5 -6 6 -1 11 2 17 5 13 3 -3 4 -12 1 -19z m-77
-255 c9 -40 16 -53 29 -53 10 0 33 -3 51 -7 l33 -6 -5 84 -5 84 10 -67 c11
-74 10 -73 80 -62 31 6 37 11 38 33 1 27 86 -440 94 -519 3 -25 -7 12 -22 82
l-26 127 -46 -6 c-25 -3 -48 -7 -50 -9 -4 -4 106 -694 112 -701 3 -3 29 -2 57
2 41 6 50 10 46 23 -10 31 -58 364 -53 368 2 2 29 -152 61 -342 31 -191 55
-349 52 -351 -2 -2 -7 14 -11 36 -6 38 -9 41 -38 41 -57 0 -77 -10 -78 -39 -2
-25 -2 -25 -6 -2 -5 22 -7 23 -61 17 -32 -4 -71 -12 -87 -17 -26 -10 -35 -8
-66 12 -30 20 -38 32 -43 68 -20 143 -1 164 148 161 67 -1 68 -1 63 22 -3 13
-29 174 -58 358 -29 184 -53 337 -55 338 -1 2 -26 0 -56 -5 -48 -7 -53 -11
-59 -38 l-7 -30 -1 28 c-1 31 -4 31 -66 15 -34 -9 -45 -17 -46 -33 0 -12 -3
-15 -6 -6 -3 7 -14 22 -24 32 -24 24 -35 104 -19 134 8 15 10 44 6 86 -4 44
-3 57 3 43 11 -25 31 -41 31 -25 0 6 9 11 21 11 39 0 61 19 55 48 -12 57 -46
295 -45 316 1 11 9 -28 19 -89 10 -60 24 -134 30 -162z m197 230 c-3 -10 -5
-4 -5 12 0 17 2 24 5 18 2 -7 2 -21 0 -30z m100 -5 c-3 -7 -5 -2 -5 12 0 14 2
19 5 13 2 -7 2 -19 0 -25z m-210 -35 c-3 -10 -5 -4 -5 12 0 17 2 24 5 18 2 -7
2 -21 0 -30z m120 -25 c-3 -7 -5 -2 -5 12 0 14 2 19 5 13 2 -7 2 -19 0 -25z
m-360 -10 c-3 -8 -6 -5 -6 6 -1 11 2 17 5 13 3 -3 4 -12 1 -19z m250 -35 c-3
-10 -5 -2 -5 17 0 19 2 27 5 18 2 -10 2 -26 0 -35z m120 -15 c-3 -8 -6 -5 -6
6 -1 11 2 17 5 13 3 -3 4 -12 1 -19z m-360 -10 c-3 -8 -6 -5 -6 6 -1 11 2 17
5 13 3 -3 4 -12 1 -19z m370 -45 c-3 -10 -5 -4 -5 12 0 17 2 24 5 18 2 -7 2
-21 0 -30z m-350 -115 c-3 -8 -6 -5 -6 6 -1 11 2 17 5 13 3 -3 4 -12 1 -19z
m2182 -32 l45 -13 -60 -38 c-32 -21 -75 -51 -95 -66 -20 -16 -39 -29 -42 -29
-6 0 96 158 103 159 3 0 25 -5 49 -13z m-2002 -348 c-3 -7 -5 -2 -5 12 0 14 2
19 5 13 2 -7 2 -19 0 -25z m-120 -10 c-3 -7 -5 -2 -5 12 0 14 2 19 5 13 2 -7
2 -19 0 -25z m-169 -75 c6 -38 23 -151 38 -253 15 -102 30 -187 33 -190 3 -3
7 -32 8 -65 1 -33 13 -148 26 -255 13 -107 23 -196 22 -197 0 -2 -16 34 -34
80 -48 119 -149 311 -217 411 -104 153 -106 158 -102 266 3 76 9 106 29 150
25 54 29 57 100 88 41 17 77 31 80 32 3 0 11 -30 17 -67z m299 25 c-3 -7 -5
-2 -5 12 0 14 2 19 5 13 2 -7 2 -19 0 -25z m-120 -10 c-3 -7 -5 -2 -5 12 0 14
2 19 5 13 2 -7 2 -19 0 -25z m130 -55 c-3 -10 -5 -4 -5 12 0 17 2 24 5 18 2
-7 2 -21 0 -30z m-120 -10 c-3 -10 -5 -4 -5 12 0 17 2 24 5 18 2 -7 2 -21 0
-30z m380 -20 c-3 -10 -5 -4 -5 12 0 17 2 24 5 18 2 -7 2 -21 0 -30z m-250
-30 c-3 -10 -5 -4 -5 12 0 17 2 24 5 18 2 -7 2 -21 0 -30z m-120 -20 c-3 -10
-5 -4 -5 12 0 17 2 24 5 18 2 -7 2 -21 0 -30z m130 -45 c-3 -7 -5 -2 -5 12 0
14 2 19 5 13 2 -7 2 -19 0 -25z m-27 -612 c17 -114 29 -210 27 -213 -6 -5 -47
213 -47 246 0 16 -4 22 -15 17 -8 -3 -15 -2 -15 2 0 11 -20 135 -25 160 -4 16
-1 22 11 22 14 0 16 7 10 43 -32 219 -46 325 -45 342 1 20 38 -211 99 -619z
m37 552 c-3 -7 -5 -2 -5 12 0 14 2 19 5 13 2 -7 2 -19 0 -25z m370 -20 c-3 -8
-6 -5 -6 6 -1 11 2 17 5 13 3 -3 4 -12 1 -19z m-360 -45 c-3 -10 -5 -4 -5 12
0 17 2 24 5 18 2 -7 2 -21 0 -30z m10 -65 c-3 -7 -5 -2 -5 12 0 14 2 19 5 13
2 -7 2 -19 0 -25z m10 -60 c-3 -7 -5 -2 -5 12 0 14 2 19 5 13 2 -7 2 -19 0
-25z m1277 2 c-10 -16 -20 -27 -22 -25 -5 5 26 55 34 55 3 0 -3 -13 -12 -30z
m-897 -52 c-3 -7 -5 -2 -5 12 0 14 2 19 5 13 2 -7 2 -19 0 -25z m-370 -15 c-3
-10 -5 -4 -5 12 0 17 2 24 5 18 2 -7 2 -21 0 -30z m380 -45 c-3 -7 -5 -2 -5
12 0 14 2 19 5 13 2 -7 2 -19 0 -25z m10 -55 c-3 -10 -5 -4 -5 12 0 17 2 24 5
18 2 -7 2 -21 0 -30z m10 -60 c-3 -10 -5 -4 -5 12 0 17 2 24 5 18 2 -7 2 -21
0 -30z m47 -228 c19 -104 44 -244 56 -310 68 -384 96 -551 140 -820 28 -165
52 -311 55 -325 4 -22 3 -22 -5 -5 -10 23 -99 514 -190 1050 -34 198 -70 412
-80 475 -18 106 -24 160 -15 135 2 -5 20 -95 39 -200z m626 176 c0 -10 -7 -24
-15 -31 -12 -10 -15 -10 -15 3 0 23 11 47 21 47 5 0 9 -8 9 -19z m-1282 -146
c0 -26 -1 -25 -9 10 -4 22 -8 54 -7 70 0 26 1 25 9 -10 4 -22 8 -53 7 -70z
m312 -278 c16 -114 30 -215 29 -225 -2 -37 -90 515 -88 557 2 36 23 -85 59
-332z m87 301 c-3 -7 -5 -2 -5 12 0 14 2 19 5 13 2 -7 2 -19 0 -25z m130 -25
c-3 -10 -5 -4 -5 12 0 17 2 24 5 18 2 -7 2 -21 0 -30z m-120 -35 c-3 -7 -5 -2
-5 12 0 14 2 19 5 13 2 -7 2 -19 0 -25z m130 -20 c-3 -7 -5 -2 -5 12 0 14 2
19 5 13 2 -7 2 -19 0 -25z m-530 -25 c-3 -10 -5 -2 -5 17 0 19 2 27 5 18 2
-10 2 -26 0 -35z m410 -15 c-3 -8 -6 -5 -6 6 -1 11 2 17 5 13 3 -3 4 -12 1
-19z m130 -20 c-3 -8 -6 -5 -6 6 -1 11 2 17 5 13 3 -3 4 -12 1 -19z m-530 -40
c-3 -7 -5 -2 -5 12 0 14 2 19 5 13 2 -7 2 -19 0 -25z m540 -20 c-3 -8 -6 -5
-6 6 -1 11 2 17 5 13 3 -3 4 -12 1 -19z m-530 -35 c-3 -10 -5 -4 -5 12 0 17 2
24 5 18 2 -7 2 -21 0 -30z m410 -15 c-3 -8 -6 -5 -6 6 -1 11 2 17 5 13 3 -3 4
-12 1 -19z m130 -20 c-3 -7 -5 -2 -5 12 0 14 2 19 5 13 2 -7 2 -19 0 -25z
m-530 -35 c-3 -10 -5 -4 -5 12 0 17 2 24 5 18 2 -7 2 -21 0 -30z m410 -10 c-3
-10 -5 -4 -5 12 0 17 2 24 5 18 2 -7 2 -21 0 -30z m130 -15 c-3 -7 -5 -2 -5
12 0 14 2 19 5 13 2 -7 2 -19 0 -25z m-530 -45 c-3 -10 -5 -4 -5 12 0 17 2 24
5 18 2 -7 2 -21 0 -30z m410 -5 c-3 -7 -5 -2 -5 12 0 14 2 19 5 13 2 -7 2 -19
0 -25z m130 -10 c-3 -8 -6 -5 -6 6 -1 11 2 17 5 13 3 -3 4 -12 1 -19z m-530
-50 c-3 -7 -5 -2 -5 12 0 14 2 19 5 13 2 -7 2 -19 0 -25z m410 0 c-3 -7 -5 -2
-5 12 0 14 2 19 5 13 2 -7 2 -19 0 -25z m130 -20 c-3 -7 -5 -2 -5 12 0 14 2
19 5 13 2 -7 2 -19 0 -25z m-530 -30 c-3 -8 -6 -5 -6 6 -1 11 2 17 5 13 3 -3
4 -12 1 -19z m410 -10 c-3 -7 -5 -2 -5 12 0 14 2 19 5 13 2 -7 2 -19 0 -25z
m29 -58 c8 0 14 -7 14 -15 0 -22 20 -18 48 8 14 12 22 16 17 8 -9 -16 16 -35
26 -20 4 7 12 4 23 -6 13 -13 16 -35 15 -108 -1 -51 -4 -80 -6 -64 -4 26 -6
27 -46 21 -23 -4 -50 -10 -61 -14 -31 -11 -78 0 -72 17 4 8 -8 3 -25 -11 -17
-14 -36 -26 -42 -27 -39 -1 -99 -7 -144 -14 l-53 -8 0 54 c0 30 -3 65 -7 79
-6 22 -5 24 10 11 15 -12 17 -11 17 2 0 9 -5 19 -10 22 -20 12 0 23 55 30 30
3 61 13 69 21 8 7 16 9 18 4 4 -14 122 7 127 22 3 10 5 10 9 1 2 -7 10 -13 18
-13z m-429 -12 c-3 -8 -6 -5 -6 6 -1 11 2 17 5 13 3 -3 4 -12 1 -19z m20 -150
c-3 -7 -5 -2 -5 12 0 14 2 19 5 13 2 -7 2 -19 0 -25z m10 -80 c-3 -7 -5 -2 -5
12 0 14 2 19 5 13 2 -7 2 -19 0 -25z m420 -10 c-3 -8 -6 -5 -6 6 -1 11 2 17 5
13 3 -3 4 -12 1 -19z m140 -55 c-3 -10 -5 -2 -5 17 0 19 2 27 5 18 2 -10 2
-26 0 -35z m-550 5 c-3 -7 -5 -2 -5 12 0 14 2 19 5 13 2 -7 2 -19 0 -25z m162
-148 l-1 -25 -8 27 c-4 14 -10 59 -13 100 l-6 73 14 -75 c8 -41 14 -86 14
-100z m-152 88 c-3 -7 -5 -2 -5 12 0 14 2 19 5 13 2 -7 2 -19 0 -25z m571
-133 c0 -11 -6 9 -14 45 -7 36 -13 79 -12 95 0 17 6 -4 14 -45 7 -41 12 -84
12 -95z m-561 63 c-3 -8 -6 -5 -6 6 -1 11 2 17 5 13 3 -3 4 -12 1 -19z m150
-95 c-3 -10 -5 -2 -5 17 0 19 2 27 5 18 2 -10 2 -26 0 -35z m-140 5 c-3 -7 -5
-2 -5 12 0 14 2 19 5 13 2 -7 2 -19 0 -25z m560 -35 c-3 -10 -5 -4 -5 12 0 17
2 24 5 18 2 -7 2 -21 0 -30z m-550 -40 c-3 -10 -5 -2 -5 17 0 19 2 27 5 18 2
-10 2 -26 0 -35z m140 25 c-3 -8 -6 -5 -6 6 -1 11 2 17 5 13 3 -3 4 -12 1 -19z
m420 -40 c-3 -8 -6 -5 -6 6 -1 11 2 17 5 13 3 -3 4 -12 1 -19z m-550 -55 c-3
-10 -5 -2 -5 17 0 19 2 27 5 18 2 -10 2 -26 0 -35z m560 -5 c-3 -8 -6 -5 -6 6
-1 11 2 17 5 13 3 -3 4 -12 1 -19z m10 -60 c-3 -8 -6 -5 -6 6 -1 11 2 17 5 13
3 -3 4 -12 1 -19z m-587 -18 c0 -5 -2 -10 -4 -10 -3 0 -8 5 -11 10 -3 6 -1 10
4 10 6 0 11 -4 11 -10z m634 -37 c17 -62 16 -84 -3 -125 -11 -24 -20 -35 -21
-25 0 14 -9 17 -47 17 -51 0 -67 -6 -76 -30 -4 -12 -6 -11 -6 3 -1 16 -7 18
-58 12 -32 -4 -62 -11 -67 -15 -5 -5 3 -82 18 -177 14 -92 28 -195 31 -228 2
-33 -12 44 -33 170 l-38 230 -37 -1 c-35 -1 -36 0 -30 29 5 23 3 28 -7 22 -10
-6 -12 -1 -6 26 3 18 11 38 18 44 8 7 9 6 4 -2 -10 -19 5 -16 19 3 11 16 37
22 205 48 119 19 128 19 134 -1z m-405 -75 c-5 -18 -10 -78 -10 -133 l-2 -100
-9 63 c-8 50 -13 62 -25 58 -11 -5 -13 -2 -9 10 3 8 6 42 6 75 0 59 0 59 29
59 29 0 29 -1 20 -32z m-64 11 c4 -6 4 -27 0 -47 l-8 -37 -14 34 c-14 34 -12
61 6 61 5 0 13 -5 16 -11z m484 -242 c13 -70 21 -132 19 -139 -4 -10 -48 232
-48 261 0 33 9 -2 29 -122z m-152 76 c-3 -10 -5 -4 -5 12 0 17 2 24 5 18 2 -7
2 -21 0 -30z m270 -25 c-3 -8 -6 -5 -6 6 -1 11 2 17 5 13 3 -3 4 -12 1 -19z
m-260 -40 c-3 -7 -5 -2 -5 12 0 14 2 19 5 13 2 -7 2 -19 0 -25z m-457 -33 c0
-8 -2 -15 -4 -15 -2 0 -6 7 -10 15 -3 8 -1 15 4 15 6 0 10 -7 10 -15z m177
-17 c-3 -7 -5 -2 -5 12 0 14 2 19 5 13 2 -7 2 -19 0 -25z m290 -10 c-3 -7 -5
-2 -5 12 0 14 2 19 5 13 2 -7 2 -19 0 -25z m-280 -60 c-3 -7 -5 -2 -5 12 0 14
2 19 5 13 2 -7 2 -19 0 -25z m290 0 c-3 -7 -5 -2 -5 12 0 14 2 19 5 13 2 -7 2
-19 0 -25z m-280 -65 c-3 -10 -5 -2 -5 17 0 19 2 27 5 18 2 -10 2 -26 0 -35z
m290 0 c-3 -10 -5 -4 -5 12 0 17 2 24 5 18 2 -7 2 -21 0 -30z m161 -128 c0
-11 -6 9 -14 45 -7 36 -13 74 -12 85 0 11 6 -9 14 -45 7 -36 13 -74 12 -85z
m-419 -37 c12 -75 21 -149 20 -165 -1 -24 -47 259 -49 296 -1 43 11 -10 29
-131z m268 105 c-3 -10 -5 -4 -5 12 0 17 2 24 5 18 2 -7 2 -21 0 -30z m470
-70 c-3 -2 -19 3 -36 12 -31 15 -31 16 -14 41 l17 26 19 -37 c10 -20 16 -39
14 -42z m-460 10 c-3 -10 -5 -4 -5 12 0 17 2 24 5 18 2 -7 2 -21 0 -30z m10
-70 c-3 -10 -5 -2 -5 17 0 19 2 27 5 18 2 -10 2 -26 0 -35z m-139 -63 c0 -16
-3 -11 -9 15 -4 22 -8 51 -7 65 0 16 3 11 9 -15 4 -22 8 -51 7 -65z m279 63
c-3 -10 -5 -4 -5 12 0 17 2 24 5 18 2 -7 2 -21 0 -30z m-130 -60 c-3 -10 -5
-4 -5 12 0 17 2 24 5 18 2 -7 2 -21 0 -30z m140 5 c-3 -7 -5 -2 -5 12 0 14 2
19 5 13 2 -7 2 -19 0 -25z m-130 -65 c-3 -10 -5 -4 -5 12 0 17 2 24 5 18 2 -7
2 -21 0 -30z m-150 -10 c-3 -10 -5 -4 -5 12 0 17 2 24 5 18 2 -7 2 -21 0 -30z
m290 15 c-3 -8 -6 -5 -6 6 -1 11 2 17 5 13 3 -3 4 -12 1 -19z m-130 -75 c-3
-10 -5 -2 -5 17 0 19 2 27 5 18 2 -10 2 -26 0 -35z m140 5 c-3 -7 -5 -2 -5 12
0 14 2 19 5 13 2 -7 2 -19 0 -25z m-290 -15 c-3 -10 -5 -4 -5 12 0 17 2 24 5
18 2 -7 2 -21 0 -30z m-140 -10 c-3 -10 -5 -4 -5 12 0 17 2 24 5 18 2 -7 2
-21 0 -30z m300 -40 c-3 -10 -5 -4 -5 12 0 17 2 24 5 18 2 -7 2 -21 0 -30z
m140 5 c-3 -7 -5 -2 -5 12 0 14 2 19 5 13 2 -7 2 -19 0 -25z m-290 -20 c-3 -7
-5 -2 -5 12 0 14 2 19 5 13 2 -7 2 -19 0 -25z m430 10 c-3 -8 -6 -5 -6 6 -1
11 2 17 5 13 3 -3 4 -12 1 -19z m-570 -30 c-3 -7 -5 -2 -5 12 0 14 2 19 5 13
2 -7 2 -19 0 -25z m300 -20 c-3 -7 -5 -2 -5 12 0 14 2 19 5 13 2 -7 2 -19 0
-25z m140 10 c-3 -8 -6 -5 -6 6 -1 11 2 17 5 13 3 -3 4 -12 1 -19z m140 -10
c-3 -8 -6 -5 -6 6 -1 11 2 17 5 13 3 -3 4 -12 1 -19z m-430 -20 c-3 -7 -5 -2
-5 12 0 14 2 19 5 13 2 -7 2 -19 0 -25z m-67 -40 c35 1 66 5 69 10 3 4 37 8
75 9 38 2 72 6 75 10 3 5 22 8 41 9 19 0 62 3 94 5 57 4 59 3 69 -25 7 -22 6
-33 -10 -54 -16 -21 -28 -26 -83 -29 -35 -2 -67 -6 -71 -11 -4 -4 -1 -52 7
-107 22 -149 82 -511 97 -580 l12 -60 35 3 c19 2 48 10 64 18 16 8 42 14 58
14 25 0 28 -3 28 -35 0 -19 1 -38 3 -42 1 -5 -8 -9 -20 -11 -17 -3 -23 -11
-24 -30 l-2 -27 -4 27 c-4 26 -5 26 -66 21 -34 -3 -63 -7 -65 -8 -1 -1 11 -89
28 -194 17 -106 30 -197 28 -203 -2 -6 -12 38 -21 98 -10 59 -27 152 -39 207
-18 82 -24 97 -37 91 -9 -4 -40 -10 -70 -12 l-53 -4 6 -31 c11 -52 44 -268 51
-329 7 -64 7 -64 82 -49 51 10 66 2 61 -35 -3 -32 -1 -31 -178 -57 l-85 -13 1
-29 c0 -17 3 -61 7 -100 5 -58 3 -53 -10 28 -16 95 -17 99 -40 94 -27 -5 -30
-2 -34 38 -3 19 1 30 9 31 6 1 17 2 23 3 8 1 10 24 6 74 l-5 72 11 -69 10 -68
66 6 c36 4 67 9 70 11 7 8 -49 366 -63 399 -13 30 -14 31 -69 28 l-57 -4 -1
-41 -1 -42 -11 43 c-8 35 -14 42 -33 42 -15 0 -24 6 -24 16 0 11 6 15 20 11
25 -6 26 15 6 128 -8 44 -17 112 -20 150 -3 39 7 -4 22 -94 15 -90 32 -166 38
-168 5 -2 35 0 65 5 44 6 54 11 52 26 -1 11 -4 51 -7 90 -4 63 -4 65 4 21 5
-27 12 -65 15 -82 l6 -33 69 0 c60 0 70 3 70 18 0 17 -112 735 -115 740 -1 1
-34 -3 -74 -9 -58 -10 -71 -15 -67 -28 7 -22 17 -118 12 -106 -3 6 -10 36 -16
68 -9 44 -15 57 -29 57 -10 0 -24 7 -31 15 -9 11 -16 13 -24 5 -5 -5 -21 -10
-34 -10 -22 0 -24 -3 -19 -32 3 -18 8 -55 11 -83 4 -39 2 -33 -11 25 -9 41
-18 70 -20 63 -3 -7 -11 -9 -19 -6 -7 3 -11 9 -8 14 3 5 -1 9 -9 9 -13 0 -27
28 -27 57 0 6 12 13 28 15 25 3 27 6 25 43 -1 36 -1 37 5 10 8 -30 8 -30 72
-27z m400 -163 c40 -229 50 -292 49 -310 -1 -11 -7 14 -15 55 -46 253 -60 340
-54 333 4 -4 13 -39 20 -78z m280 -71 c68 -18 160 -18 226 -1 l51 13 29 -45
c62 -98 213 -239 327 -305 116 -66 183 -83 582 -146 609 -97 778 -142 1080
-290 157 -77 345 -190 345 -208 0 -5 -23 -12 -50 -15 -48 -6 -54 -4 -146 54
-342 216 -752 361 -1156 409 -123 15 -340 13 -568 -4 -457 -35 -514 -37 -585
-27 -118 18 -130 23 -133 58 -2 18 -9 36 -16 42 -9 7 -12 27 -9 59 3 32 -3 77
-21 140 -15 52 -24 102 -21 112 3 10 -1 51 -10 91 -19 92 -19 93 3 84 9 -3 42
-13 72 -21z m-563 -41 c-3 -10 -5 -4 -5 12 0 17 2 24 5 18 2 -7 2 -21 0 -30z
m440 -5 c-3 -8 -6 -5 -6 6 -1 11 2 17 5 13 3 -3 4 -12 1 -19z m-580 -20 c-3
-7 -5 -2 -5 12 0 14 2 19 5 13 2 -7 2 -19 0 -25z m150 -35 c-3 -10 -5 -4 -5
12 0 17 2 24 5 18 2 -7 2 -21 0 -30z m440 -5 c-3 -7 -5 -2 -5 12 0 14 2 19 5
13 2 -7 2 -19 0 -25z m-580 -20 c-3 -8 -6 -5 -6 6 -1 11 2 17 5 13 3 -3 4 -12
1 -19z m150 -35 c-3 -10 -5 -4 -5 12 0 17 2 24 5 18 2 -7 2 -21 0 -30z m440
-5 c-3 -8 -6 -5 -6 6 -1 11 2 17 5 13 3 -3 4 -12 1 -19z m-580 -50 c-3 -8 -6
-5 -6 6 -1 11 2 17 5 13 3 -3 4 -12 1 -19z m150 -10 c-3 -7 -5 -2 -5 12 0 14
2 19 5 13 2 -7 2 -19 0 -25z m-1487 -18 c8 -5 11 -10 5 -10 -5 0 -17 5 -25 10
-8 5 -10 10 -5 10 6 0 17 -5 25 -10z m1347 -37 c-3 -10 -5 -4 -5 12 0 17 2 24
5 18 2 -7 2 -21 0 -30z m150 -10 c-3 -10 -5 -4 -5 12 0 17 2 24 5 18 2 -7 2
-21 0 -30z m300 5 c-3 -8 -6 -5 -6 6 -1 11 2 17 5 13 3 -3 4 -12 1 -19z
m-1839 -33 c0 -19 -4 -35 -9 -35 -10 0 -12 31 -3 54 9 24 12 20 12 -19z m-38
7 c0 -10 -22 -32 -32 -32 -5 0 -3 9 4 20 13 20 28 27 28 12z m1587 -39 c-3
-10 -5 -4 -5 12 0 17 2 24 5 18 2 -7 2 -21 0 -30z m300 5 c-3 -8 -6 -5 -6 6
-1 11 2 17 5 13 3 -3 4 -12 1 -19z m-290 -75 c-3 -10 -5 -4 -5 12 0 17 2 24 5
18 2 -7 2 -21 0 -30z m320 -115 c-3 -8 -6 -5 -6 6 -1 11 2 17 5 13 3 -3 4 -12
1 -19z m-1781 -263 c24 -99 57 -213 73 -252 16 -40 27 -73 25 -73 -2 0 -16 19
-31 43 -14 23 -36 58 -49 77 -12 19 -30 62 -39 95 -10 33 -24 73 -32 88 -14
26 -32 181 -32 267 l0 35 20 -50 c12 -27 41 -131 65 -230z m1931 243 c-3 -8
-6 -5 -6 6 -1 11 2 17 5 13 3 -3 4 -12 1 -19z m10 -60 c-3 -8 -6 -5 -6 6 -1
11 2 17 5 13 3 -3 4 -12 1 -19z m10 -55 c-3 -10 -5 -4 -5 12 0 17 2 24 5 18 2
-7 2 -21 0 -30z m3472 10 c-1 -10 -4 -29 -8 -42 l-7 -24 -17 26 c-22 33 -21
44 1 50 30 8 32 7 31 -10z m-3989 -39 c0 -2 -9 -4 -21 -4 -11 0 -18 4 -14 10
5 8 35 3 35 -6z m-100 -4 c0 -5 -7 -10 -16 -10 -8 0 -12 5 -9 10 3 6 10 10 16
10 5 0 9 -4 9 -10z m477 -22 c-3 -8 -6 -5 -6 6 -1 11 2 17 5 13 3 -3 4 -12 1
-19z m169 -93 c8 -48 13 -92 11 -98 -2 -6 -9 24 -16 68 -7 44 -15 91 -18 105
-3 14 -3 22 1 19 4 -3 13 -46 22 -94z m139 48 c71 -14 123 -14 460 -3 391 13
787 9 840 -8 18 -6 23 -11 12 -11 -33 -2 -95 -40 -131 -82 l-35 -42 -73 7
c-76 7 -320 -7 -448 -25 -125 -17 -294 -58 -437 -105 -98 -31 -140 -41 -149
-33 -7 5 -30 11 -52 12 -39 1 -40 2 -62 64 -14 41 -20 72 -15 92 4 17 0 56 -9
91 -20 76 -20 74 2 65 9 -4 53 -14 97 -22z m-298 -15 c-3 -8 -6 -5 -6 6 -1 11
2 17 5 13 3 -3 4 -12 1 -19z m1943 -68 c63 -18 165 -51 225 -75 120 -46 305
-134 305 -144 0 -9 -86 -51 -103 -51 -7 0 -67 20 -133 44 -65 24 -155 54 -200
66 -69 19 -83 27 -104 56 -12 19 -50 60 -83 91 -34 30 -52 53 -41 50 10 -3 71
-20 134 -37z m-1933 -2 c-3 -7 -5 -2 -5 12 0 14 2 19 5 13 2 -7 2 -19 0 -25z
m10 -55 c-3 -10 -5 -4 -5 12 0 17 2 24 5 18 2 -7 2 -21 0 -30z m-450 -55 c-3
-7 -5 -2 -5 12 0 14 2 19 5 13 2 -7 2 -19 0 -25z m471 -38 l0 -25 -8 25 c-4
14 -8 36 -8 50 l0 25 8 -25 c4 -14 8 -36 8 -50z m139 33 c-3 -10 -5 -4 -5 12
0 17 2 24 5 18 2 -7 2 -21 0 -30z m1658 -13 c3 -5 1 -10 -4 -10 -6 0 -11 5
-11 10 0 6 2 10 4 10 3 0 8 -4 11 -10z m-1648 -47 c-3 -10 -5 -4 -5 12 0 17 2
24 5 18 2 -7 2 -21 0 -30z m1743 -75 c50 -95 83 -190 104 -295 18 -93 27 -255
15 -274 -6 -10 -9 -4 -9 19 0 35 -98 403 -130 487 -10 28 -28 70 -39 95 -11
25 -21 54 -21 64 0 18 1 18 19 2 11 -10 38 -54 61 -98z m-1824 35 c10 -39 -23
-55 -122 -58 l-84 -3 1 31 c1 18 3 24 6 15 2 -10 9 -18 14 -18 6 0 8 8 4 19
-5 16 2 19 47 24 28 4 55 10 60 15 5 5 22 6 38 4 22 -3 32 -11 36 -29z m91
-20 c-3 -10 -5 -4 -5 12 0 17 2 24 5 18 2 -7 2 -21 0 -30z m10 -60 c-3 -10 -5
-4 -5 12 0 17 2 24 5 18 2 -7 2 -21 0 -30z m-290 -30 c-3 -10 -5 -4 -5 12 0
17 2 24 5 18 2 -7 2 -21 0 -30z m150 5 c-3 -8 -6 -5 -6 6 -1 11 2 17 5 13 3
-3 4 -12 1 -19z m150 -30 c-3 -7 -5 -2 -5 12 0 14 2 19 5 13 2 -7 2 -19 0 -25z
m-460 -15 c-3 -10 -5 -4 -5 12 0 17 2 24 5 18 2 -7 2 -21 0 -30z m170 -20 c-3
-10 -5 -4 -5 12 0 17 2 24 5 18 2 -7 2 -21 0 -30z m-160 -40 c-3 -10 -5 -4 -5
12 0 17 2 24 5 18 2 -7 2 -21 0 -30z m460 15 c-3 -8 -6 -5 -6 6 -1 11 2 17 5
13 3 -3 4 -12 1 -19z m-290 -40 c-3 -7 -5 -2 -5 12 0 14 2 19 5 13 2 -7 2 -19
0 -25z m1448 -75 c-9 -96 -19 -126 -42 -121 -25 5 -148 161 -132 167 30 10
126 28 152 30 l29 1 -7 -77z m-1608 30 c-3 -10 -5 -4 -5 12 0 17 2 24 5 18 2
-7 2 -21 0 -30z m891 10 c-7 -16 -38 -55 -69 -88 -82 -88 -148 -199 -206 -345
l-10 -25 -12 23 c-14 27 -51 230 -51 283 0 36 1 36 93 79 78 37 236 97 259 99
4 1 2 -11 -4 -26z m-721 -25 c-3 -7 -5 -2 -5 12 0 14 2 19 5 13 2 -7 2 -19 0
-25z m2163 12 c0 -5 -2 -10 -4 -10 -3 0 -8 5 -11 10 -3 6 -1 10 4 10 6 0 11
-4 11 -10z m-2323 -57 c-3 -10 -5 -4 -5 12 0 17 2 24 5 18 2 -7 2 -21 0 -30z
m-150 -20 c-3 -10 -5 -4 -5 12 0 17 2 24 5 18 2 -7 2 -21 0 -30z m320 0 c-3
-10 -5 -4 -5 12 0 17 2 24 5 18 2 -7 2 -21 0 -30z m300 -5 c-3 -7 -5 -2 -5 12
0 14 2 19 5 13 2 -7 2 -19 0 -25z m-460 -35 c-3 -10 -5 -4 -5 12 0 17 2 24 5
18 2 -7 2 -21 0 -30z m470 -15 c-3 -7 -5 -2 -5 12 0 14 2 19 5 13 2 -7 2 -19
0 -25z m-222 -28 c64 0 73 2 70 18 -1 9 0 11 2 3 3 -9 14 -11 34 -7 16 3 29 4
29 2 0 -3 3 -11 6 -19 4 -11 -4 -17 -25 -22 -19 -4 -31 -13 -32 -23 -1 -14 -2
-14 -6 1 -4 14 -11 17 -31 13 -15 -3 -44 -8 -64 -12 -34 -6 -38 -10 -39 -38
-2 -30 -2 -30 -6 -3 -4 22 -9 27 -32 27 -16 0 -37 10 -51 25 l-23 25 25 0 c42
0 58 10 59 39 l2 26 4 -27 c4 -28 5 -28 78 -28z m-398 8 c-3 -7 -5 -2 -5 12 0
14 2 19 5 13 2 -7 2 -19 0 -25z m160 -35 c-3 -10 -5 -4 -5 12 0 17 2 24 5 18
2 -7 2 -21 0 -30z m470 5 c-3 -8 -6 -5 -6 6 -1 11 2 17 5 13 3 -3 4 -12 1 -19z
m-548 -15 c34 3 61 1 61 -4 0 -5 7 -9 15 -9 10 0 15 -9 14 -27 -1 -17 -3 -21
-6 -10 -2 9 -10 17 -17 17 -25 0 -121 -33 -128 -44 -6 -8 -8 -8 -8 1 0 9 -10
11 -30 7 -25 -5 -30 -3 -30 12 0 23 52 75 62 61 3 -6 31 -8 67 -4z m2885 -30
c280 -168 537 -412 728 -692 32 -47 56 -86 55 -88 -2 -1 -43 13 -91 33 -439
179 -947 29 -1198 -352 -53 -81 -113 -205 -130 -269 -23 -86 -31 -48 -26 128
5 163 8 182 51 352 25 99 59 248 75 330 l29 150 34 16 c19 9 75 27 124 40 79
21 112 24 265 23 96 -1 197 -6 225 -12 27 -6 52 -9 54 -7 2 3 -27 36 -65 76
-73 76 -198 174 -276 218 -26 14 -48 29 -48 33 0 11 92 57 114 58 10 0 46 -17
80 -37z m-3117 -30 c-3 -10 -5 -4 -5 12 0 17 2 24 5 18 2 -7 2 -21 0 -30z
m820 15 c-3 -8 -6 -5 -6 6 -1 11 2 17 5 13 3 -3 4 -12 1 -19z m-180 -30 c-3
-8 -6 -5 -6 6 -1 11 2 17 5 13 3 -3 4 -12 1 -19z m626 -9 c12 -12 42 -30 66
-41 44 -20 83 -20 158 -2 26 7 25 4 -19 -46 -25 -29 -59 -79 -75 -111 -27 -55
-30 -58 -78 -68 -53 -12 -203 -17 -212 -7 -22 21 102 296 133 296 3 0 15 -10
27 -21z m-936 -26 c-3 -10 -5 -4 -5 12 0 17 2 24 5 18 2 -7 2 -21 0 -30z m170
-20 c-3 -10 -5 -2 -5 17 0 19 2 27 5 18 2 -10 2 -26 0 -35z m-490 5 c-3 -7 -5
-2 -5 12 0 14 2 19 5 13 2 -7 2 -19 0 -25z m203 -211 c12 -81 20 -153 18 -159
-5 -13 -46 252 -53 337 -4 56 -4 57 4 15 5 -25 19 -112 31 -193z m437 196 c-3
-10 -5 -4 -5 12 0 17 2 24 5 18 2 -7 2 -21 0 -30z m160 -5 c-3 -8 -6 -5 -6 6
-1 11 2 17 5 13 3 -3 4 -12 1 -19z m-470 -35 c-3 -10 -5 -2 -5 17 0 19 2 27 5
18 2 -10 2 -26 0 -35z m170 -10 c-3 -10 -5 -4 -5 12 0 17 2 24 5 18 2 -7 2
-21 0 -30z m-490 5 c-3 -8 -6 -5 -6 6 -1 11 2 17 5 13 3 -3 4 -12 1 -19z m640
-10 c-3 -7 -5 -2 -5 12 0 14 2 19 5 13 2 -7 2 -19 0 -25z m160 -15 c-3 -10 -5
-4 -5 12 0 17 2 24 5 18 2 -7 2 -21 0 -30z m-470 -30 c-3 -10 -5 -4 -5 12 0
17 2 24 5 18 2 -7 2 -21 0 -30z m170 -10 c-3 -10 -5 -4 -5 12 0 17 2 24 5 18
2 -7 2 -21 0 -30z m343 27 c0 -5 -4 -10 -10 -10 -5 0 -10 5 -10 10 0 6 5 10
10 10 6 0 10 -4 10 -10z m-193 -32 c-3 -7 -5 -2 -5 12 0 14 2 19 5 13 2 -7 2
-19 0 -25z m160 -10 c-3 -7 -5 -2 -5 12 0 14 2 19 5 13 2 -7 2 -19 0 -25z
m-470 -35 c-3 -10 -5 -4 -5 12 0 17 2 24 5 18 2 -7 2 -21 0 -30z m170 -10 c-3
-10 -5 -4 -5 12 0 17 2 24 5 18 2 -7 2 -21 0 -30z m161 -43 c0 -22 -1 -22 -8
5 -4 17 -8 41 -8 55 0 22 1 22 8 -5 4 -16 8 -41 8 -55z m-651 38 c-3 -8 -6 -5
-6 6 -1 11 2 17 5 13 3 -3 4 -12 1 -19z m330 -45 c-3 -10 -5 -4 -5 12 0 17 2
24 5 18 2 -7 2 -21 0 -30z m3821 -144 c104 -219 117 -254 102 -289 l-13 -31
-48 104 c-52 114 -132 266 -161 309 -19 28 -18 38 10 71 14 16 16 15 33 -12 9
-16 44 -84 77 -152z m-4168 143 c0 -15 -2 -15 -10 -2 -13 20 -13 33 0 25 6 -3
10 -14 10 -23z m517 -19 c-3 -10 -5 -4 -5 12 0 17 2 24 5 18 2 -7 2 -21 0 -30z
m-490 -25 c-2 -13 -4 -5 -4 17 -1 22 1 32 4 23 2 -10 2 -28 0 -40z m650 -10
c-3 -7 -5 -2 -5 12 0 14 2 19 5 13 2 -7 2 -19 0 -25z m-320 0 c-3 -8 -6 -5 -6
6 -1 11 2 17 5 13 3 -3 4 -12 1 -19z m513 7 c0 -8 -4 -15 -10 -15 -5 0 -10 7
-10 15 0 8 5 15 10 15 6 0 10 -7 10 -15z m-343 -32 c-3 -10 -5 -4 -5 12 0 17
2 24 5 18 2 -7 2 -21 0 -30z m-490 -40 c-3 -10 -5 -2 -5 17 0 19 2 27 5 18 2
-10 2 -26 0 -35z m650 10 c-3 -10 -5 -4 -5 12 0 17 2 24 5 18 2 -7 2 -21 0
-30z m3407 -186 c21 -37 36 -67 34 -67 -3 0 -26 35 -53 78 -26 42 -66 100 -87
129 -22 29 -37 57 -33 63 7 12 71 -81 139 -203z m-3557 146 c-3 -10 -5 -2 -5
17 0 19 2 27 5 18 2 -10 2 -26 0 -35z m160 -20 c-3 -10 -5 -4 -5 12 0 17 2 24
5 18 2 -7 2 -21 0 -30z m-480 -20 c-3 -10 -5 -4 -5 12 0 17 2 24 5 18 2 -7 2
-21 0 -30z m160 -5 c-3 -7 -5 -2 -5 12 0 14 2 19 5 13 2 -7 2 -19 0 -25z m170
-15 c-3 -10 -5 -4 -5 12 0 17 2 24 5 18 2 -7 2 -21 0 -30z m160 -25 c-3 -7 -5
-2 -5 12 0 14 2 19 5 13 2 -7 2 -19 0 -25z m-150 -35 c-3 -10 -5 -4 -5 12 0
17 2 24 5 18 2 -7 2 -21 0 -30z m-330 5 c-3 -8 -6 -5 -6 6 -1 11 2 17 5 13 3
-3 4 -12 1 -19z m10 -60 c-3 -8 -6 -5 -6 6 -1 11 2 17 5 13 3 -3 4 -12 1 -19z
m-6277 -228 c0 -5 -4 -10 -10 -10 -5 0 -10 5 -10 10 0 6 5 10 10 10 6 0 10 -4
10 -10z m10437 -226 c33 -132 35 -144 26 -144 -8 0 -74 204 -73 228 0 8 6 12
12 10 7 -3 23 -45 35 -94z m-812 -141 c123 -47 255 -122 266 -151 14 -37 10
-154 -7 -212 -45 -152 -134 -269 -244 -323 -30 -15 -100 -38 -155 -52 -69 -18
-107 -33 -124 -50 l-25 -24 19 -41 c47 -105 206 -180 382 -180 155 0 303 66
443 197 l77 72 6 -77 c3 -42 16 -108 28 -147 19 -62 21 -84 15 -185 -33 -591
-259 -1214 -614 -1688 -30 -40 -56 -71 -58 -69 -2 2 22 60 55 128 66 138 119
294 151 444 17 78 23 147 27 310 5 186 3 225 -17 340 -24 144 -84 338 -126
412 -99 172 -253 293 -439 344 -103 28 -253 23 -328 -10 -27 -11 -53 -21 -57
-21 -5 0 -29 30 -54 68 -266 396 -250 367 -242 447 14 140 76 300 161 421 39
55 48 61 95 72 131 30 270 6 377 -65 70 -46 77 -58 118 -187 19 -60 40 -115
46 -122 22 -27 76 -17 115 22 95 96 90 221 -14 336 l-37 41 35 -8 c19 -4 76
-23 125 -42z m800 -39 c4 -25 3 -24 -8 6 -8 19 -17 46 -20 60 -5 19 -3 17 8
-6 7 -17 16 -44 20 -60z m110 -491 c-3 -13 -10 -21 -15 -18 -14 9 -12 52 2 78
13 22 13 21 16 -7 2 -15 1 -39 -3 -53z m-1215 -1288 c0 -8 -4 -15 -10 -15 -5
0 -7 7 -4 15 4 8 8 15 10 15 2 0 4 -7 4 -15z m-4706 -197 c-5 -42 -14 -61 -42
-90 -20 -21 -40 -38 -45 -38 -7 0 83 180 91 180 1 0 0 -24 -4 -52z m1392 -368
c24 -178 74 -313 169 -455 357 -537 1047 -764 1680 -554 160 53 336 150 457
251 46 38 49 39 85 27 l37 -12 -49 -44 c-101 -89 -276 -193 -425 -251 -30 -12
-101 -33 -158 -46 -547 -131 -1061 -26 -1386 284 -224 214 -389 494 -457 775
-25 106 -25 108 11 87 24 -14 31 -26 36 -62z m2854 -132 c0 -6 -20 -54 -45
-106 -38 -80 -43 -97 -31 -104 8 -5 21 -14 28 -21 7 -6 46 -38 86 -70 80 -64
191 -188 217 -243 9 -19 15 -51 13 -72 -4 -55 -49 -74 -170 -73 -154 0 -261
18 -418 70 -302 101 -480 209 -546 332 -14 25 -19 56 -19 116 0 73 3 84 25
108 79 85 246 101 419 41 40 -14 123 -52 185 -84 l113 -59 52 99 c47 88 54 97
72 88 10 -6 19 -16 19 -22z"/>
<path d="M7030 17096 c0 -8 5 -18 10 -21 13 -8 42 14 34 26 -9 15 -44 10 -44
-5z"/>
<path d="M7021 16729 c16 -18 32 -29 36 -26 10 11 -27 57 -46 57 -16 0 -15 -4
10 -31z"/>
<path d="M6920 15982 c0 -5 7 -15 15 -22 8 -7 15 -8 15 -2 0 5 -7 15 -15 22
-8 7 -15 8 -15 2z"/>
<path d="M6867 15966 c-3 -8 0 -22 8 -33 13 -17 14 -17 20 0 8 20 0 47 -14 47
-5 0 -11 -6 -14 -14z"/>
<path d="M7890 14213 c0 -11 6 -28 14 -39 13 -17 15 -18 21 -2 10 26 2 52 -18
56 -11 2 -17 -3 -17 -15z"/>
<path d="M7944 14185 c-15 -23 -15 -27 0 -51 12 -17 25 -24 39 -22 33 5 27 32
-8 38 -28 6 -29 7 -7 14 25 8 31 46 7 46 -8 0 -22 -11 -31 -25z"/>
<path d="M7845 14180 c-10 -16 4 -30 31 -30 26 0 31 9 12 28 -15 15 -35 16
-43 2z"/>
<path d="M7918 14105 c3 -36 8 -45 23 -45 10 0 19 4 19 10 0 12 -34 79 -40 80
-3 0 -4 -20 -2 -45z"/>
<path d="M7860 14115 c-22 -26 4 -43 30 -20 11 10 20 22 20 27 0 14 -37 9 -50
-7z"/>
<path d="M7844 13987 c-8 -21 15 -62 28 -49 13 13 6 54 -9 60 -7 2 -16 -3 -19
-11z"/>
<path d="M7902 13968 c-7 -7 -12 -18 -12 -25 0 -24 -28 -25 -50 -3 -23 23 -43
22 -48 -2 -2 -11 9 -19 35 -25 34 -8 38 -12 41 -43 4 -42 12 -52 32 -40 13 8
12 14 -4 45 -11 19 -17 36 -15 38 2 1 16 9 32 17 15 7 27 22 27 32 0 21 -20
24 -38 6z"/>
<path d="M7706 13903 c-17 -34 -6 -68 24 -78 24 -8 46 7 36 24 -4 6 -19 11
-33 11 l-25 0 23 18 c14 12 20 25 16 35 -9 25 -25 21 -41 -10z"/>
<path d="M7901 13911 c-11 -7 -8 -12 12 -26 27 -17 47 -13 47 10 0 21 -35 31
-59 16z"/>
<path d="M7813 13893 c-17 -6 -17 -43 0 -43 14 0 47 31 47 43 0 8 -29 8 -47 0z"/>
<path d="M6760 15184 c0 -31 23 -28 28 4 2 15 -2 22 -12 22 -11 0 -16 -9 -16
-26z"/>
<path d="M7403 14293 c2 -18 0 -33 -5 -33 -4 0 -8 -4 -8 -10 0 -5 9 -10 20
-10 17 0 19 4 14 28 -11 45 -26 62 -21 25z"/>
<path d="M6825 13534 c-60 -31 -88 -80 -100 -174 -3 -30 -18 -89 -33 -130 -23
-66 -26 -90 -26 -200 0 -93 5 -135 17 -165 l17 -40 -8 40 c-22 123 -1 255 56
350 25 43 32 47 107 71 116 37 135 56 135 141 0 55 -17 86 -60 108 -37 19 -67
19 -105 -1z"/>
<path d="M7360 12294 c0 -19 4 -33 8 -30 8 5 4 66 -4 66 -2 0 -4 -16 -4 -36z"/>
<path d="M9874 4015 c-3 -14 -13 -29 -22 -34 -23 -13 30 -45 62 -37 35 9 38
31 8 66 -32 37 -40 37 -48 5z"/>
<path d="M10242 3997 c-21 -26 -96 -185 -107 -229 l-13 -46 29 10 c33 11 37
23 13 36 -14 8 -14 13 5 48 15 29 20 34 21 18 0 -27 10 -36 26 -23 9 8 11 6 8
-8 -4 -14 4 -21 38 -31 24 -7 52 -10 61 -6 13 4 17 1 17 -15 0 -17 -6 -21 -31
-21 -17 0 -28 -4 -24 -10 3 -5 -4 -10 -16 -10 -18 0 -19 2 -9 15 8 10 9 15 2
15 -6 0 -9 7 -6 15 4 8 2 15 -4 15 -5 0 -12 -9 -15 -20 -3 -12 -14 -20 -27
-20 -13 0 -19 -4 -14 -11 4 -7 -3 -10 -17 -9 -13 1 -31 2 -39 1 -22 -1 80 -71
103 -71 11 0 28 -7 37 -15 17 -16 37 4 177 172 18 22 18 22 53 3 35 -18 35
-18 11 -28 -22 -8 -23 -9 -5 -16 10 -4 77 -39 147 -78 70 -39 130 -68 133 -65
9 8 -59 59 -116 86 -30 15 -55 33 -55 41 0 10 -13 17 -35 20 -19 3 -35 11 -35
18 0 16 -56 53 -68 45 -8 -5 0 56 8 65 6 6 90 -41 140 -78 57 -42 152 -142
168 -177 7 -16 6 -27 -3 -38 -20 -24 -4 -29 19 -6 l20 20 -43 58 c-75 101
-172 184 -285 242 -56 29 -109 50 -117 47 -10 -4 -12 -2 -8 5 4 7 1 10 -7 7
-13 -5 -74 13 -111 32 -10 6 -20 5 -26 -3z m44 -22 c16 -8 22 -15 13 -15 -8 0
-24 7 -35 15 -25 19 -14 19 22 0z m96 -80 c3 -14 1 -28 -3 -31 -5 -3 -9 9 -9
25 0 38 6 40 12 6z m-84 4 c-23 -13 -23 -25 1 -32 19 -5 19 -6 3 -40 -15 -32
-18 -34 -30 -19 -7 10 -8 20 -3 25 5 5 7 24 4 41 -4 28 -2 32 19 33 20 2 21 1
6 -8z m86 -116 c-9 -7 -20 -10 -25 -8 -11 7 1 48 20 63 14 11 16 9 19 -14 3
-18 -3 -33 -14 -41z"/>
<path d="M10430 3710 c0 -6 7 -10 15 -10 8 0 15 2 15 4 0 2 -7 6 -15 10 -8 3
-15 1 -15 -4z"/>
<path d="M10442 3685 c4 -5 3 -14 -4 -22 -15 -18 -9 -22 45 -29 57 -8 61 5 10
31 -50 26 -59 29 -51 20z"/>
<path d="M10163 3640 c41 -26 126 -59 121 -47 -3 8 -28 22 -57 32 -73 26 -85
29 -64 15z"/>
<path d="M10674 3567 c11 -7 30 -22 42 -35 14 -14 25 -19 29 -12 3 6 11 7 18
3 7 -4 4 -9 -9 -14 -29 -12 -44 -10 -41 3 1 8 -7 12 -24 10 -14 -2 -44 1 -67
6 -28 7 -42 7 -42 0 0 -16 -95 -2 -158 22 -29 11 -62 20 -75 20 -33 -1 126
-58 209 -75 87 -18 183 -19 218 -4 28 13 43 39 22 39 -7 0 -19 7 -26 15 -14
17 -35 21 -25 5 9 -15 -1 -12 -37 10 -18 11 -37 20 -43 19 -5 0 -1 -6 9 -12z"/>
<path d="M10875 3540 c4 -11 2 -20 -4 -20 -19 0 -12 -28 10 -44 22 -15 48 -11
61 8 12 18 9 36 -6 36 -8 0 -18 9 -21 20 -4 11 -15 20 -26 20 -16 0 -19 -5
-14 -20z"/>
<path d="M10018 12899 c-78 -11 -161 -36 -238 -71 l-65 -29 105 -33 c136 -41
236 -95 322 -175 106 -98 144 -158 235 -371 49 -113 178 -180 350 -180 93 0
141 15 186 58 136 130 116 353 -46 515 -221 222 -545 331 -849 286z"/>
<path d="M11437 12193 c-6 -113 -22 -173 -72 -273 -27 -53 -132 -166 -223
-240 -53 -43 -71 -90 -72 -186 -1 -168 76 -264 212 -264 196 0 358 253 358
556 0 57 -5 127 -11 156 -16 78 -66 194 -115 269 -70 106 -70 105 -77 -18z"/>
<path d="M10624 11206 c-4 -9 -3 -29 1 -44 12 -51 12 -95 -2 -134 -16 -46 -4
-71 31 -66 27 4 32 39 12 80 -13 25 -14 33 -4 39 10 6 10 11 1 20 -9 9 -8 17
3 35 22 33 15 78 -14 82 -13 2 -25 -3 -28 -12z"/>
<path d="M10545 11167 c-37 -28 -1 -66 63 -67 26 0 27 8 4 35 -32 39 -47 46
-67 32z"/>
<path d="M10693 11150 c-13 -15 -23 -33 -23 -39 0 -23 74 -5 92 22 10 16 -10
47 -30 46 -9 0 -27 -13 -39 -29z"/>
<path d="M10560 11077 c-29 -15 -38 -52 -15 -61 19 -7 43 4 69 32 32 37 -2 55
-54 29z"/>
<path d="M10670 11071 c0 -14 61 -62 73 -58 22 7 31 35 18 51 -14 17 -91 23
-91 7z"/>
<path d="M11302 11028 c-40 -40 15 -138 88 -158 74 -20 170 23 205 90 22 42
18 57 -6 26 -29 -37 -70 -56 -120 -56 -38 0 -48 6 -96 55 -30 30 -55 55 -57
55 -1 0 -7 -5 -14 -12z"/>
<path d="M10773 10903 c-17 -6 -16 -64 0 -88 8 -10 19 -15 25 -11 18 11 26 74
12 91 -13 16 -17 17 -37 8z"/>
<path d="M11057 10874 c-11 -12 -8 -47 7 -76 9 -16 11 -30 5 -33 -16 -10 -10
-25 10 -25 13 0 18 8 19 28 1 15 3 45 4 67 3 34 0 40 -17 43 -12 2 -24 0 -28
-4z"/>
<path d="M10682 10848 c-7 -7 -12 -18 -12 -24 0 -19 41 -44 71 -44 35 0 41
-20 22 -69 -13 -33 -13 -43 -3 -56 16 -19 34 -19 51 1 11 13 11 23 -2 58 -17
48 -13 57 40 71 38 11 57 34 48 59 -11 28 -45 18 -69 -19 -13 -19 -29 -35 -36
-35 -7 0 -28 16 -46 35 -36 38 -46 41 -64 23z"/>
<path d="M10977 10829 c-38 -22 0 -69 55 -69 32 0 34 7 12 38 -21 31 -46 42
-67 31z"/>
<path d="M11126 10809 c-31 -37 -33 -49 -6 -49 50 0 91 39 69 66 -18 21 -35
17 -63 -17z"/>
<path d="M10693 10760 c-26 -11 -30 -42 -8 -60 12 -10 21 -8 51 15 19 15 33
32 31 38 -5 15 -46 19 -74 7z"/>
<path d="M10814 10759 c-8 -14 51 -72 69 -66 23 7 32 36 17 51 -22 20 -76 30
-86 15z"/>
<path d="M10988 10738 c-31 -11 -37 -38 -14 -57 17 -14 41 -5 70 27 32 36 3
52 -56 30z"/>
<path d="M11100 10731 c0 -14 61 -62 73 -58 22 7 31 35 18 51 -14 17 -91 23
-91 7z"/>
<path d="M11060 10701 c-18 -45 -10 -76 20 -76 19 0 26 6 28 23 4 26 -16 82
-28 82 -4 0 -13 -13 -20 -29z"/>
<path d="M11003 9970 c-41 -9 -79 -34 -97 -63 -22 -34 -88 -264 -93 -328 -12
-131 28 -212 181 -364 121 -121 206 -199 210 -194 2 2 -3 49 -12 104 -16 110
-13 139 31 304 34 124 41 201 27 286 -14 90 -38 143 -90 199 -35 38 -94 70
-120 65 -3 -1 -20 -4 -37 -9z"/>
<path d="M14955 9460 c-12 -5 1 -6 35 -3 30 3 57 7 59 9 9 8 -75 2 -94 -6z"/>
<path d="M15075 9450 c27 -12 43 -12 25 0 -8 5 -22 9 -30 9 -10 0 -8 -3 5 -9z"/>
<path d="M14888 9428 c-13 -13 -17 -18 -8 -12 8 6 24 16 35 22 11 6 15 12 8
12 -7 0 -22 -10 -35 -22z"/>
<path d="M15124 9426 c1 -8 16 -26 33 -40 52 -44 76 -107 71 -180 -6 -69 -23
-108 -70 -162 l-33 -37 30 16 c67 34 95 86 95 176 0 71 -21 136 -61 184 -35
43 -68 65 -65 43z m31 -16 c3 -6 -1 -7 -9 -4 -18 7 -21 14 -7 14 6 0 13 -4 16
-10z"/>
<path d="M15455 8822 c-44 -69 -143 -163 -211 -199 -86 -45 -150 -63 -257 -72
-121 -10 -168 -35 -225 -121 -74 -111 -78 -208 -11 -284 45 -52 106 -77 184
-77 76 0 119 12 189 54 132 77 234 184 298 312 58 115 70 161 75 303 3 73 2
132 -3 132 -5 0 -22 -21 -39 -48z"/>
<path d="M14163 8453 c-18 -6 -16 -44 2 -70 15 -22 15 -22 -15 -12 -38 14 -60
6 -60 -20 0 -18 31 -46 41 -37 2 2 20 6 39 10 l35 6 -38 -26 c-46 -31 -49 -67
-6 -72 26 -3 40 16 52 73 3 13 5 8 6 -11 1 -44 34 -83 57 -68 10 6 20 16 22
22 4 13 -36 56 -59 64 -8 3 -11 9 -7 13 4 4 13 3 20 -3 12 -9 47 -16 74 -13
18 2 26 32 13 47 -15 18 -37 18 -73 -1 -42 -22 -43 -11 -1 13 38 23 49 65 19
76 -22 8 -34 -1 -49 -37 l-13 -30 -7 31 c-7 33 -30 53 -52 45z"/>
<path d="M10050 8265 c0 -8 10 -24 23 -36 l22 -21 -23 11 c-13 7 -28 11 -34 9
-17 -6 20 -38 43 -38 26 0 59 18 59 32 0 7 -5 6 -15 -2 -13 -10 -15 -9 -15 10
0 23 -25 49 -47 50 -7 0 -13 -7 -13 -15z"/>
<path d="M14103 8123 c-18 -7 -16 -48 2 -63 22 -18 19 -33 -4 -20 -44 23 -79
3 -64 -36 5 -13 16 -15 54 -12 l47 5 -31 -21 c-39 -26 -45 -69 -10 -74 25 -4
53 31 54 68 0 18 4 12 12 -19 14 -52 37 -71 61 -52 24 20 19 37 -21 72 -21 17
-29 28 -18 24 35 -14 92 -17 99 -6 4 6 4 20 1 31 -8 25 -51 27 -83 4 -12 -8
-22 -11 -22 -7 0 5 14 17 31 27 23 14 29 24 27 44 -2 19 -10 28 -24 30 -17 2
-25 -5 -36 -35 l-15 -37 -8 34 c-9 44 -23 55 -52 43z m57 -93 c-8 -5 -19 -10
-25 -10 -5 0 -3 5 5 10 8 5 20 10 25 10 6 0 3 -5 -5 -10z"/>
<path d="M14322 7948 c-16 -16 -15 -34 4 -63 l16 -24 -30 11 c-33 13 -62 -1
-62 -28 0 -13 33 -37 41 -30 2 2 20 6 39 10 l35 6 -38 -27 c-45 -32 -48 -66
-6 -71 27 -3 48 27 50 71 0 12 6 2 12 -22 14 -52 37 -71 61 -52 24 20 19 37
-21 70 -42 35 -41 37 11 16 54 -23 99 8 64 43 -16 16 -37 15 -72 -3 -16 -9
-31 -13 -33 -11 -3 3 9 12 26 20 17 9 35 24 40 34 11 21 -3 52 -24 52 -19 0
-45 -39 -45 -67 0 -12 -4 -25 -10 -28 -6 -4 -7 6 -4 24 4 20 1 39 -10 56 -18
28 -27 30 -44 13z"/>
<path d="M7551 7617 c-7 -7 -7 -14 0 -24 16 -19 4 -44 -17 -36 -14 5 -16 3
-11 -11 4 -10 7 -20 7 -22 0 -8 65 -4 79 5 11 7 10 14 -8 40 -12 17 -20 35
-17 40 9 14 -20 21 -33 8z"/>
<path d="M7900 7313 c7 -53 25 -93 41 -93 7 0 9 18 4 53 -9 75 -14 87 -34 87
-15 0 -17 -7 -11 -47z"/>
<path d="M10105 7330 c-3 -6 -3 -19 0 -30 4 -12 2 -20 -6 -20 -9 0 -8 -4 1
-15 14 -17 60 -20 60 -4 0 6 -9 8 -22 3 -20 -6 -21 -5 -10 9 8 9 10 25 6 41
-6 27 -18 33 -29 16z"/>
<path d="M8890 7304 c0 -14 -5 -34 -10 -45 -9 -16 -7 -21 16 -29 32 -12 64 -4
64 16 0 8 -4 14 -10 14 -5 0 -12 16 -16 35 -4 25 -11 35 -25 35 -14 0 -19 -7
-19 -26z"/>
<path d="M13707 7195 c-111 -75 -151 -137 -152 -236 0 -56 4 -73 30 -114 17
-26 46 -56 65 -66 47 -26 121 -25 145 1 25 28 14 45 -53 79 -32 16 -64 37 -71
45 -12 15 -11 15 15 1 38 -20 88 -19 105 1 12 14 7 22 -39 63 -31 27 -56 59
-61 78 -13 46 4 100 44 140 39 39 23 43 -28 8z"/>
<path d="M8727 7082 l-87 -16 5 -35 4 -36 -10 37 c-10 34 -13 36 -36 27 -13
-5 -39 -9 -56 -9 -50 0 -57 -10 -47 -55 5 -22 17 -87 25 -145 9 -57 17 -105
18 -107 2 -1 33 3 70 9 l67 11 -6 51 c-4 32 -13 57 -25 66 -17 14 -17 19 -5
54 11 32 14 35 19 17 3 -12 13 -21 22 -21 13 0 15 -4 9 -17 -10 -20 -10 -131
0 -140 3 -3 47 0 97 7 105 15 143 36 173 95 19 36 25 40 58 40 49 0 53 7 32
47 -10 18 -17 39 -16 46 4 15 -30 16 -46 0 -8 -8 -16 -5 -31 13 -11 13 -20 27
-21 31 0 11 -85 48 -106 47 -10 -1 -58 -9 -107 -17z m80 -84 c-3 -8 -6 -5 -6
6 -1 11 2 17 5 13 3 -3 4 -12 1 -19z m23 -58 c5 0 7 -7 3 -16 -5 -13 -7 -13
-14 -2 -5 7 -8 22 -8 33 1 17 2 17 6 3 2 -10 8 -18 13 -18z m29 -7 c0 -25 -1
-26 -9 -8 -12 27 -12 35 0 35 6 0 10 -12 9 -27z"/>
<path d="M8393 7028 c-59 -9 -63 -12 -64 -36 -2 -26 -2 -26 -6 -3 -5 22 -7 23
-65 17 -76 -9 -86 -13 -91 -39 -4 -21 -4 -21 -6 2 -1 19 -5 22 -23 17 -13 -3
-54 -9 -93 -12 -106 -10 -174 -54 -192 -122 -4 -19 -11 -23 -29 -19 -45 8 -76
-56 -46 -93 18 -22 20 -23 52 -7 18 10 34 16 35 15 1 -2 8 -13 14 -26 18 -34
70 -62 116 -62 l41 0 -2 38 c-3 37 -3 37 4 4 4 -18 10 -33 15 -33 25 -1 138
14 141 20 2 3 -3 49 -10 101 -12 93 -17 169 -7 125 2 -11 9 -32 14 -46 5 -14
11 -58 13 -97 2 -40 5 -74 7 -77 5 -4 140 13 146 19 2 2 -3 45 -12 97 -17 105
-19 153 -4 102 5 -18 13 -34 18 -38 5 -3 7 -23 4 -44 -3 -22 -2 -56 1 -77 l7
-37 57 7 c101 12 103 13 97 55 -12 71 -15 79 -35 84 -20 5 -29 37 -10 37 6 0
10 -4 10 -10 0 -5 4 -10 8 -10 5 0 5 28 0 63 -11 79 -17 97 -31 96 -7 -1 -40
-6 -74 -11z m-70 -173 c-3 -8 -9 -15 -14 -15 -10 0 -12 24 -3 33 11 11 24 -3
17 -18z m-156 -34 c2 -15 -1 -21 -9 -19 -7 3 -15 15 -16 27 -3 15 1 22 9 19 7
-2 14 -14 16 -27z m-135 -38 c-4 -55 -12 -54 -12 2 0 27 3 45 7 41 4 -4 6 -23
5 -43z m-182 -8 c0 -5 -5 -3 -10 5 -5 8 -10 20 -10 25 0 6 5 3 10 -5 5 -8 10
-19 10 -25z"/>
<path d="M9506 6658 c-20 -28 -21 -129 -4 -242 12 -77 13 -79 47 -93 20 -8 66
-30 104 -49 76 -38 74 -42 52 75 -24 124 -53 209 -73 215 -10 4 -29 30 -43 59
-28 60 -57 73 -83 35z m70 -33 c22 -34 14 -39 -35 -24 -44 13 -48 18 -29 37
19 19 46 14 64 -13z"/>
<path d="M9533 6247 c2 -7 10 -38 16 -69 7 -31 22 -69 33 -84 27 -34 67 -274
70 -424 3 -103 -27 -324 -43 -315 -7 5 -49 -184 -84 -385 -14 -80 -36 -192
-49 -249 -14 -56 -22 -109 -19 -117 3 -8 -1 -14 -11 -14 -21 0 -20 -17 2 -31
17 -11 17 -14 3 -45 -25 -52 -38 -49 -46 9 -11 88 -24 125 -52 146 -28 23 -91
28 -124 11 -20 -11 -27 -50 -9 -50 6 0 10 7 10 15 0 8 12 18 26 21 64 16 111
-34 120 -128 11 -117 12 -118 44 -111 26 5 30 3 30 -17 0 -12 -16 -49 -36 -82
-44 -76 -51 -108 -31 -147 l15 -30 -44 -13 c-44 -13 -44 -13 -29 -35 16 -23
47 -29 81 -16 16 6 16 7 -2 14 -10 4 2 5 27 2 41 -5 48 -3 54 16 3 11 4 25 1
30 -3 4 3 16 14 26 19 18 28 75 12 75 -5 0 -19 -11 -32 -25 -33 -35 -40 -32
-41 18 l-1 42 -9 -34 c-14 -48 -20 -33 -7 18 6 23 14 38 18 32 9 -15 42 167
39 215 -1 22 1 53 5 69 4 17 11 48 17 70 5 22 11 49 13 60 1 11 8 31 13 45 17
41 100 482 127 675 14 99 30 181 36 183 15 5 12 63 -10 197 -26 157 -26 165 3
165 39 0 47 18 47 105 l0 81 -89 47 c-91 48 -117 56 -108 34z m114 -344 c-3
-10 -5 -2 -5 17 0 19 2 27 5 18 2 -10 2 -26 0 -35z m-140 -1145 c-3 -8 -6 -5
-6 6 -1 11 2 17 5 13 3 -3 4 -12 1 -19z m-12 -68 c-4 -23 -9 -39 -12 -36 -3 2
-2 23 2 46 4 23 9 39 12 36 3 -2 2 -23 -2 -46z m-56 -507 c2 -2 -3 -3 -12 -3
-9 0 -22 10 -28 23 l-12 22 24 -20 c13 -11 26 -21 28 -22z"/>
<path d="M9721 6194 c0 -11 3 -14 6 -6 3 7 2 16 -1 19 -3 4 -6 -2 -5 -13z"/>
<path d="M7591 6129 c-112 -99 -249 -254 -323 -364 -131 -197 -265 -513 -317
-750 -53 -242 -71 -581 -42 -805 87 -676 415 -1233 931 -1577 41 -28 91 -58
110 -67 l35 -17 -25 21 c-325 276 -502 495 -669 830 -114 230 -184 450 -227
715 -25 155 -26 478 0 630 65 396 222 736 480 1042 47 56 86 110 86 119 0 9
12 72 26 140 14 68 24 131 22 140 -2 13 -23 0 -87 -57z"/>
<path d="M10301 6154 c0 -11 3 -14 6 -6 3 7 2 16 -1 19 -3 4 -6 -2 -5 -13z"/>
<path d="M8863 6137 c-35 -5 -63 -14 -63 -19 0 -5 -4 -6 -10 -3 -17 10 -130
-7 -146 -22 -8 -8 -14 -10 -14 -5 0 5 -21 8 -47 5 -91 -8 -112 -13 -116 -31
-4 -15 -5 -15 -6 1 -1 13 -7 17 -18 13 -10 -3 -44 -8 -77 -12 l-58 -7 6 -46
c4 -25 9 -73 11 -106 3 -44 0 -34 -13 40 l-17 100 -35 -2 c-89 -4 -120 -13
-121 -36 -1 -17 -2 -18 -6 -4 -2 9 -10 17 -17 17 -28 0 -82 -47 -101 -87 -17
-36 -24 -42 -52 -43 -27 0 -33 -5 -43 -35 -18 -56 -8 -68 49 -63 44 4 51 2 62
-19 16 -29 50 -49 101 -58 l37 -7 -4 53 -4 54 10 -51 10 -50 76 12 c41 6 79
17 83 24 5 8 9 9 11 1 3 -7 59 -1 179 18 96 16 249 41 338 55 90 15 176 33
192 41 17 9 38 34 52 64 19 41 27 49 45 44 11 -2 31 1 43 7 20 11 20 13 6 35
-9 14 -16 33 -16 45 0 21 -33 29 -45 10 -11 -18 -31 -11 -43 15 -28 60 -96 75
-239 52z m137 -122 c7 -9 10 -18 6 -22 -3 -3 -6 -1 -6 5 0 7 -5 12 -10 12 -6
0 -8 -12 -5 -27 3 -16 2 -22 -1 -15 -3 6 -10 10 -15 6 -15 -9 -22 25 -9 41 16
19 24 19 40 0z m-158 -62 c-7 -20 -22 -15 -22 7 0 11 -4 20 -10 20 -5 0 -10
-8 -10 -17 0 -14 -2 -15 -12 -4 -11 10 -10 15 5 25 9 7 17 19 17 27 0 8 8 1
19 -16 10 -16 16 -36 13 -42z m-166 -36 c-11 -28 -11 -28 -17 -5 -4 13 -7 18
-8 11 -2 -20 -31 -3 -31 18 0 11 7 22 15 25 8 4 15 14 15 23 0 10 7 5 18 -14
15 -24 16 -35 8 -58z m-162 11 c8 -5 7 -11 -2 -20 -6 -6 -12 -21 -12 -32 0
-42 -16 4 -18 52 -2 40 0 44 10 27 6 -11 16 -23 22 -27z m-51 -3 c-3 -9 -8
-14 -10 -11 -3 3 -2 9 2 15 9 16 15 13 8 -4z m-302 -41 c4 -5 4 -23 0 -40 -7
-20 -10 -23 -10 -9 -1 11 -3 38 -6 60 -2 22 -2 31 1 20 4 -11 10 -25 15 -31z
m197 5 c-3 -8 -7 -3 -11 10 -4 17 -3 21 5 13 5 -5 8 -16 6 -23z m-368 -34 c0
-8 -4 -15 -10 -15 -5 0 -7 7 -4 15 4 8 8 15 10 15 2 0 4 -7 4 -15z m692 -10
c3 -14 1 -25 -3 -25 -5 0 -9 11 -9 25 0 14 2 25 4 25 2 0 6 -11 8 -25z m-345
-42 c-3 -10 -5 -4 -5 12 0 17 2 24 5 18 2 -7 2 -21 0 -30z"/>
<path d="M7735 6020 c-9 -15 4 -30 20 -23 22 8 19 -30 -4 -51 -19 -17 -19 -17
-15 1 4 14 0 19 -15 19 -18 0 -19 -2 -7 -21 16 -24 65 -32 77 -13 13 19 11 40
-3 32 -6 -4 -8 -3 -5 3 4 6 1 22 -6 37 -12 26 -31 34 -42 16z"/>
<path d="M9696 5920 c8 -77 32 -242 36 -245 3 -3 3 105 0 213 -1 33 -6 51 -12
47 -6 -3 -15 4 -20 17 -7 17 -8 8 -4 -32z"/>
<path d="M10233 5843 c-7 -3 -13 -15 -13 -28 0 -13 -4 -25 -9 -27 -5 -2 -5
-13 0 -25 9 -25 46 -31 80 -13 24 13 24 26 1 32 -10 3 -25 19 -33 35 -7 16
-20 28 -26 26z m7 -74 c0 -6 -4 -7 -10 -4 -5 3 -10 11 -10 16 0 6 5 7 10 4 6
-3 10 -11 10 -16z"/>
<path d="M9900 5740 c-26 -26 -25 -42 5 -70 21 -20 28 -22 50 -12 30 14 31 26
5 52 -11 11 -17 26 -14 35 9 22 -22 19 -46 -5z m20 -19 c0 -6 -4 -13 -10 -16
-5 -3 -10 1 -10 9 0 9 5 16 10 16 6 0 10 -4 10 -9z"/>
<path d="M10020 5633 c0 -4 12 -21 28 -37 15 -17 18 -23 6 -13 -28 24 -41 21
-19 -3 10 -12 25 -18 32 -16 21 8 53 -31 53 -63 0 -17 6 -31 16 -35 22 -9 24
-8 25 12 0 9 3 12 5 5 3 -7 1 -21 -5 -32 -9 -17 -6 -22 21 -35 20 -11 43 -14
65 -10 28 5 39 1 69 -26 26 -22 40 -28 47 -21 8 8 1 21 -23 46 -32 33 -70 49
-54 23 4 -6 3 -8 -4 -4 -6 3 -9 24 -7 46 3 33 -2 45 -33 81 -34 38 -41 41 -70
34 -20 -4 -31 -12 -30 -20 2 -8 -1 -14 -7 -14 -5 0 -9 7 -7 15 2 8 -18 27 -45
44 -47 30 -63 36 -63 23z m90 -57 c22 -27 -5 -17 -31 10 -21 24 -22 26 -3 16
11 -6 26 -18 34 -26z m144 -98 c15 -21 14 -23 -11 -40 -16 -10 -31 -14 -36 -9
-12 12 0 31 19 31 19 0 18 17 -3 29 -17 10 -17 10 -1 11 9 0 24 -10 32 -22z
m-61 -8 c-3 -12 -8 -19 -11 -16 -5 6 5 36 12 36 2 0 2 -9 -1 -20z"/>
<path d="M9747 5597 c-4 -10 -7 -28 -7 -40 1 -20 2 -20 11 -4 6 10 9 28 7 40
-3 20 -4 20 -11 4z"/>
<path d="M9090 5503 c-14 -2 -83 -13 -155 -24 -193 -29 -185 -27 -186 -57 -2
-26 -2 -26 -6 -3 -5 23 -7 23 -76 18 -72 -6 -257 -33 -262 -39 -1 -2 4 -39 12
-83 8 -44 16 -107 19 -140 l4 -60 -14 43 c-8 23 -19 49 -26 57 -8 10 -8 19 0
34 7 15 8 39 1 82 -6 34 -12 63 -13 64 -5 4 -146 -20 -152 -26 -8 -8 12 -123
22 -127 27 -9 45 -31 39 -47 -6 -14 -10 -15 -22 -5 -13 11 -15 6 -16 -31 -2
-34 -3 -37 -6 -14 -3 17 -11 34 -19 38 -11 6 -12 13 -3 28 8 15 7 39 -2 90
l-12 69 -36 -6 c-20 -3 -46 -13 -58 -20 -27 -17 -31 -39 -5 -29 28 12 75 25
78 22 2 -2 -17 -28 -42 -59 l-45 -57 16 -108 c19 -127 39 -222 67 -316 19 -65
22 -68 47 -63 28 6 396 66 404 66 3 0 8 8 10 18 4 15 5 15 6 -2 1 -12 6 -16
17 -12 9 3 47 9 85 12 l69 7 1 36 2 36 6 -35 c7 -40 -3 -39 141 -15 47 7 128
16 180 20 145 10 134 -2 127 134 -7 121 -11 150 -54 374 l-27 137 -45 -1 c-25
-1 -57 -4 -71 -6z m24 -189 c-6 -22 -8 -24 -16 -10 -5 9 -14 13 -20 10 -8 -5
-9 3 -5 26 4 18 7 42 7 54 1 16 5 13 21 -16 13 -25 17 -47 13 -64z m-332 -3
c11 -12 12 -36 8 -96 l-6 -80 -8 57 c-6 44 -13 59 -28 64 -15 4 -18 11 -13 27
4 12 10 40 13 62 5 39 5 40 13 11 4 -15 14 -36 21 -45z m148 30 c0 -5 9 -11
21 -14 16 -4 18 -9 10 -24 -5 -10 -13 -27 -17 -38 -6 -17 -8 -18 -11 -3 -2 9
-13 20 -24 23 -11 4 -18 12 -15 18 3 7 9 20 12 30 7 18 24 24 24 8z m-318 -57
c16 -5 19 -11 13 -32 -4 -15 -10 -49 -14 -77 -5 -27 -9 -40 -10 -29 -1 27 -28
91 -40 98 -5 3 -1 21 8 39 9 19 17 28 19 21 2 -7 12 -16 24 -20z m-152 -52 c0
-15 -2 -15 -10 -2 -13 20 -13 33 0 25 6 -3 10 -14 10 -23z m747 -29 c-3 -10
-5 -4 -5 12 0 17 2 24 5 18 2 -7 2 -21 0 -30z m-410 -105 c-3 -8 -6 -5 -6 6
-1 11 2 17 5 13 3 -3 4 -12 1 -19z m-143 -140 c4 7 5 19 2 27 -6 17 10 20 20
4 3 -6 -3 -24 -15 -40 -11 -15 -21 -34 -21 -41 0 -7 -8 4 -18 23 -14 28 -17
51 -13 110 l4 74 16 -85 c10 -53 19 -80 25 -72z m-387 95 c-3 -10 -5 -2 -5 17
0 19 2 27 5 18 2 -10 2 -26 0 -35z m724 4 c23 -6 24 -26 4 -53 -14 -19 -14
-19 -15 3 0 12 -4 25 -10 28 -5 3 -9 21 -9 38 1 22 3 25 6 11 2 -12 13 -24 24
-27z m177 1 c-4 -41 -40 -52 -58 -18 -15 27 2 50 37 50 21 0 24 -4 21 -32z
m-337 -93 l-7 -50 -7 45 c-4 24 -12 49 -18 56 -5 7 -7 24 -3 40 l7 27 17 -34
c13 -25 15 -47 11 -84z m135 37 c-9 -8 -26 10 -26 26 1 15 2 15 15 -2 8 -11
13 -21 11 -24z m-663 -157 l6 -90 -19 105 c-10 58 -19 121 -19 140 0 68 26
-58 32 -155z m183 131 c13 -4 24 -13 24 -21 0 -23 -17 -27 -23 -5 -3 11 -10
20 -15 20 -11 0 -4 -42 9 -50 4 -3 5 -17 2 -32 -5 -27 -6 -27 -27 15 -18 35
-19 48 -11 82 7 28 11 33 13 18 2 -13 13 -24 28 -27z m312 4 c-2 -5 -9 -6 -17
-1 -9 6 -11 16 -7 27 7 18 8 18 17 1 6 -10 9 -22 7 -27z m458 -6 c-4 -9 -9
-15 -11 -12 -3 3 -3 13 1 22 4 9 9 15 11 12 3 -3 3 -13 -1 -22z m-916 -48 c0
-20 -11 -46 -19 -46 -6 0 -7 48 -2 58 4 9 21 -1 21 -12z m667 -48 c-3 -8 -6
-5 -6 6 -1 11 2 17 5 13 3 -3 4 -12 1 -19z m-776 -65 c13 -16 12 -17 -3 -4
-10 7 -18 15 -18 17 0 8 8 3 21 -13z"/>
<path d="M8590 5273 c0 -5 5 -15 10 -23 8 -12 10 -11 10 8 0 12 -4 22 -10 22
-5 0 -10 -3 -10 -7z"/>
<path d="M9702 5390 c0 -14 2 -19 5 -12 2 6 2 18 0 25 -3 6 -5 1 -5 -13z"/>
<path d="M9692 5340 c0 -14 2 -19 5 -12 2 6 2 18 0 25 -3 6 -5 1 -5 -13z"/>
<path d="M10407 5333 c-14 -13 -7 -60 11 -76 25 -23 49 -21 62 3 8 14 8 20 0
20 -6 0 -16 14 -21 30 -10 28 -36 40 -52 23z m23 -28 c-7 -9 -15 -13 -19 -10
-3 3 1 10 9 15 21 14 24 12 10 -5z"/>
<path d="M9296 5257 c-26 -19 -18 -61 13 -65 31 -5 41 8 30 37 -9 23 -10 24
-32 5 -19 -17 -19 -16 2 9 26 28 18 37 -13 14z"/>
<path d="M7600 5168 c-6 -13 -16 -31 -22 -41 -11 -15 -10 -20 6 -33 32 -23 65
-18 76 12 13 33 13 34 -5 34 -8 0 -17 11 -21 25 -8 31 -21 32 -34 3z"/>
<path d="M8049 5168 c0 -2 -2 -12 -3 -23 -2 -11 -5 -27 -7 -35 -6 -22 51 -20
65 3 14 22 -3 51 -33 55 -11 2 -21 2 -22 0z"/>
<path d="M10703 5100 c-3 -11 -9 -20 -14 -20 -12 0 -11 -27 1 -35 5 -3 20 -1
32 6 22 12 22 11 6 -8 -10 -11 -18 -23 -18 -26 0 -12 25 -8 46 7 19 14 19 15
-4 45 -12 17 -22 35 -22 41 0 18 -22 11 -27 -10z"/>
<path d="M9805 5069 c-17 -4 -39 -16 -50 -26 -11 -10 -27 -18 -35 -18 -8 0
-17 -11 -18 -24 -2 -13 0 -21 5 -18 4 3 7 -21 5 -53 -3 -52 -1 -61 28 -93 17
-20 47 -41 66 -47 37 -13 104 -6 104 10 0 6 9 10 19 10 23 0 61 44 61 70 0 10
-9 20 -20 23 -11 3 -20 14 -20 24 0 11 -14 41 -31 67 -22 32 -28 51 -21 58 6
6 12 6 16 -1 9 -14 26 -14 26 -1 0 9 -64 31 -90 29 -8 0 -29 -5 -45 -10z m65
-29 c0 -5 -9 -10 -19 -10 -33 0 -51 -11 -66 -41 -23 -44 -18 -55 13 -26 52 50
123 25 138 -50 13 -67 -81 -110 -133 -61 -13 12 -23 27 -23 34 0 6 -9 14 -20
17 -16 4 -19 11 -14 39 4 25 3 29 -5 18 -9 -13 -11 -12 -11 4 0 10 15 33 34
52 26 26 42 34 70 34 20 0 36 -4 36 -10z"/>
<path d="M9983 4955 c0 -22 2 -30 4 -17 2 12 2 30 0 40 -3 9 -5 -1 -4 -23z"/>
<path d="M8073 4958 c1 -14 -3 -22 -10 -20 -18 3 -16 -13 2 -32 12 -12 21 -13
40 -4 13 6 26 17 29 25 9 21 -16 53 -41 53 -18 0 -22 -5 -20 -22z m47 -8 c0
-5 -2 -10 -4 -10 -3 0 -8 5 -11 10 -3 6 -1 10 4 10 6 0 11 -4 11 -10z"/>
<path d="M10611 4699 c-18 -4 -43 -17 -55 -29 -14 -15 -16 -20 -6 -18 11 2 14
-6 13 -34 l-2 -37 20 20 c17 17 30 20 61 16 22 -3 48 -13 59 -23 29 -26 23 -1
-6 26 -31 29 -35 71 -5 63 11 -3 33 -21 50 -40 23 -26 30 -43 30 -75 0 -37 -2
-40 -24 -36 -20 4 -25 0 -30 -22 -5 -27 -54 -60 -89 -60 -26 0 -67 40 -67 66
0 17 -5 24 -20 24 -18 0 -20 7 -20 55 0 32 -4 55 -11 55 -5 0 -7 5 -4 10 3 6
-2 10 -13 10 -21 0 -24 -32 -4 -52 7 -7 12 -34 12 -60 0 -91 46 -138 135 -138
85 0 145 50 152 127 8 96 -81 173 -176 152z m33 -24 c3 -10 -1 -15 -13 -15
-11 0 -26 -3 -35 -6 -25 -9 -19 12 7 24 30 15 34 14 41 -3z"/>
<path d="M9103 4658 c-45 -8 -53 -13 -52 -31 1 -15 3 -17 6 -6 3 12 21 19 68
24 36 3 67 11 70 16 7 11 -22 10 -92 -3z"/>
<path d="M8927 4630 c-36 -7 -54 -16 -46 -24 5 -5 108 14 134 24 16 7 13 9
-15 8 -19 0 -52 -4 -73 -8z"/>
<path d="M8730 4597 c-55 -16 -13 -19 65 -3 l70 14 -50 0 c-27 0 -66 -5 -85
-11z"/>
<path d="M9180 4592 c0 -6 7 -17 15 -26 9 -8 11 -17 6 -21 -14 -8 -9 -45 5
-45 7 0 14 -5 16 -11 2 -6 11 -7 22 -3 19 7 19 8 0 15 -17 7 -17 8 4 8 16 1
26 -6 29 -19 8 -30 20 -24 25 11 4 26 2 30 -14 26 -14 -4 -22 2 -29 20 -5 13
-6 29 -3 35 3 5 -3 4 -14 -3 -18 -11 -24 -10 -41 5 -12 11 -21 14 -21 8z"/>
<path d="M8595 4579 c-22 -5 -44 -15 -50 -21 -7 -8 -5 -9 6 -5 9 3 42 8 73 12
38 5 53 10 45 16 -16 10 -21 10 -74 -2z"/>
<path d="M8999 4578 c-4 -39 10 -58 44 -58 10 0 17 8 17 20 0 11 -6 20 -14 20
-8 0 -22 7 -30 16 -12 12 -16 12 -17 2z"/>
<path d="M8851 4553 c-6 -10 -11 -12 -11 -5 0 20 -20 14 -20 -6 0 -23 30 -52
54 -52 13 0 16 5 11 20 -4 11 -2 20 4 20 6 0 11 -8 11 -17 0 -12 3 -14 10 -7
14 14 1 46 -16 40 -8 -3 -14 1 -14 9 0 20 -17 19 -29 -2z"/>
<path d="M8412 4550 c-64 -15 -52 -26 18 -16 39 5 70 13 70 18 0 10 -43 9 -88
-2z"/>
<path d="M8492 4522 c-12 -12 -22 -28 -22 -34 1 -21 26 -48 44 -48 17 0 20 33
7 80 l-7 24 -22 -22z m15 -27 c0 -8 -4 -12 -9 -9 -4 3 -8 9 -8 15 0 5 4 9 8 9
5 0 9 -7 9 -15z"/>
<path d="M8650 4514 c0 -19 28 -54 43 -54 4 0 7 10 8 23 0 19 1 19 7 4 7 -16
10 -16 27 -3 11 8 16 18 12 22 -4 5 -12 2 -17 -6 -8 -12 -10 -10 -10 9 0 23
-1 23 -18 8 -17 -15 -19 -15 -35 0 -16 16 -17 16 -17 -3z"/>
<path d="M9020 4499 c-28 -5 -26 -15 3 -10 4 0 7 -3 7 -9 0 -5 -9 -10 -20 -10
-11 0 -20 -5 -20 -11 0 -7 10 -9 28 -5 15 4 47 8 72 10 41 2 90 22 90 37 0 3
-24 0 -52 -8 -43 -11 -55 -11 -63 0 -7 8 -22 10 -45 6z"/>
<path d="M8323 4469 c-4 -16 -8 -17 -14 -7 -6 9 -9 7 -9 -9 0 -46 31 -34 38
15 3 28 -8 29 -15 1z"/>
<path d="M8552 4470 c-8 -13 -8 -20 -2 -20 6 0 13 7 17 15 9 24 -1 27 -15 5z"/>
<path d="M8910 4471 c0 -4 11 -6 25 -3 14 2 25 6 25 8 0 2 -11 4 -25 4 -14 0
-25 -4 -25 -9z"/>
<path d="M8815 4460 c-3 -5 -1 -10 6 -10 8 0 7 -5 -2 -16 -8 -9 -12 -27 -11
-40 3 -19 0 -23 -13 -18 -10 4 -22 -1 -30 -12 -13 -17 -14 -17 -15 -2 0 32
-20 30 -20 -2 0 -30 1 -31 34 -24 34 6 35 5 42 -33 l8 -38 6 30 c7 38 40 55
108 55 49 0 52 -2 52 -24 0 -14 5 -28 11 -32 8 -4 9 3 5 22 -3 16 -3 34 2 41
11 17 58 33 100 33 20 1 55 9 77 20 22 11 57 19 77 20 41 0 68 8 68 20 0 5
-14 5 -30 0 -19 -5 -28 -5 -25 1 10 15 -34 10 -61 -8 -24 -15 -25 -15 -22 2 2
10 -3 20 -9 22 -8 3 -13 -5 -13 -21 0 -28 -25 -45 -41 -29 -7 7 -23 6 -47 -3
-49 -17 -72 -17 -72 1 0 8 -4 15 -10 15 -5 0 -10 -6 -10 -14 0 -21 -22 -35
-61 -39 -19 -2 -39 -6 -44 -9 -6 -2 -21 -2 -35 2 -17 4 -21 8 -12 14 10 6 10
11 1 22 -9 11 -6 14 17 14 38 0 56 13 48 33 -7 19 -68 24 -79 7z"/>
<path d="M8719 4443 c0 -11 -3 -13 -6 -5 -5 13 -47 15 -77 3 -14 -5 -16 -10
-8 -15 9 -5 9 -10 -1 -20 -6 -8 -15 -12 -18 -10 -3 2 -20 -1 -38 -6 -25 -7
-31 -6 -31 7 0 9 6 13 15 9 8 -3 25 -2 37 3 16 6 18 9 7 13 -22 9 -155 -15
-149 -27 2 -5 11 -9 20 -7 10 2 8 -1 -5 -12 -30 -22 0 -29 50 -12 45 16 61 12
68 -14 3 -13 0 -17 -9 -13 -10 4 -14 -3 -14 -22 0 -21 4 -26 16 -21 9 3 34 9
57 12 45 7 87 28 87 44 0 6 -6 10 -14 10 -16 0 -42 28 -33 36 3 3 24 7 46 8
49 2 82 26 37 26 -21 0 -27 4 -22 15 3 8 1 15 -4 15 -6 0 -10 -8 -11 -17z
m-61 -78 c3 -16 1 -18 -9 -7 -17 16 -29 15 -29 -3 0 -8 -4 -15 -10 -15 -5 0
-10 2 -10 4 0 2 -3 11 -6 19 -3 10 2 17 13 20 31 8 48 3 51 -18z"/>
<path d="M8370 4440 c-8 -5 -11 -12 -7 -16 4 -4 13 -2 19 4 15 15 7 24 -12 12z"/>
<path d="M8910 4440 c0 -5 7 -10 15 -10 8 0 15 -6 15 -14 0 -8 4 -18 10 -21 6
-3 7 1 4 10 -4 8 -1 22 6 30 11 13 8 15 -19 15 -17 0 -31 -4 -31 -10z"/>
<path d="M7994 4413 c-3 -10 -10 -26 -15 -36 -7 -12 -7 -23 0 -31 6 -7 8 -16
4 -19 -3 -4 7 -7 24 -7 23 0 33 6 42 27 9 19 9 29 2 31 -6 2 -11 10 -11 17 0
8 -9 19 -20 25 -17 9 -21 8 -26 -7z"/>
<path d="M8880 4412 c0 -10 36 -9 46 1 4 4 -5 7 -19 7 -15 0 -27 -4 -27 -8z"/>
<path d="M8334 4362 c-6 -4 -13 -15 -17 -24 -5 -13 -1 -18 14 -18 22 0 37 26
23 40 -5 5 -14 6 -20 2z"/>
<path d="M8370 4350 c0 -15 7 -20 29 -20 17 0 33 5 37 11 4 8 0 9 -15 4 -15
-5 -21 -2 -21 9 0 9 -7 16 -15 16 -8 0 -15 -9 -15 -20z"/>
<path d="M9262 4341 c-18 -11 -11 -56 8 -56 17 0 27 42 13 56 -4 4 -14 4 -21
0z"/>
<path d="M8487 4325 c6 -16 1 -17 -40 -13 -44 5 -63 -4 -34 -15 6 -3 2 -6 -10
-6 -13 -1 -23 -6 -23 -12 0 -6 9 -8 22 -3 21 6 22 5 8 -11 -14 -17 -13 -18 15
-11 17 4 32 12 33 17 2 5 13 9 25 9 12 0 32 3 45 6 28 8 30 44 3 44 -11 0 -27
3 -35 6 -12 5 -15 2 -9 -11z"/>
<path d="M8901 4289 c-16 -36 -10 -54 19 -62 21 -5 22 -3 17 35 -7 54 -20 64
-36 27z"/>
<path d="M9077 4314 c-8 -9 -9 -48 -1 -56 3 -3 14 -3 25 -1 15 4 19 13 17 32
-3 25 -26 39 -41 25z"/>
<path d="M8310 4291 c0 -10 -6 -22 -12 -24 -10 -4 -10 -6 0 -6 7 -1 10 -5 7
-11 -4 -6 6 -10 24 -10 16 0 33 5 36 10 3 6 1 10 -5 10 -6 0 -9 4 -5 9 3 5 1
12 -4 16 -5 3 -15 -3 -21 -12 -10 -16 -11 -16 -7 4 3 13 1 26 -4 29 -5 3 -9
-4 -9 -15z"/>
<path d="M9295 4270 c-4 -6 5 -10 19 -10 14 0 26 5 26 10 0 6 -9 10 -19 10
-11 0 -23 -4 -26 -10z"/>
<path d="M8721 4256 c-7 -9 -10 -29 -7 -49 5 -31 3 -36 -19 -41 -29 -7 -34
-26 -7 -26 29 0 45 16 39 39 -4 16 -1 21 11 19 13 -2 17 5 17 31 0 38 -15 50
-34 27z"/>
<path d="M8990 4256 c0 -8 5 -18 10 -21 6 -3 10 3 10 14 0 12 -4 21 -10 21 -5
0 -10 -6 -10 -14z"/>
<path d="M9215 4260 c-4 -6 5 -10 20 -10 15 0 24 4 20 10 -3 6 -12 10 -20 10
-8 0 -17 -4 -20 -10z"/>
<path d="M10996 4245 c5 -20 3 -24 -10 -19 -24 9 -19 -9 9 -36 22 -21 28 -22
52 -10 16 7 23 15 15 17 -6 3 -10 8 -7 13 3 4 -2 13 -10 20 -8 7 -15 19 -15
26 0 8 -9 14 -20 14 -17 0 -19 -5 -14 -25z"/>
<path d="M9183 4221 c2 -38 -2 -47 -21 -56 -20 -11 -21 -14 -7 -25 8 -7 30
-16 48 -20 l32 -8 -41 -1 c-49 -1 -53 -4 -46 -37 5 -28 -2 -28 145 -12 23 3
22 21 -3 43 -16 14 -19 27 -16 51 6 33 -5 44 -45 44 -10 0 -19 6 -19 13 0 7
-7 22 -14 33 -14 17 -15 15 -13 -25z m57 -61 c-20 -13 -40 -13 -40 0 0 6 12
10 28 10 21 0 24 -2 12 -10z"/>
<path d="M8542 4228 c-6 -7 -8 -25 -5 -39 4 -21 9 -25 29 -21 15 3 24 11 24
22 0 45 -25 65 -48 38z"/>
<path d="M9125 4230 c-4 -6 5 -10 19 -10 14 0 26 5 26 10 0 6 -9 10 -19 10
-11 0 -23 -4 -26 -10z"/>
<path d="M9060 4222 c-14 -2 -29 -8 -35 -14 -7 -7 1 -8 25 -3 51 11 60 24 10
17z"/>
<path d="M8365 4201 c-9 -16 8 -51 26 -51 27 0 26 46 -1 53 -11 3 -22 2 -25
-2z"/>
<path d="M8868 4188 c-27 -14 -38 -26 -38 -43 0 -17 -8 -26 -30 -33 -21 -8
-28 -16 -24 -26 5 -12 23 -16 73 -17 64 -2 61 -3 -27 -15 -29 -4 -40 -9 -35
-17 4 -7 8 -18 9 -25 2 -8 4 -15 6 -17 4 -4 121 15 127 20 2 3 0 26 -5 53 -7
37 -13 46 -27 44 -21 -4 -47 15 -47 33 0 8 14 16 30 20 21 5 30 13 30 26 0 10
-1 18 -2 18 -2 -1 -20 -10 -40 -21z"/>
<path d="M8945 4189 c-4 -6 -5 -12 -3 -14 7 -7 48 7 48 16 0 13 -37 11 -45 -2z"/>
<path d="M8774 4175 c-15 -11 -16 -14 -4 -15 21 0 44 16 33 23 -6 4 -19 0 -29
-8z"/>
<path d="M9053 4152 c-37 -6 -26 -18 12 -14 19 2 35 5 35 7 0 7 -27 11 -47 7z"/>
<path d="M8540 4139 c-8 -4 -24 -11 -35 -15 -17 -7 -14 -9 13 -12 38 -4 45 0
40 21 -2 9 -8 12 -18 6z"/>
<path d="M8603 4143 c-22 -8 -14 -23 13 -23 15 0 24 5 22 12 -5 14 -18 18 -35
11z"/>
<path d="M8965 4120 c-3 -5 3 -10 14 -10 11 0 23 5 26 10 3 6 -3 10 -14 10
-11 0 -23 -4 -26 -10z"/>
<path d="M9083 4099 c-6 -6 -36 -13 -67 -16 -53 -5 -68 -14 -46 -28 5 -3 6
-13 3 -21 -5 -14 0 -15 38 -10 94 15 94 15 96 46 2 32 -8 45 -24 29z"/>
<path d="M8435 4090 c-3 -5 3 -10 14 -10 12 0 21 5 21 10 0 6 -6 10 -14 10 -8
0 -18 -4 -21 -10z"/>
<path d="M8482 4070 c3 -22 0 -31 -14 -36 -27 -8 -23 -33 5 -28 12 3 6 -2 -13
-11 -33 -16 -34 -17 -16 -31 11 -8 18 -14 15 -15 -2 -1 -19 -2 -37 -4 -25 -2
-30 0 -22 10 15 19 1 25 -57 25 -44 0 -53 -3 -53 -18 0 -47 53 -53 215 -25 55
9 101 17 103 19 2 1 -6 17 -17 35 -27 43 -26 59 1 59 12 0 18 3 14 7 -3 4 -29
6 -56 4 -45 -2 -50 0 -50 18 0 12 -5 21 -11 21 -7 0 -10 -12 -7 -30z m75 -56
c-3 -3 -12 -4 -19 -1 -8 3 -5 6 6 6 11 1 17 -2 13 -5z"/>
<path d="M8686 4091 c-14 -5 -16 -10 -8 -15 15 -9 69 2 77 15 7 11 -42 11 -69
0z"/>
<path d="M8350 4080 c-8 -5 -12 -12 -8 -15 10 -10 49 5 43 16 -8 11 -16 11
-35 -1z"/>
<path d="M8627 4073 c-14 -13 -6 -20 18 -15 14 2 22 8 19 13 -6 11 -28 12 -37
2z"/>
<path d="M8732 4045 c-11 -13 -43 -19 -104 -18 -20 0 -24 -12 -8 -22 6 -4 8
-16 4 -27 -5 -18 -3 -20 17 -14 13 3 43 9 67 12 41 7 42 8 42 45 0 44 0 44
-18 24z"/>
<path d="M8346 4011 c-3 -5 8 -11 24 -13 32 -5 41 6 14 16 -22 8 -32 8 -38 -3z"/>
<path d="M3335 2779 c-22 -5 -91 -21 -153 -35 l-113 -26 -95 -78 c-52 -44
-110 -91 -130 -106 -45 -35 -122 -188 -225 -446 l-18 -47 90 60 c120 80 178
106 307 135 169 38 255 71 350 133 100 66 154 122 188 195 29 62 30 110 4 154
-40 65 -104 84 -205 61z"/>
<path d="M6865 2230 c-254 -30 -529 -201 -668 -416 -85 -132 -129 -289 -126
-449 1 -38 4 -27 14 50 18 136 38 203 97 316 54 104 150 222 234 288 71 55
206 125 287 150 38 11 110 26 160 32 107 14 103 13 142 5 23 -5 25 -4 10 3
-17 8 -15 10 15 11 l35 2 -30 8 c-37 9 -92 9 -170 0z"/>
<path d="M7108 2213 c7 -3 16 -2 19 1 4 3 -2 6 -13 5 -11 0 -14 -3 -6 -6z"/>
<path d="M9216 2165 c7 -18 44 -40 44 -27 0 10 -33 42 -43 42 -3 0 -4 -7 -1
-15z"/>
<path d="M9090 2140 c-14 -27 -6 -50 17 -49 17 1 17 2 1 6 -21 5 -22 8 -7 35
6 11 8 22 6 25 -3 2 -11 -5 -17 -17z"/>
<path d="M6081 1244 c0 -11 3 -14 6 -6 3 7 2 16 -1 19 -3 4 -6 -2 -5 -13z"/>
<path d="M6123 1080 c6 -16 15 -30 19 -30 5 0 2 14 -7 30 -9 17 -17 30 -19 30
-3 0 1 -13 7 -30z"/>
<path d="M6177 983 c-3 -5 4 -15 16 -23 21 -12 21 -12 7 6 -8 10 -15 20 -16
22 -1 2 -4 -1 -7 -5z"/>
<path d="M6226 912 c-3 -5 1 -9 9 -9 8 0 12 4 9 9 -3 4 -7 8 -9 8 -2 0 -6 -4
-9 -8z"/>
<path d="M5780 517 c0 -2 6 -10 14 -16 11 -9 16 -9 22 1 4 7 4 10 -1 6 -4 -4
-14 -3 -22 3 -7 6 -13 9 -13 6z"/>
</g>
</svg>
