<?xml version="1.0" standalone="no"?>
<!DOCTYPE svg PUBLIC "-//W3C//DTD SVG 20010904//EN"
 "http://www.w3.org/TR/2001/REC-SVG-20010904/DTD/svg10.dtd">
<svg version="1.0" xmlns="http://www.w3.org/2000/svg"
 width="840.000000pt" height="859.000000pt" viewBox="0 0 840.000000 859.000000"
 preserveAspectRatio="xMidYMid meet">

<g transform="translate(0.000000,859.000000) scale(0.100000,-0.100000)"
fill="#d8d8f6" stroke="none">
<path d="M6518 8550 c-185 -33 -359 -139 -473 -286 -133 -171 -166 -282 -246
-819 -17 -116 -43 -296 -59 -401 -15 -105 -30 -204 -34 -220 -3 -16 -20 -121
-37 -234 -17 -113 -43 -290 -60 -395 -16 -104 -43 -282 -59 -394 -17 -113 -33
-208 -36 -212 -2 -4 -32 10 -66 33 -74 49 -205 102 -291 117 -80 14 -232 14
-316 0 -198 -32 -418 -163 -533 -319 l-26 -35 -54 51 c-108 103 -240 166 -395
189 -124 19 -185 19 -303 0 -245 -40 -454 -185 -560 -387 -13 -26 -26 -46 -28
-44 -2 2 -23 107 -48 232 -24 126 -53 267 -64 314 -10 47 -24 114 -30 150 -9
55 -112 576 -149 760 -6 30 -22 109 -35 175 -37 181 -94 302 -204 433 -86 102
-249 198 -387 227 -91 19 -256 19 -351 -1 -201 -41 -390 -177 -494 -354 -85
-144 -118 -340 -86 -505 21 -105 98 -548 156 -890 11 -66 32 -181 45 -255 14
-74 32 -182 40 -240 9 -58 18 -112 20 -120 5 -17 68 -381 95 -550 10 -63 30
-178 43 -255 14 -77 32 -183 41 -235 8 -52 23 -135 32 -185 19 -99 21 -261 14
-1050 -4 -437 3 -570 41 -860 27 -208 36 -253 75 -388 96 -322 243 -567 493
-818 117 -116 199 -184 326 -269 28 -18 62 -42 77 -52 58 -39 298 -158 393
-196 297 -117 637 -194 979 -222 699 -56 1480 110 2011 429 458 275 773 636
936 1076 97 260 155 625 146 918 -9 325 -85 584 -242 832 l-57 90 17 125 c51
393 87 663 105 805 11 88 29 223 40 300 11 77 29 212 40 300 11 88 36 279 55
425 20 146 49 366 65 490 16 124 45 342 64 485 19 143 46 348 60 455 15 107
31 223 37 258 5 35 21 147 34 250 13 103 32 234 41 292 11 67 18 161 18 260 0
143 -2 162 -28 240 -95 289 -340 475 -641 485 -55 2 -121 0 -147 -5z m154
-235 c149 -38 269 -169 309 -335 23 -97 16 -181 -52 -650 -10 -74 -30 -220
-44 -325 -62 -476 -86 -654 -95 -705 -5 -30 -14 -95 -20 -145 -9 -81 -39 -301
-85 -635 -9 -63 -29 -214 -45 -335 -16 -121 -38 -285 -49 -365 -11 -80 -33
-246 -50 -370 -17 -124 -45 -328 -62 -455 -17 -126 -34 -238 -37 -247 -6 -14
-30 0 -139 85 -135 104 -232 172 -427 299 l-108 71 8 361 c12 488 11 536 -15
626 -12 41 -26 86 -32 101 -10 25 12 221 47 429 7 47 23 150 34 230 10 80 51
363 90 630 39 267 82 564 95 660 14 96 29 200 35 230 5 30 19 125 30 210 41
318 122 489 281 591 89 57 217 74 331 44z m-4724 -1114 c87 -30 147 -68 197
-124 90 -102 89 -101 210 -722 42 -214 85 -430 95 -480 11 -49 42 -207 71
-350 110 -560 227 -1124 338 -1630 51 -237 90 -326 189 -443 106 -124 293
-230 462 -262 43 -8 59 -17 87 -49 97 -114 315 -225 578 -295 l50 -13 -34 -19
c-61 -34 -175 -130 -224 -187 -157 -184 -226 -414 -199 -665 6 -59 17 -124 24
-145 14 -38 14 -36 26 90 29 324 164 575 398 742 112 79 180 114 319 162 101
34 318 79 385 79 23 0 47 -21 137 -122 174 -196 277 -319 316 -377 37 -53 37
-54 38 -160 l1 -106 20 60 c11 33 22 85 25 116 5 50 1 63 -35 140 -129 268
-344 553 -464 616 -52 27 -76 28 -215 7 -147 -22 -302 -15 -398 19 -241 84
-462 204 -552 300 -102 108 -148 216 -148 347 1 139 54 237 155 291 43 23 55
24 260 25 258 3 424 24 645 84 83 23 182 50 220 60 301 82 480 54 694 -107 35
-26 73 -55 85 -63 33 -23 261 -208 296 -240 9 -8 46 -40 81 -70 180 -155 423
-410 537 -566 68 -93 131 -232 149 -326 23 -116 23 -456 0 -594 -18 -112 -77
-329 -108 -402 -188 -429 -406 -696 -772 -946 -284 -193 -647 -337 -1058 -416
-380 -73 -690 -85 -1079 -39 -241 28 -631 131 -828 220 -266 119 -409 215
-583 388 -245 244 -380 465 -453 741 -49 187 -62 370 -76 1075 -14 735 -27
1054 -45 1150 -9 44 -31 168 -50 275 -19 107 -51 283 -70 390 -20 107 -49 269
-65 360 -28 155 -39 216 -105 580 -14 80 -39 215 -55 300 -16 85 -45 245 -65
355 -20 110 -48 259 -62 330 -39 200 -19 317 76 436 68 86 190 163 299 188 71
17 218 13 280 -8z m3077 -1732 c131 -37 237 -118 283 -217 l27 -57 3 -393 3
-394 -33 7 c-93 21 -280 0 -453 -50 -47 -14 -145 -38 -218 -54 -200 -44 -197
-43 -197 -23 0 9 -5 69 -10 132 -25 298 -39 638 -29 701 29 181 178 326 372
360 53 10 200 3 252 -12z m-1338 -105 c125 -33 239 -132 289 -251 l28 -68 4
-391 4 -391 -46 -7 c-25 -4 -84 -20 -131 -36 -270 -91 -426 -303 -429 -582 -1
-68 -5 -98 -13 -98 -26 0 -122 102 -156 167 -46 88 -54 127 -67 308 -5 83 -16
224 -24 315 -36 413 -49 679 -37 749 42 233 296 359 578 285z"/>
</g>
</svg>
